M48
;Layer_Color=9474304
;FILE_FORMAT=2:5
INCH,LZ
;TYPE=PLATED
T1F00S00C0.01575
T2F00S00C0.02165
T4F00S00C0.06299
%
T01
X0031Y001731
X0033746
X0036492
X0034432Y0021034
X00319
X00266Y00225
Y002565
X00377Y0022
X00379Y00342
X00461Y00412
X00504Y00538
X0056Y00529
X00266Y00475
Y004435
X0062Y0053
X00629Y00235
X00644Y00199
X00688Y00225
X00689Y00285
T02
X0046Y00035
X0052Y0013
X0054Y0026
X00485Y00315
X00385Y00385
X0059Y0043
X0068247Y00375
X0096234Y0031734
X00705Y0004
T04
X0123937Y0025157
Y0044842
M30
