G04*
G04 #@! TF.GenerationSoftware,Altium Limited,Altium Designer,20.1.11 (218)*
G04*
G04 Layer_Color=255*
%FSLAX25Y25*%
%MOIN*%
G70*
G04*
G04 #@! TF.SameCoordinates,DBF43E64-11B2-480E-9B44-63982416C987*
G04*
G04*
G04 #@! TF.FilePolarity,Positive*
G04*
G01*
G75*
%ADD14R,0.03937X0.04331*%
%ADD15C,0.03937*%
%ADD16R,0.02756X0.04724*%
%ADD17R,0.04528X0.01181*%
%ADD18R,0.01772X0.01968*%
%ADD19R,0.03150X0.02362*%
%ADD20R,0.00984X0.03150*%
%ADD21R,0.03150X0.00984*%
%ADD22R,0.10630X0.10630*%
%ADD39O,0.08661X0.03937*%
%ADD40O,0.07087X0.03937*%
%ADD41C,0.09449*%
%ADD42R,0.09449X0.09449*%
D14*
X49500Y55807D02*
D03*
Y62500D02*
D03*
X31500Y53307D02*
D03*
Y60000D02*
D03*
X93000Y62846D02*
D03*
Y56154D02*
D03*
X73500Y6154D02*
D03*
Y12846D02*
D03*
X67500Y6154D02*
D03*
Y12846D02*
D03*
X92500Y6154D02*
D03*
Y12846D02*
D03*
X62000Y43154D02*
D03*
Y49847D02*
D03*
X56000Y43154D02*
D03*
Y49847D02*
D03*
X74000Y62846D02*
D03*
Y56154D02*
D03*
X62000Y56154D02*
D03*
Y62846D02*
D03*
X56000Y56154D02*
D03*
Y62846D02*
D03*
X86500Y12846D02*
D03*
Y6154D02*
D03*
X79500Y12846D02*
D03*
Y6154D02*
D03*
X87000Y56154D02*
D03*
Y62846D02*
D03*
X80000Y56154D02*
D03*
Y62846D02*
D03*
X61000Y6154D02*
D03*
Y12846D02*
D03*
X55000Y6154D02*
D03*
Y12846D02*
D03*
X49000Y12846D02*
D03*
Y6154D02*
D03*
X43000Y12846D02*
D03*
Y6154D02*
D03*
D15*
X42900Y49300D02*
D03*
X37100Y49400D02*
D03*
D16*
X73658Y46795D02*
D03*
X93343D02*
D03*
X83500D02*
D03*
X73658Y21205D02*
D03*
X93343D02*
D03*
X83500D02*
D03*
D17*
X27760Y47992D02*
D03*
Y41890D02*
D03*
Y39921D02*
D03*
Y35984D02*
D03*
Y43858D02*
D03*
Y44842D02*
D03*
Y47008D02*
D03*
Y37953D02*
D03*
Y22008D02*
D03*
Y28110D02*
D03*
Y30079D02*
D03*
Y34016D02*
D03*
Y26142D02*
D03*
Y25157D02*
D03*
Y22992D02*
D03*
Y32047D02*
D03*
D18*
X37166Y26313D02*
D03*
Y29266D02*
D03*
X33666Y26313D02*
D03*
Y29266D02*
D03*
D19*
X50216Y49059D02*
D03*
Y43941D02*
D03*
X37100Y54141D02*
D03*
Y59259D02*
D03*
X42900Y54141D02*
D03*
Y59259D02*
D03*
D20*
X46279Y36774D02*
D03*
X48247D02*
D03*
X50216D02*
D03*
X48247Y21026D02*
D03*
X46279D02*
D03*
X56121Y36774D02*
D03*
X52184D02*
D03*
X54153D02*
D03*
Y21026D02*
D03*
X56121D02*
D03*
X50216D02*
D03*
X52184D02*
D03*
D21*
X43326Y33821D02*
D03*
Y27916D02*
D03*
Y31853D02*
D03*
Y25947D02*
D03*
Y23979D02*
D03*
Y29884D02*
D03*
X59074Y33821D02*
D03*
Y27916D02*
D03*
Y31853D02*
D03*
Y29884D02*
D03*
Y23979D02*
D03*
Y25947D02*
D03*
D22*
X51200Y28900D02*
D03*
D39*
X8626Y13051D02*
D03*
Y56949D02*
D03*
D40*
X24374Y13051D02*
D03*
Y56949D02*
D03*
D41*
X123937Y25157D02*
D03*
D42*
Y44842D02*
D03*
M02*
