G04*
G04 #@! TF.GenerationSoftware,Altium Limited,Altium Designer,20.1.11 (218)*
G04*
G04 Layer_Color=16711935*
%FSLAX25Y25*%
%MOIN*%
G70*
G04*
G04 #@! TF.SameCoordinates,DBF43E64-11B2-480E-9B44-63982416C987*
G04*
G04*
G04 #@! TF.FilePolarity,Positive*
G04*
G01*
G75*
%ADD50C,0.01968*%
G36*
X358Y17283D02*
Y52716D01*
X23980Y52716D01*
Y17284D01*
X358Y17283D01*
D02*
G37*
D50*
X0Y57000D02*
G03*
X3500Y53500I3500J-0D01*
G01*
X24500Y52500D02*
G03*
X23500Y53500I-1000J0D01*
G01*
Y16500D02*
G03*
X24500Y17500I0J1000D01*
G01*
X3500Y16500D02*
G03*
X0Y13000I-0J-3500D01*
G01*
Y2000D02*
G03*
X2000Y0I2000J0D01*
G01*
X138000Y-0D02*
G03*
X140000Y2000I0J2000D01*
G01*
X140000Y68000D02*
G03*
X138000Y70000I-2000J0D01*
G01*
X2000D02*
G03*
X0Y68000I0J-2000D01*
G01*
Y57000D02*
Y68000D01*
X3500Y53500D02*
X23500D01*
X24500Y17500D02*
Y52500D01*
X3500Y16500D02*
X23500D01*
X0Y2000D02*
Y13000D01*
X2000Y0D02*
X138000Y-0D01*
X140000Y68000D02*
X140000Y2000D01*
X137000Y70000D02*
X138000Y70000D01*
X2000D02*
X137000Y70000D01*
M02*
