G04*
G04 #@! TF.GenerationSoftware,Altium Limited,Altium Designer,20.1.12 (249)*
G04*
G04 Layer_Color=32896*
%FSLAX25Y25*%
%MOIN*%
G70*
G04*
G04 #@! TF.SameCoordinates,107415BC-DFEE-44E7-A37C-D126963BBEB2*
G04*
G04*
G04 #@! TF.FilePolarity,Positive*
G04*
G01*
G75*
G36*
X116753Y33741D02*
Y33664D01*
Y33587D01*
Y33510D01*
Y33433D01*
Y33356D01*
Y33279D01*
Y33202D01*
Y33125D01*
Y33048D01*
Y32971D01*
Y32894D01*
Y32817D01*
Y32740D01*
Y32663D01*
Y32585D01*
Y32509D01*
Y32431D01*
Y32354D01*
Y32277D01*
Y32200D01*
Y32123D01*
Y32046D01*
Y31969D01*
Y31892D01*
Y31815D01*
Y31738D01*
Y31661D01*
Y31584D01*
Y31507D01*
Y31430D01*
Y31353D01*
Y31276D01*
Y31199D01*
Y31122D01*
Y31045D01*
Y30967D01*
Y30890D01*
Y30813D01*
Y30736D01*
Y30659D01*
Y30582D01*
Y30505D01*
Y30428D01*
Y30351D01*
Y30274D01*
Y30197D01*
Y30120D01*
Y30043D01*
Y29966D01*
Y29889D01*
Y29812D01*
Y29735D01*
Y29658D01*
Y29580D01*
Y29503D01*
Y29426D01*
Y29349D01*
Y29272D01*
Y29195D01*
Y29118D01*
Y29041D01*
Y28964D01*
Y28887D01*
Y28810D01*
Y28733D01*
Y28656D01*
Y28579D01*
Y28502D01*
Y28425D01*
Y28348D01*
Y28271D01*
Y28194D01*
Y28116D01*
Y28039D01*
Y27962D01*
Y27885D01*
Y27808D01*
Y27731D01*
Y27654D01*
Y27577D01*
Y27500D01*
Y27423D01*
Y27346D01*
Y27269D01*
Y27192D01*
Y27115D01*
Y27038D01*
Y26961D01*
Y26884D01*
Y26807D01*
Y26730D01*
Y26652D01*
Y26575D01*
Y26498D01*
Y26421D01*
Y26344D01*
Y26267D01*
Y26190D01*
Y26113D01*
Y26036D01*
Y25959D01*
Y25882D01*
Y25805D01*
Y25728D01*
Y25651D01*
Y25574D01*
Y25497D01*
Y25420D01*
Y25343D01*
Y25265D01*
Y25188D01*
Y25111D01*
Y25034D01*
Y24957D01*
Y24880D01*
Y24803D01*
Y24726D01*
Y24649D01*
Y24572D01*
Y24495D01*
Y24418D01*
Y24341D01*
Y24264D01*
Y24187D01*
Y24110D01*
Y24033D01*
Y23956D01*
Y23878D01*
Y23801D01*
Y23724D01*
Y23647D01*
Y23570D01*
Y23493D01*
Y23416D01*
Y23339D01*
Y23262D01*
Y23185D01*
Y23108D01*
Y23031D01*
Y22954D01*
Y22877D01*
Y22800D01*
Y22723D01*
Y22646D01*
Y22569D01*
Y22491D01*
Y22414D01*
Y22337D01*
Y22260D01*
Y22183D01*
Y22106D01*
Y22029D01*
Y21952D01*
Y21875D01*
Y21798D01*
Y21721D01*
Y21644D01*
Y21567D01*
Y21490D01*
Y21413D01*
Y21336D01*
Y21259D01*
Y21182D01*
Y21104D01*
Y21027D01*
Y20950D01*
Y20873D01*
Y20796D01*
Y20719D01*
Y20642D01*
Y20565D01*
Y20488D01*
Y20411D01*
Y20334D01*
Y20257D01*
Y20180D01*
Y20103D01*
Y20026D01*
Y19949D01*
Y19872D01*
Y19795D01*
Y19718D01*
Y19640D01*
Y19564D01*
Y19486D01*
Y19409D01*
Y19332D01*
Y19255D01*
Y19178D01*
Y19101D01*
Y19024D01*
Y18947D01*
Y18870D01*
Y18793D01*
Y18716D01*
Y18639D01*
Y18562D01*
Y18485D01*
Y18408D01*
Y18331D01*
Y18253D01*
Y18177D01*
Y18099D01*
Y18022D01*
Y17945D01*
Y17868D01*
Y17791D01*
Y17714D01*
Y17637D01*
Y17560D01*
Y17483D01*
Y17406D01*
Y17329D01*
Y17252D01*
Y17175D01*
Y17098D01*
Y17021D01*
Y16944D01*
Y16867D01*
Y16790D01*
Y16713D01*
Y16635D01*
Y16558D01*
Y16481D01*
Y16404D01*
Y16327D01*
Y16250D01*
Y16173D01*
Y16096D01*
Y16019D01*
Y15942D01*
Y15865D01*
Y15788D01*
Y15711D01*
Y15634D01*
Y15557D01*
Y15480D01*
Y15403D01*
Y15326D01*
Y15248D01*
Y15171D01*
Y15094D01*
Y15017D01*
Y14940D01*
Y14863D01*
Y14786D01*
Y14709D01*
Y14632D01*
Y14555D01*
Y14478D01*
Y14401D01*
Y14324D01*
Y14247D01*
Y14170D01*
Y14093D01*
Y14016D01*
Y13939D01*
Y13861D01*
Y13784D01*
Y13707D01*
Y13630D01*
Y13553D01*
Y13476D01*
Y13399D01*
Y13322D01*
Y13245D01*
Y13168D01*
Y13091D01*
Y13014D01*
Y12937D01*
Y12860D01*
Y12783D01*
Y12706D01*
Y12629D01*
Y12552D01*
Y12474D01*
Y12398D01*
Y12320D01*
Y12243D01*
Y12166D01*
Y12089D01*
Y12012D01*
Y11935D01*
Y11858D01*
Y11781D01*
Y11704D01*
Y11627D01*
Y11550D01*
Y11473D01*
Y11396D01*
Y11319D01*
Y11242D01*
Y11165D01*
Y11088D01*
Y11011D01*
Y10933D01*
Y10856D01*
Y10779D01*
Y10702D01*
Y10625D01*
Y10548D01*
Y10471D01*
Y10394D01*
Y10317D01*
Y10240D01*
Y10163D01*
Y10086D01*
Y10009D01*
Y9932D01*
Y9855D01*
Y9778D01*
Y9701D01*
Y9623D01*
Y9546D01*
Y9469D01*
Y9392D01*
Y9315D01*
Y9238D01*
Y9161D01*
Y9084D01*
Y9007D01*
Y8930D01*
Y8853D01*
Y8776D01*
Y8699D01*
Y8622D01*
Y8545D01*
Y8468D01*
Y8391D01*
Y8314D01*
Y8237D01*
Y8160D01*
Y8083D01*
Y8005D01*
Y7928D01*
Y7851D01*
Y7774D01*
Y7697D01*
Y7620D01*
Y7543D01*
Y7466D01*
Y7389D01*
Y7312D01*
Y7235D01*
Y7158D01*
Y7081D01*
Y7004D01*
Y6927D01*
Y6850D01*
Y6773D01*
Y6696D01*
Y6618D01*
Y6541D01*
Y6464D01*
Y6387D01*
Y6310D01*
Y6233D01*
Y6156D01*
Y6079D01*
Y6002D01*
Y5925D01*
Y5848D01*
Y5771D01*
Y5694D01*
Y5617D01*
Y5540D01*
Y5463D01*
Y5386D01*
Y5308D01*
Y5232D01*
Y5154D01*
Y5077D01*
Y5000D01*
Y4923D01*
Y4846D01*
Y4769D01*
Y4692D01*
X72601D01*
Y4769D01*
Y4846D01*
Y4923D01*
Y5000D01*
Y5077D01*
Y5154D01*
Y5232D01*
Y5308D01*
Y5386D01*
Y5463D01*
Y5540D01*
Y5617D01*
Y5694D01*
Y5771D01*
Y5848D01*
Y5925D01*
Y6002D01*
Y6079D01*
Y6156D01*
Y6233D01*
Y6310D01*
Y6387D01*
Y6464D01*
Y6541D01*
Y6618D01*
Y6696D01*
Y6773D01*
Y6850D01*
Y6927D01*
Y7004D01*
Y7081D01*
Y7158D01*
Y7235D01*
Y7312D01*
Y7389D01*
Y7466D01*
Y7543D01*
Y7620D01*
Y7697D01*
Y7774D01*
Y7851D01*
Y7928D01*
Y8005D01*
Y8083D01*
Y8160D01*
Y8237D01*
Y8314D01*
Y8391D01*
Y8468D01*
Y8545D01*
Y8622D01*
Y8699D01*
Y8776D01*
Y8853D01*
Y8930D01*
Y9007D01*
Y9084D01*
Y9161D01*
Y9238D01*
Y9315D01*
Y9392D01*
Y9469D01*
Y9546D01*
Y9623D01*
Y9701D01*
Y9778D01*
Y9855D01*
Y9932D01*
Y10009D01*
Y10086D01*
Y10163D01*
Y10240D01*
Y10317D01*
Y10394D01*
Y10471D01*
Y10548D01*
Y10625D01*
Y10702D01*
Y10779D01*
Y10856D01*
Y10933D01*
Y11011D01*
Y11088D01*
Y11165D01*
Y11242D01*
Y11319D01*
Y11396D01*
Y11473D01*
Y11550D01*
Y11627D01*
Y11704D01*
Y11781D01*
Y11858D01*
Y11935D01*
Y12012D01*
Y12089D01*
Y12166D01*
Y12243D01*
Y12320D01*
Y12398D01*
Y12474D01*
Y12552D01*
Y12629D01*
Y12706D01*
Y12783D01*
Y12860D01*
Y12937D01*
Y13014D01*
Y13091D01*
Y13168D01*
Y13245D01*
Y13322D01*
Y13399D01*
Y13476D01*
Y13553D01*
Y13630D01*
Y13707D01*
Y13784D01*
Y13861D01*
Y13939D01*
Y14016D01*
Y14093D01*
Y14170D01*
Y14247D01*
Y14324D01*
Y14401D01*
Y14478D01*
Y14555D01*
Y14632D01*
Y14709D01*
Y14786D01*
Y14863D01*
Y14940D01*
Y15017D01*
Y15094D01*
Y15171D01*
Y15248D01*
Y15326D01*
Y15403D01*
Y15480D01*
Y15557D01*
Y15634D01*
Y15711D01*
Y15788D01*
Y15865D01*
Y15942D01*
Y16019D01*
Y16096D01*
Y16173D01*
Y16250D01*
Y16327D01*
Y16404D01*
Y16481D01*
Y16558D01*
Y16635D01*
Y16713D01*
Y16790D01*
Y16867D01*
Y16944D01*
Y17021D01*
Y17098D01*
Y17175D01*
Y17252D01*
Y17329D01*
Y17406D01*
Y17483D01*
Y17560D01*
Y17637D01*
Y17714D01*
Y17791D01*
Y17868D01*
Y17945D01*
Y18022D01*
Y18099D01*
Y18177D01*
Y18253D01*
Y18331D01*
Y18408D01*
Y18485D01*
Y18562D01*
Y18639D01*
Y18716D01*
Y18793D01*
Y18870D01*
Y18947D01*
Y19024D01*
Y19101D01*
Y19178D01*
Y19255D01*
Y19332D01*
Y19409D01*
Y19486D01*
Y19564D01*
Y19640D01*
Y19718D01*
Y19795D01*
Y19872D01*
Y19949D01*
Y20026D01*
Y20103D01*
Y20180D01*
Y20257D01*
Y20334D01*
Y20411D01*
Y20488D01*
Y20565D01*
Y20642D01*
Y20719D01*
Y20796D01*
Y20873D01*
Y20950D01*
Y21027D01*
Y21104D01*
Y21182D01*
Y21259D01*
Y21336D01*
Y21413D01*
Y21490D01*
Y21567D01*
Y21644D01*
Y21721D01*
Y21798D01*
Y21875D01*
Y21952D01*
Y22029D01*
Y22106D01*
Y22183D01*
Y22260D01*
Y22337D01*
Y22414D01*
Y22491D01*
Y22569D01*
Y22646D01*
Y22723D01*
Y22800D01*
Y22877D01*
Y22954D01*
Y23031D01*
Y23108D01*
Y23185D01*
Y23262D01*
Y23339D01*
Y23416D01*
Y23493D01*
Y23570D01*
Y23647D01*
Y23724D01*
Y23801D01*
Y23878D01*
Y23956D01*
Y24033D01*
Y24110D01*
Y24187D01*
Y24264D01*
Y24341D01*
Y24418D01*
Y24495D01*
Y24572D01*
Y24649D01*
Y24726D01*
Y24803D01*
Y24880D01*
Y24957D01*
Y25034D01*
Y25111D01*
Y25188D01*
Y25265D01*
Y25343D01*
Y25420D01*
Y25497D01*
Y25574D01*
Y25651D01*
Y25728D01*
Y25805D01*
Y25882D01*
Y25959D01*
Y26036D01*
Y26113D01*
Y26190D01*
Y26267D01*
Y26344D01*
Y26421D01*
Y26498D01*
Y26575D01*
Y26652D01*
Y26730D01*
Y26807D01*
Y26884D01*
Y26961D01*
Y27038D01*
Y27115D01*
Y27192D01*
Y27269D01*
Y27346D01*
Y27423D01*
Y27500D01*
Y27577D01*
Y27654D01*
Y27731D01*
Y27808D01*
Y27885D01*
Y27962D01*
Y28039D01*
Y28116D01*
Y28194D01*
Y28271D01*
Y28348D01*
Y28425D01*
Y28502D01*
Y28579D01*
Y28656D01*
Y28733D01*
Y28810D01*
Y28887D01*
Y28964D01*
Y29041D01*
Y29118D01*
Y29195D01*
Y29272D01*
Y29349D01*
Y29426D01*
Y29503D01*
Y29580D01*
Y29658D01*
Y29735D01*
Y29812D01*
Y29889D01*
Y29966D01*
Y30043D01*
Y30120D01*
Y30197D01*
Y30274D01*
Y30351D01*
Y30428D01*
Y30505D01*
Y30582D01*
Y30659D01*
Y30736D01*
Y30813D01*
Y30890D01*
Y30967D01*
Y31045D01*
Y31122D01*
Y31199D01*
Y31276D01*
Y31353D01*
Y31430D01*
Y31507D01*
Y31584D01*
Y31661D01*
Y31738D01*
Y31815D01*
Y31892D01*
Y31969D01*
Y32046D01*
Y32123D01*
Y32200D01*
Y32277D01*
Y32354D01*
Y32431D01*
Y32509D01*
Y32585D01*
Y32663D01*
Y32740D01*
Y32817D01*
Y32894D01*
Y32971D01*
Y33048D01*
Y33125D01*
Y33202D01*
Y33279D01*
Y33356D01*
Y33433D01*
Y33510D01*
Y33587D01*
Y33664D01*
Y33741D01*
Y33818D01*
X116753D01*
Y33741D01*
D02*
G37*
G36*
X137941Y50950D02*
Y50106D01*
X133634Y48797D01*
Y49714D01*
X136742Y50528D01*
X133634Y51335D01*
Y52252D01*
X137941Y50950D01*
D02*
G37*
G36*
Y46628D02*
X137926Y46510D01*
X137919Y46406D01*
X137904Y46310D01*
X137889Y46236D01*
X137882Y46177D01*
X137867Y46140D01*
Y46125D01*
X137830Y46022D01*
X137793Y45925D01*
X137756Y45844D01*
X137719Y45770D01*
X137682Y45718D01*
X137652Y45674D01*
X137637Y45644D01*
X137630Y45637D01*
X137563Y45563D01*
X137497Y45504D01*
X137430Y45452D01*
X137371Y45407D01*
X137312Y45378D01*
X137267Y45356D01*
X137238Y45341D01*
X137230Y45333D01*
X137142Y45296D01*
X137045Y45267D01*
X136949Y45252D01*
X136868Y45237D01*
X136794Y45230D01*
X136735Y45222D01*
X136698D01*
X136683D01*
X136564Y45230D01*
X136513Y45237D01*
X136468Y45245D01*
X136424Y45252D01*
X136394Y45259D01*
X136379Y45267D01*
X136372D01*
X136261Y45304D01*
X136172Y45348D01*
X136135Y45370D01*
X136113Y45385D01*
X136098Y45393D01*
X136091Y45400D01*
X136002Y45474D01*
X135928Y45548D01*
X135898Y45578D01*
X135876Y45607D01*
X135869Y45622D01*
X135861Y45629D01*
X135802Y45733D01*
X135758Y45837D01*
X135743Y45881D01*
X135728Y45918D01*
X135721Y45940D01*
Y45948D01*
X135669Y45844D01*
X135610Y45748D01*
X135551Y45666D01*
X135491Y45607D01*
X135440Y45555D01*
X135395Y45518D01*
X135366Y45496D01*
X135358Y45489D01*
X135262Y45437D01*
X135166Y45393D01*
X135077Y45363D01*
X134996Y45348D01*
X134922Y45333D01*
X134862Y45326D01*
X134825D01*
X134811D01*
X134700Y45333D01*
X134603Y45341D01*
X134515Y45363D01*
X134441Y45378D01*
X134381Y45400D01*
X134330Y45422D01*
X134300Y45430D01*
X134293Y45437D01*
X134211Y45481D01*
X134137Y45533D01*
X134078Y45585D01*
X134026Y45637D01*
X133982Y45681D01*
X133952Y45718D01*
X133930Y45748D01*
X133923Y45755D01*
X133871Y45837D01*
X133826Y45918D01*
X133789Y45999D01*
X133760Y46073D01*
X133738Y46140D01*
X133723Y46192D01*
X133708Y46229D01*
Y46244D01*
X133664Y46466D01*
X133649Y46569D01*
X133641Y46673D01*
X133634Y46754D01*
Y48330D01*
X137941D01*
Y46628D01*
D02*
G37*
G36*
X136624Y44697D02*
X136742Y44690D01*
X136853Y44675D01*
X136949Y44653D01*
X137023Y44638D01*
X137082Y44623D01*
X137119Y44616D01*
X137134Y44608D01*
X137238Y44564D01*
X137327Y44519D01*
X137408Y44468D01*
X137475Y44423D01*
X137534Y44386D01*
X137571Y44349D01*
X137600Y44327D01*
X137608Y44320D01*
X137674Y44246D01*
X137734Y44164D01*
X137785Y44090D01*
X137830Y44024D01*
X137859Y43957D01*
X137882Y43913D01*
X137896Y43883D01*
X137904Y43868D01*
X137933Y43765D01*
X137956Y43661D01*
X137978Y43565D01*
X137985Y43469D01*
X137993Y43395D01*
X138000Y43328D01*
Y43276D01*
X137993Y43150D01*
X137985Y43039D01*
X137970Y42928D01*
X137948Y42840D01*
X137933Y42766D01*
X137919Y42706D01*
X137911Y42677D01*
X137904Y42662D01*
X137859Y42566D01*
X137815Y42477D01*
X137763Y42396D01*
X137719Y42329D01*
X137674Y42277D01*
X137637Y42233D01*
X137615Y42211D01*
X137608Y42203D01*
X137534Y42137D01*
X137452Y42077D01*
X137371Y42033D01*
X137297Y41996D01*
X137230Y41959D01*
X137179Y41937D01*
X137149Y41929D01*
X137134Y41922D01*
X137023Y41885D01*
X136912Y41863D01*
X136809Y41841D01*
X136705Y41833D01*
X136616Y41826D01*
X136550Y41818D01*
X136505D01*
X136498D01*
X136490D01*
X133634D01*
Y42647D01*
X136490D01*
X136638Y42655D01*
X136764Y42677D01*
X136875Y42706D01*
X136964Y42736D01*
X137038Y42766D01*
X137090Y42795D01*
X137119Y42810D01*
X137127Y42817D01*
X137193Y42884D01*
X137245Y42958D01*
X137282Y43032D01*
X137304Y43106D01*
X137319Y43173D01*
X137334Y43224D01*
Y43276D01*
X137327Y43380D01*
X137304Y43469D01*
X137267Y43543D01*
X137230Y43609D01*
X137193Y43654D01*
X137156Y43691D01*
X137134Y43713D01*
X137127Y43720D01*
X137038Y43772D01*
X136934Y43809D01*
X136831Y43831D01*
X136727Y43846D01*
X136638Y43861D01*
X136557Y43868D01*
X136527D01*
X136505D01*
X136498D01*
X136490D01*
X133634D01*
Y44704D01*
X136490D01*
X136624Y44697D01*
D02*
G37*
G36*
X136779Y41175D02*
X136853Y41160D01*
X136912Y41145D01*
X136971Y41138D01*
X137008Y41123D01*
X137038Y41115D01*
X137045D01*
X137179Y41056D01*
X137238Y41027D01*
X137290Y40997D01*
X137334Y40975D01*
X137364Y40953D01*
X137386Y40938D01*
X137393Y40930D01*
X137497Y40834D01*
X137578Y40745D01*
X137615Y40708D01*
X137637Y40679D01*
X137652Y40664D01*
X137660Y40657D01*
X137734Y40531D01*
X137771Y40472D01*
X137800Y40420D01*
X137822Y40375D01*
X137837Y40338D01*
X137845Y40316D01*
X137852Y40309D01*
X137896Y40168D01*
X137919Y40109D01*
X137933Y40050D01*
X137941Y39998D01*
X137948Y39961D01*
X137956Y39931D01*
Y39924D01*
X137978Y39776D01*
X137985Y39702D01*
Y39643D01*
X137993Y39591D01*
Y39399D01*
X137978Y39280D01*
X137970Y39177D01*
X137956Y39088D01*
X137941Y39014D01*
X137933Y38955D01*
X137919Y38925D01*
Y38910D01*
X137889Y38807D01*
X137852Y38718D01*
X137815Y38636D01*
X137778Y38562D01*
X137748Y38511D01*
X137719Y38466D01*
X137704Y38437D01*
X137697Y38429D01*
X137637Y38355D01*
X137571Y38296D01*
X137512Y38244D01*
X137452Y38200D01*
X137401Y38163D01*
X137356Y38141D01*
X137327Y38126D01*
X137319Y38118D01*
X137230Y38081D01*
X137149Y38052D01*
X137060Y38030D01*
X136986Y38015D01*
X136920Y38007D01*
X136860Y38000D01*
X136831D01*
X136816D01*
X136720Y38007D01*
X136631Y38015D01*
X136550Y38030D01*
X136476Y38052D01*
X136416Y38074D01*
X136372Y38089D01*
X136342Y38096D01*
X136335Y38104D01*
X136254Y38141D01*
X136180Y38185D01*
X136113Y38229D01*
X136054Y38274D01*
X136009Y38318D01*
X135972Y38348D01*
X135950Y38370D01*
X135943Y38377D01*
X135824Y38518D01*
X135773Y38592D01*
X135728Y38659D01*
X135699Y38718D01*
X135669Y38762D01*
X135654Y38792D01*
X135647Y38807D01*
X135558Y38992D01*
X135528Y39088D01*
X135499Y39169D01*
X135469Y39243D01*
X135454Y39295D01*
X135440Y39332D01*
Y39347D01*
X135395Y39495D01*
X135373Y39554D01*
X135358Y39613D01*
X135343Y39658D01*
X135329Y39695D01*
X135321Y39717D01*
Y39724D01*
X135269Y39835D01*
X135247Y39887D01*
X135225Y39924D01*
X135203Y39961D01*
X135188Y39983D01*
X135173Y39998D01*
Y40005D01*
X135114Y40079D01*
X135055Y40131D01*
X135010Y40161D01*
X135003Y40176D01*
X134996D01*
X134922Y40213D01*
X134855Y40227D01*
X134825Y40235D01*
X134803D01*
X134788D01*
X134781D01*
X134700Y40227D01*
X134626Y40213D01*
X134581Y40198D01*
X134574Y40190D01*
X134566D01*
X134492Y40153D01*
X134441Y40109D01*
X134411Y40072D01*
X134396Y40057D01*
X134344Y39983D01*
X134315Y39917D01*
X134300Y39887D01*
X134293Y39865D01*
X134285Y39850D01*
Y39843D01*
X134256Y39739D01*
X134248Y39643D01*
X134241Y39606D01*
Y39547D01*
X134248Y39421D01*
X134256Y39362D01*
X134263Y39317D01*
X134278Y39280D01*
X134285Y39251D01*
X134293Y39236D01*
Y39228D01*
X134330Y39140D01*
X134374Y39066D01*
X134411Y39021D01*
X134418Y39014D01*
X134426Y39006D01*
X134492Y38947D01*
X134559Y38903D01*
X134589Y38888D01*
X134611Y38881D01*
X134626Y38873D01*
X134633D01*
X134722Y38844D01*
X134811Y38821D01*
X134848D01*
X134877Y38814D01*
X134892D01*
X134899D01*
Y38007D01*
X134796Y38015D01*
X134692Y38022D01*
X134603Y38044D01*
X134522Y38059D01*
X134455Y38081D01*
X134411Y38104D01*
X134374Y38111D01*
X134367Y38118D01*
X134278Y38163D01*
X134196Y38215D01*
X134130Y38266D01*
X134071Y38318D01*
X134019Y38363D01*
X133982Y38400D01*
X133960Y38429D01*
X133952Y38437D01*
X133886Y38518D01*
X133834Y38599D01*
X133789Y38673D01*
X133745Y38755D01*
X133715Y38821D01*
X133693Y38873D01*
X133686Y38903D01*
X133678Y38918D01*
X133641Y39021D01*
X133619Y39132D01*
X133597Y39228D01*
X133590Y39325D01*
X133582Y39406D01*
X133575Y39473D01*
Y39650D01*
X133590Y39761D01*
X133604Y39865D01*
X133619Y39954D01*
X133634Y40035D01*
X133649Y40087D01*
X133656Y40124D01*
X133664Y40139D01*
X133701Y40235D01*
X133738Y40331D01*
X133775Y40412D01*
X133812Y40479D01*
X133849Y40538D01*
X133878Y40583D01*
X133893Y40612D01*
X133900Y40620D01*
X133960Y40694D01*
X134026Y40753D01*
X134085Y40805D01*
X134145Y40856D01*
X134196Y40886D01*
X134241Y40916D01*
X134270Y40930D01*
X134278Y40938D01*
X134359Y40975D01*
X134448Y41004D01*
X134529Y41019D01*
X134611Y41034D01*
X134677Y41041D01*
X134729Y41049D01*
X134759D01*
X134774D01*
X134877Y41041D01*
X134973Y41034D01*
X135055Y41012D01*
X135129Y40990D01*
X135188Y40975D01*
X135240Y40953D01*
X135269Y40945D01*
X135277Y40938D01*
X135351Y40893D01*
X135425Y40842D01*
X135491Y40790D01*
X135543Y40738D01*
X135588Y40694D01*
X135625Y40657D01*
X135647Y40634D01*
X135654Y40627D01*
X135765Y40472D01*
X135817Y40398D01*
X135854Y40324D01*
X135891Y40264D01*
X135913Y40220D01*
X135928Y40183D01*
X135935Y40176D01*
X136009Y39983D01*
X136039Y39887D01*
X136069Y39806D01*
X136091Y39739D01*
X136106Y39680D01*
X136120Y39650D01*
Y39635D01*
X136143Y39554D01*
X136172Y39480D01*
X136194Y39413D01*
X136217Y39354D01*
X136231Y39310D01*
X136246Y39280D01*
X136261Y39258D01*
Y39251D01*
X136313Y39147D01*
X136365Y39066D01*
X136387Y39036D01*
X136402Y39014D01*
X136409Y39006D01*
X136416Y38999D01*
X136483Y38940D01*
X136542Y38895D01*
X136594Y38873D01*
X136601Y38866D01*
X136609D01*
X136683Y38836D01*
X136749Y38829D01*
X136779Y38821D01*
X136801D01*
X136816D01*
X136823D01*
X136905Y38829D01*
X136971Y38844D01*
X137016Y38866D01*
X137023Y38873D01*
X137031D01*
X137097Y38910D01*
X137149Y38955D01*
X137186Y38992D01*
X137201Y38999D01*
Y39006D01*
X137245Y39080D01*
X137275Y39147D01*
X137290Y39177D01*
X137297Y39199D01*
X137304Y39214D01*
Y39221D01*
X137327Y39317D01*
X137334Y39413D01*
X137341Y39458D01*
Y39517D01*
X137334Y39650D01*
X137327Y39709D01*
X137319Y39754D01*
Y39798D01*
X137312Y39828D01*
X137304Y39850D01*
Y39857D01*
X137267Y39961D01*
X137223Y40050D01*
X137201Y40079D01*
X137186Y40102D01*
X137171Y40116D01*
Y40124D01*
X137097Y40198D01*
X137023Y40257D01*
X136994Y40272D01*
X136964Y40287D01*
X136949Y40301D01*
X136942D01*
X136831Y40338D01*
X136720Y40353D01*
X136675Y40361D01*
X136638Y40368D01*
X136616D01*
X136609D01*
Y41182D01*
X136779Y41175D01*
D02*
G37*
G36*
X136246Y29882D02*
X136402Y29875D01*
X136542Y29853D01*
X136661Y29830D01*
X136764Y29816D01*
X136831Y29793D01*
X136860Y29786D01*
X136883D01*
X136890Y29779D01*
X136897D01*
X137023Y29727D01*
X137142Y29675D01*
X137245Y29623D01*
X137327Y29571D01*
X137401Y29527D01*
X137452Y29490D01*
X137482Y29460D01*
X137497Y29453D01*
X137586Y29372D01*
X137660Y29283D01*
X137726Y29194D01*
X137778Y29120D01*
X137822Y29046D01*
X137852Y28994D01*
X137867Y28957D01*
X137874Y28942D01*
X137919Y28831D01*
X137948Y28713D01*
X137970Y28602D01*
X137985Y28498D01*
X137993Y28417D01*
X138000Y28343D01*
Y28180D01*
X137993Y28091D01*
X137985Y28003D01*
X137970Y27929D01*
X137963Y27862D01*
X137956Y27818D01*
X137948Y27781D01*
Y27773D01*
X137933Y27684D01*
X137911Y27603D01*
X137889Y27536D01*
X137867Y27470D01*
X137852Y27418D01*
X137837Y27381D01*
X137822Y27351D01*
Y27344D01*
X137763Y27211D01*
X137734Y27159D01*
X137704Y27107D01*
X137682Y27070D01*
X137660Y27041D01*
X137652Y27026D01*
X137645Y27018D01*
X137571Y26922D01*
X137504Y26856D01*
X137460Y26811D01*
X137452Y26796D01*
X137445D01*
X135743D01*
Y28343D01*
X136365D01*
Y27625D01*
X137149Y27633D01*
X137179Y27662D01*
X137201Y27692D01*
X137216Y27714D01*
X137223Y27729D01*
X137245Y27773D01*
X137260Y27825D01*
X137275Y27862D01*
X137282Y27869D01*
Y27877D01*
X137297Y27936D01*
X137312Y27995D01*
X137319Y28040D01*
Y28054D01*
X137327Y28121D01*
X137334Y28180D01*
Y28239D01*
X137327Y28313D01*
X137319Y28387D01*
X137282Y28513D01*
X137230Y28617D01*
X137171Y28698D01*
X137119Y28765D01*
X137068Y28817D01*
X137031Y28846D01*
X137016Y28854D01*
X136883Y28920D01*
X136735Y28965D01*
X136579Y29002D01*
X136424Y29024D01*
X136291Y29039D01*
X136231Y29046D01*
X136180D01*
X136143Y29053D01*
X136113D01*
X136091D01*
X136083D01*
X135491D01*
X135380D01*
X135277Y29046D01*
X135188Y29031D01*
X135114Y29024D01*
X135047Y29009D01*
X134996Y29002D01*
X134966Y28994D01*
X134959D01*
X134877Y28972D01*
X134796Y28942D01*
X134729Y28913D01*
X134670Y28891D01*
X134626Y28868D01*
X134596Y28846D01*
X134574Y28839D01*
X134566Y28831D01*
X134463Y28750D01*
X134389Y28676D01*
X134367Y28639D01*
X134344Y28617D01*
X134330Y28602D01*
Y28595D01*
X134300Y28543D01*
X134285Y28491D01*
X134256Y28395D01*
Y28358D01*
X134248Y28328D01*
Y28299D01*
X134256Y28180D01*
X134278Y28084D01*
X134300Y27995D01*
X134330Y27929D01*
X134367Y27877D01*
X134389Y27840D01*
X134411Y27818D01*
X134418Y27810D01*
X134485Y27751D01*
X134566Y27707D01*
X134648Y27677D01*
X134729Y27647D01*
X134803Y27633D01*
X134862Y27618D01*
X134899Y27610D01*
X134907D01*
X134914D01*
Y26796D01*
X134803Y26811D01*
X134700Y26833D01*
X134603Y26856D01*
X134522Y26878D01*
X134455Y26900D01*
X134404Y26922D01*
X134367Y26930D01*
X134359Y26937D01*
X134270Y26981D01*
X134189Y27026D01*
X134115Y27070D01*
X134056Y27122D01*
X134004Y27159D01*
X133967Y27196D01*
X133945Y27218D01*
X133937Y27226D01*
X133878Y27300D01*
X133819Y27374D01*
X133775Y27455D01*
X133738Y27522D01*
X133708Y27588D01*
X133686Y27640D01*
X133678Y27670D01*
X133671Y27684D01*
X133641Y27788D01*
X133612Y27899D01*
X133597Y28003D01*
X133590Y28106D01*
X133582Y28195D01*
X133575Y28262D01*
Y28321D01*
X133582Y28439D01*
X133597Y28558D01*
X133619Y28661D01*
X133641Y28757D01*
X133664Y28831D01*
X133686Y28891D01*
X133701Y28928D01*
X133708Y28942D01*
X133760Y29046D01*
X133819Y29135D01*
X133886Y29224D01*
X133945Y29298D01*
X133997Y29357D01*
X134041Y29401D01*
X134071Y29431D01*
X134085Y29438D01*
X134182Y29512D01*
X134285Y29579D01*
X134389Y29638D01*
X134485Y29682D01*
X134566Y29719D01*
X134633Y29749D01*
X134677Y29764D01*
X134685Y29771D01*
X134692D01*
X134825Y29808D01*
X134966Y29838D01*
X135107Y29860D01*
X135225Y29875D01*
X135336Y29882D01*
X135425Y29890D01*
X135454D01*
X135477D01*
X135491D01*
X135499D01*
X136083D01*
X136246Y29882D01*
D02*
G37*
G36*
X137941Y25309D02*
X135166D01*
X137941Y24110D01*
Y23281D01*
X133634D01*
Y24118D01*
X136402D01*
X133634Y25309D01*
Y26145D01*
X137941D01*
Y25309D01*
D02*
G37*
G36*
Y21350D02*
X137933Y21202D01*
X137919Y21061D01*
X137896Y20936D01*
X137867Y20825D01*
X137845Y20728D01*
X137822Y20662D01*
X137808Y20617D01*
X137800Y20603D01*
X137741Y20477D01*
X137674Y20366D01*
X137608Y20270D01*
X137541Y20181D01*
X137482Y20114D01*
X137438Y20062D01*
X137408Y20025D01*
X137393Y20018D01*
X137290Y19929D01*
X137186Y19855D01*
X137082Y19789D01*
X136986Y19737D01*
X136897Y19692D01*
X136831Y19663D01*
X136786Y19648D01*
X136779Y19641D01*
X136772D01*
X136631Y19596D01*
X136490Y19567D01*
X136357Y19537D01*
X136239Y19522D01*
X136128Y19515D01*
X136046Y19507D01*
X136017D01*
X135995D01*
X135980D01*
X135972D01*
X135617D01*
X135454Y19515D01*
X135306Y19530D01*
X135173Y19552D01*
X135055Y19574D01*
X134959Y19596D01*
X134885Y19618D01*
X134855Y19626D01*
X134833Y19633D01*
X134825Y19641D01*
X134818D01*
X134685Y19692D01*
X134566Y19759D01*
X134463Y19818D01*
X134374Y19885D01*
X134300Y19937D01*
X134241Y19981D01*
X134211Y20011D01*
X134196Y20025D01*
X134100Y20122D01*
X134019Y20218D01*
X133945Y20321D01*
X133886Y20410D01*
X133841Y20492D01*
X133812Y20558D01*
X133789Y20603D01*
X133782Y20610D01*
Y20617D01*
X133730Y20751D01*
X133693Y20884D01*
X133671Y21017D01*
X133649Y21135D01*
X133641Y21239D01*
X133634Y21320D01*
Y22512D01*
X137941D01*
Y21350D01*
D02*
G37*
G36*
X72369Y68293D02*
X72428Y68286D01*
X72473Y68271D01*
X72480Y68264D01*
X72487D01*
X72547Y68234D01*
X72591Y68212D01*
X72621Y68182D01*
X72635Y68175D01*
X72672Y68130D01*
X72702Y68086D01*
X72724Y68056D01*
X72732Y68049D01*
Y68041D01*
X72746Y67982D01*
X72754Y67923D01*
X72761Y67879D01*
Y67871D01*
Y67864D01*
X72754Y67797D01*
X72746Y67738D01*
X72739Y67701D01*
X72732Y67694D01*
Y67686D01*
X72702Y67627D01*
X72672Y67583D01*
X72643Y67553D01*
X72635Y67546D01*
X72584Y67509D01*
X72539Y67479D01*
X72502Y67464D01*
X72487Y67457D01*
X72421Y67442D01*
X72354Y67435D01*
X72302Y67427D01*
X72288D01*
X72214Y67435D01*
X72147Y67449D01*
X72088Y67464D01*
X72036Y67487D01*
X71999Y67509D01*
X71969Y67531D01*
X71955Y67538D01*
X71947Y67546D01*
X71903Y67598D01*
X71873Y67649D01*
X71844Y67701D01*
X71829Y67753D01*
X71821Y67797D01*
X71814Y67834D01*
Y67857D01*
Y67864D01*
X71821Y67931D01*
X71836Y67997D01*
X71858Y68049D01*
X71881Y68093D01*
X71903Y68130D01*
X71925Y68152D01*
X71940Y68167D01*
X71947Y68175D01*
X71999Y68219D01*
X72051Y68249D01*
X72110Y68271D01*
X72162Y68286D01*
X72214Y68293D01*
X72251Y68300D01*
X72288D01*
X72369Y68293D01*
D02*
G37*
G36*
X110205Y63846D02*
X109369D01*
Y65111D01*
X108918Y65614D01*
X107852Y63846D01*
X106860D01*
X108363Y66243D01*
X106912Y68153D01*
X107933D01*
X108977Y66702D01*
X109369Y66177D01*
Y68153D01*
X110205D01*
Y63846D01*
D02*
G37*
G36*
X98151Y67087D02*
X98247Y67080D01*
X98336Y67065D01*
X98402Y67050D01*
X98454Y67035D01*
X98484Y67028D01*
X98498Y67020D01*
X98587Y66991D01*
X98669Y66954D01*
X98743Y66917D01*
X98809Y66880D01*
X98861Y66850D01*
X98898Y66821D01*
X98920Y66806D01*
X98928Y66798D01*
X98987Y66747D01*
X99039Y66695D01*
X99083Y66643D01*
X99120Y66591D01*
X99150Y66547D01*
X99172Y66510D01*
X99179Y66487D01*
X99187Y66480D01*
X99216Y66413D01*
X99238Y66339D01*
X99253Y66273D01*
X99261Y66214D01*
X99268Y66162D01*
X99275Y66125D01*
Y66095D01*
Y66088D01*
X98454D01*
X98447Y66154D01*
X98439Y66214D01*
X98417Y66258D01*
X98395Y66303D01*
X98380Y66332D01*
X98358Y66354D01*
X98350Y66369D01*
X98343Y66377D01*
X98291Y66413D01*
X98232Y66443D01*
X98173Y66458D01*
X98114Y66473D01*
X98062Y66480D01*
X98017Y66487D01*
X97973D01*
X97869Y66480D01*
X97781Y66465D01*
X97707Y66443D01*
X97647Y66421D01*
X97596Y66399D01*
X97566Y66377D01*
X97544Y66362D01*
X97536Y66354D01*
X97485Y66303D01*
X97448Y66243D01*
X97418Y66177D01*
X97403Y66118D01*
X97388Y66066D01*
X97381Y66021D01*
Y65992D01*
Y65984D01*
Y65799D01*
X97973D01*
X98106Y65785D01*
X98225Y65777D01*
X98336Y65755D01*
X98439Y65733D01*
X98528Y65711D01*
X98617Y65688D01*
X98691Y65659D01*
X98757Y65629D01*
X98809Y65607D01*
X98861Y65585D01*
X98898Y65562D01*
X98935Y65548D01*
X98957Y65533D01*
X98965Y65518D01*
X98972D01*
X99039Y65466D01*
X99098Y65407D01*
X99150Y65348D01*
X99187Y65281D01*
X99261Y65156D01*
X99305Y65030D01*
X99327Y64911D01*
X99335Y64867D01*
X99342Y64823D01*
X99349Y64793D01*
Y64763D01*
Y64749D01*
Y64741D01*
X99342Y64667D01*
X99335Y64593D01*
X99320Y64526D01*
X99305Y64475D01*
X99290Y64423D01*
X99283Y64386D01*
X99268Y64364D01*
Y64356D01*
X99194Y64238D01*
X99157Y64186D01*
X99113Y64142D01*
X99083Y64105D01*
X99053Y64075D01*
X99039Y64060D01*
X99031Y64053D01*
X98913Y63972D01*
X98802Y63905D01*
X98757Y63883D01*
X98713Y63868D01*
X98691Y63853D01*
X98683D01*
X98521Y63816D01*
X98447Y63801D01*
X98373Y63794D01*
X98313D01*
X98269Y63787D01*
X98225D01*
X98121Y63794D01*
X98032Y63801D01*
X97995Y63809D01*
X97973D01*
X97958Y63816D01*
X97951D01*
X97855Y63838D01*
X97781Y63868D01*
X97751Y63875D01*
X97729Y63883D01*
X97721Y63890D01*
X97714D01*
X97633Y63927D01*
X97573Y63964D01*
X97529Y63994D01*
X97522Y64001D01*
X97514D01*
X97448Y64053D01*
X97396Y64097D01*
X97366Y64127D01*
X97351Y64142D01*
X97337Y64083D01*
X97329Y64031D01*
X97322Y63994D01*
Y63979D01*
X97307Y63927D01*
X97285Y63883D01*
X97277Y63853D01*
X97270Y63846D01*
X96434D01*
Y63890D01*
X96471Y63986D01*
X96500Y64083D01*
X96515Y64120D01*
X96523Y64149D01*
X96530Y64171D01*
Y64179D01*
X96537Y64245D01*
X96545Y64319D01*
X96552Y64386D01*
Y64460D01*
X96560Y64519D01*
Y64564D01*
Y64593D01*
Y64608D01*
Y65984D01*
X96567Y66081D01*
X96574Y66177D01*
X96589Y66258D01*
X96611Y66325D01*
X96634Y66384D01*
X96648Y66428D01*
X96656Y66458D01*
X96663Y66465D01*
X96708Y66539D01*
X96752Y66613D01*
X96796Y66673D01*
X96848Y66724D01*
X96885Y66761D01*
X96922Y66798D01*
X96944Y66813D01*
X96952Y66821D01*
X97100Y66909D01*
X97174Y66946D01*
X97240Y66976D01*
X97300Y66998D01*
X97344Y67013D01*
X97374Y67028D01*
X97388D01*
X97573Y67072D01*
X97670Y67087D01*
X97751Y67094D01*
X97825Y67102D01*
X98047D01*
X98151Y67087D01*
D02*
G37*
G36*
X76350D02*
X76446Y67080D01*
X76535Y67065D01*
X76602Y67050D01*
X76654Y67035D01*
X76683Y67028D01*
X76698Y67020D01*
X76787Y66991D01*
X76868Y66954D01*
X76942Y66917D01*
X77009Y66880D01*
X77061Y66850D01*
X77098Y66821D01*
X77120Y66806D01*
X77127Y66798D01*
X77186Y66747D01*
X77238Y66695D01*
X77283Y66643D01*
X77320Y66591D01*
X77349Y66547D01*
X77371Y66510D01*
X77379Y66487D01*
X77386Y66480D01*
X77416Y66413D01*
X77438Y66339D01*
X77453Y66273D01*
X77460Y66214D01*
X77468Y66162D01*
X77475Y66125D01*
Y66095D01*
Y66088D01*
X76654D01*
X76646Y66154D01*
X76639Y66214D01*
X76617Y66258D01*
X76594Y66303D01*
X76580Y66332D01*
X76557Y66354D01*
X76550Y66369D01*
X76543Y66377D01*
X76491Y66413D01*
X76432Y66443D01*
X76372Y66458D01*
X76313Y66473D01*
X76261Y66480D01*
X76217Y66487D01*
X76173D01*
X76069Y66480D01*
X75980Y66465D01*
X75906Y66443D01*
X75847Y66421D01*
X75795Y66399D01*
X75766Y66377D01*
X75743Y66362D01*
X75736Y66354D01*
X75684Y66303D01*
X75647Y66243D01*
X75618Y66177D01*
X75603Y66118D01*
X75588Y66066D01*
X75581Y66021D01*
Y65992D01*
Y65984D01*
Y65799D01*
X76173D01*
X76306Y65785D01*
X76424Y65777D01*
X76535Y65755D01*
X76639Y65733D01*
X76728Y65711D01*
X76816Y65688D01*
X76890Y65659D01*
X76957Y65629D01*
X77009Y65607D01*
X77061Y65585D01*
X77098Y65562D01*
X77135Y65548D01*
X77157Y65533D01*
X77164Y65518D01*
X77172D01*
X77238Y65466D01*
X77297Y65407D01*
X77349Y65348D01*
X77386Y65281D01*
X77460Y65156D01*
X77505Y65030D01*
X77527Y64911D01*
X77534Y64867D01*
X77542Y64823D01*
X77549Y64793D01*
Y64763D01*
Y64749D01*
Y64741D01*
X77542Y64667D01*
X77534Y64593D01*
X77519Y64526D01*
X77505Y64475D01*
X77490Y64423D01*
X77482Y64386D01*
X77468Y64364D01*
Y64356D01*
X77394Y64238D01*
X77357Y64186D01*
X77312Y64142D01*
X77283Y64105D01*
X77253Y64075D01*
X77238Y64060D01*
X77231Y64053D01*
X77112Y63972D01*
X77001Y63905D01*
X76957Y63883D01*
X76913Y63868D01*
X76890Y63853D01*
X76883D01*
X76720Y63816D01*
X76646Y63801D01*
X76572Y63794D01*
X76513D01*
X76469Y63787D01*
X76424D01*
X76321Y63794D01*
X76232Y63801D01*
X76195Y63809D01*
X76173D01*
X76158Y63816D01*
X76150D01*
X76054Y63838D01*
X75980Y63868D01*
X75951Y63875D01*
X75928Y63883D01*
X75921Y63890D01*
X75914D01*
X75832Y63927D01*
X75773Y63964D01*
X75729Y63994D01*
X75721Y64001D01*
X75714D01*
X75647Y64053D01*
X75595Y64097D01*
X75566Y64127D01*
X75551Y64142D01*
X75536Y64083D01*
X75529Y64031D01*
X75521Y63994D01*
Y63979D01*
X75507Y63927D01*
X75484Y63883D01*
X75477Y63853D01*
X75470Y63846D01*
X74633D01*
Y63890D01*
X74670Y63986D01*
X74700Y64083D01*
X74715Y64120D01*
X74722Y64149D01*
X74730Y64171D01*
Y64179D01*
X74737Y64245D01*
X74744Y64319D01*
X74752Y64386D01*
Y64460D01*
X74759Y64519D01*
Y64564D01*
Y64593D01*
Y64608D01*
Y65984D01*
X74767Y66081D01*
X74774Y66177D01*
X74789Y66258D01*
X74811Y66325D01*
X74833Y66384D01*
X74848Y66428D01*
X74855Y66458D01*
X74863Y66465D01*
X74907Y66539D01*
X74952Y66613D01*
X74996Y66673D01*
X75048Y66724D01*
X75085Y66761D01*
X75122Y66798D01*
X75144Y66813D01*
X75151Y66821D01*
X75299Y66909D01*
X75373Y66946D01*
X75440Y66976D01*
X75499Y66998D01*
X75544Y67013D01*
X75573Y67028D01*
X75588D01*
X75773Y67072D01*
X75869Y67087D01*
X75951Y67094D01*
X76025Y67102D01*
X76247D01*
X76350Y67087D01*
D02*
G37*
G36*
X102213Y67043D02*
X102946D01*
Y66436D01*
X102213D01*
Y64978D01*
X102206Y64867D01*
X102198Y64763D01*
X102184Y64667D01*
X102169Y64593D01*
X102154Y64526D01*
X102147Y64482D01*
X102132Y64445D01*
Y64438D01*
X102095Y64356D01*
X102058Y64282D01*
X102021Y64216D01*
X101984Y64164D01*
X101954Y64120D01*
X101925Y64090D01*
X101910Y64068D01*
X101902Y64060D01*
X101777Y63972D01*
X101658Y63905D01*
X101606Y63883D01*
X101569Y63868D01*
X101540Y63853D01*
X101532D01*
X101370Y63816D01*
X101288Y63801D01*
X101214Y63794D01*
X101148D01*
X101096Y63787D01*
X100955D01*
X100866Y63794D01*
X100829D01*
X100800Y63801D01*
X100778D01*
X100674Y63816D01*
X100593Y63824D01*
X100556Y63831D01*
X100533Y63838D01*
X100511D01*
X100415Y63853D01*
X100334Y63868D01*
X100304Y63875D01*
X100282Y63883D01*
X100267Y63890D01*
X100260D01*
X100178Y63920D01*
X100112Y63949D01*
X100075Y63972D01*
X100060Y63979D01*
X100141Y64541D01*
X100186Y64534D01*
X100230Y64519D01*
X100260Y64512D01*
X100274D01*
X100334Y64504D01*
X100385Y64490D01*
X100430Y64482D01*
X100445D01*
X100511Y64475D01*
X100570Y64467D01*
X100622Y64460D01*
X100637D01*
X100704Y64452D01*
X100822D01*
X100918Y64460D01*
X100992Y64467D01*
X101022Y64475D01*
X101037D01*
X101051Y64482D01*
X101059D01*
X101133Y64512D01*
X101185Y64541D01*
X101222Y64571D01*
X101236Y64578D01*
X101288Y64638D01*
X101325Y64704D01*
X101347Y64749D01*
X101355Y64763D01*
Y64771D01*
X101377Y64867D01*
X101384Y64963D01*
X101392Y65000D01*
Y65030D01*
Y65052D01*
Y65059D01*
Y66436D01*
X100200D01*
Y67043D01*
X101392D01*
Y67827D01*
X102213D01*
Y67043D01*
D02*
G37*
G36*
X105195Y67094D02*
X105314Y67080D01*
X105417Y67065D01*
X105514Y67043D01*
X105588Y67013D01*
X105647Y66998D01*
X105684Y66983D01*
X105699Y66976D01*
X105802Y66924D01*
X105891Y66872D01*
X105980Y66813D01*
X106046Y66761D01*
X106106Y66710D01*
X106150Y66673D01*
X106180Y66643D01*
X106187Y66636D01*
X106261Y66554D01*
X106328Y66465D01*
X106379Y66377D01*
X106424Y66295D01*
X106461Y66229D01*
X106490Y66169D01*
X106505Y66132D01*
X106513Y66118D01*
X106550Y65999D01*
X106579Y65888D01*
X106594Y65777D01*
X106609Y65674D01*
X106616Y65585D01*
X106624Y65511D01*
Y65466D01*
Y65459D01*
Y65452D01*
Y65333D01*
X106616Y65215D01*
X106601Y65104D01*
X106587Y65000D01*
X106564Y64911D01*
X106542Y64830D01*
X106520Y64778D01*
X106513Y64741D01*
X106505Y64726D01*
X106453Y64623D01*
X106402Y64534D01*
X106350Y64445D01*
X106291Y64371D01*
X106246Y64312D01*
X106209Y64268D01*
X106180Y64238D01*
X106172Y64231D01*
X106091Y64157D01*
X106002Y64090D01*
X105913Y64038D01*
X105832Y63994D01*
X105758Y63957D01*
X105706Y63927D01*
X105669Y63912D01*
X105654Y63905D01*
X105536Y63868D01*
X105417Y63838D01*
X105306Y63816D01*
X105203Y63801D01*
X105114Y63794D01*
X105040Y63787D01*
X104981D01*
X104811Y63794D01*
X104737Y63801D01*
X104670Y63816D01*
X104618Y63824D01*
X104581Y63831D01*
X104552Y63838D01*
X104544D01*
X104396Y63875D01*
X104337Y63898D01*
X104278Y63920D01*
X104233Y63935D01*
X104204Y63949D01*
X104182Y63964D01*
X104174D01*
X104056Y64031D01*
X104011Y64060D01*
X103967Y64090D01*
X103930Y64112D01*
X103908Y64134D01*
X103893Y64142D01*
X103886Y64149D01*
X103797Y64223D01*
X103738Y64297D01*
X103708Y64327D01*
X103693Y64341D01*
X103678Y64356D01*
Y64364D01*
X104093Y64808D01*
X104145Y64749D01*
X104196Y64697D01*
X104241Y64660D01*
X104248Y64645D01*
X104256D01*
X104330Y64600D01*
X104396Y64564D01*
X104426Y64549D01*
X104441Y64541D01*
X104455Y64534D01*
X104463D01*
X104544Y64504D01*
X104618Y64482D01*
X104648Y64475D01*
X104670D01*
X104685Y64467D01*
X104692D01*
X104781Y64453D01*
X104855Y64445D01*
X104929D01*
X105055Y64453D01*
X105107Y64460D01*
X105158Y64475D01*
X105195Y64482D01*
X105225Y64490D01*
X105247Y64497D01*
X105255D01*
X105351Y64541D01*
X105432Y64593D01*
X105462Y64615D01*
X105484Y64630D01*
X105499Y64638D01*
X105506Y64645D01*
X105580Y64719D01*
X105639Y64793D01*
X105662Y64830D01*
X105676Y64852D01*
X105691Y64867D01*
Y64874D01*
X105736Y64978D01*
X105765Y65082D01*
X105773Y65119D01*
X105780Y65148D01*
X105787Y65170D01*
Y65178D01*
X103612Y65178D01*
Y65526D01*
X103619Y65659D01*
X103627Y65777D01*
X103641Y65888D01*
X103664Y65984D01*
X103686Y66058D01*
X103701Y66118D01*
X103708Y66154D01*
X103715Y66169D01*
X103752Y66273D01*
X103804Y66369D01*
X103849Y66451D01*
X103893Y66524D01*
X103937Y66584D01*
X103974Y66628D01*
X103997Y66658D01*
X104004Y66665D01*
X104078Y66739D01*
X104152Y66806D01*
X104233Y66858D01*
X104300Y66902D01*
X104367Y66939D01*
X104418Y66961D01*
X104448Y66976D01*
X104463Y66983D01*
X104566Y67020D01*
X104670Y67050D01*
X104774Y67072D01*
X104870Y67087D01*
X104951Y67094D01*
X105018Y67102D01*
X105077D01*
X105195Y67094D01*
D02*
G37*
G36*
X83395Y67094D02*
X83513Y67080D01*
X83617Y67065D01*
X83713Y67043D01*
X83787Y67013D01*
X83846Y66998D01*
X83883Y66983D01*
X83898Y66976D01*
X84002Y66924D01*
X84091Y66872D01*
X84179Y66813D01*
X84246Y66761D01*
X84305Y66710D01*
X84350Y66673D01*
X84379Y66643D01*
X84387Y66636D01*
X84461Y66554D01*
X84527Y66465D01*
X84579Y66377D01*
X84623Y66295D01*
X84660Y66228D01*
X84690Y66169D01*
X84705Y66132D01*
X84712Y66118D01*
X84749Y65999D01*
X84779Y65888D01*
X84794Y65777D01*
X84808Y65674D01*
X84816Y65585D01*
X84823Y65511D01*
Y65466D01*
Y65459D01*
Y65452D01*
Y65333D01*
X84816Y65215D01*
X84801Y65104D01*
X84786Y65000D01*
X84764Y64911D01*
X84742Y64830D01*
X84720Y64778D01*
X84712Y64741D01*
X84705Y64726D01*
X84653Y64623D01*
X84601Y64534D01*
X84549Y64445D01*
X84490Y64371D01*
X84446Y64312D01*
X84409Y64268D01*
X84379Y64238D01*
X84372Y64231D01*
X84290Y64157D01*
X84202Y64090D01*
X84113Y64038D01*
X84031Y63994D01*
X83957Y63957D01*
X83906Y63927D01*
X83869Y63912D01*
X83854Y63905D01*
X83735Y63868D01*
X83617Y63838D01*
X83506Y63816D01*
X83402Y63801D01*
X83314Y63794D01*
X83240Y63787D01*
X83180D01*
X83010Y63794D01*
X82936Y63801D01*
X82870Y63816D01*
X82818Y63824D01*
X82781Y63831D01*
X82751Y63838D01*
X82744D01*
X82596Y63875D01*
X82537Y63898D01*
X82477Y63920D01*
X82433Y63935D01*
X82403Y63949D01*
X82381Y63964D01*
X82374D01*
X82255Y64031D01*
X82211Y64060D01*
X82167Y64090D01*
X82130Y64112D01*
X82107Y64134D01*
X82093Y64142D01*
X82085Y64149D01*
X81996Y64223D01*
X81937Y64297D01*
X81908Y64327D01*
X81893Y64341D01*
X81878Y64356D01*
Y64364D01*
X82292Y64808D01*
X82344Y64749D01*
X82396Y64697D01*
X82440Y64660D01*
X82448Y64645D01*
X82455D01*
X82529Y64600D01*
X82596Y64564D01*
X82625Y64549D01*
X82640Y64541D01*
X82655Y64534D01*
X82662D01*
X82744Y64504D01*
X82818Y64482D01*
X82847Y64475D01*
X82870D01*
X82884Y64467D01*
X82892D01*
X82981Y64452D01*
X83055Y64445D01*
X83129D01*
X83254Y64452D01*
X83306Y64460D01*
X83358Y64475D01*
X83395Y64482D01*
X83425Y64490D01*
X83447Y64497D01*
X83454D01*
X83550Y64541D01*
X83632Y64593D01*
X83661Y64615D01*
X83684Y64630D01*
X83698Y64638D01*
X83706Y64645D01*
X83780Y64719D01*
X83839Y64793D01*
X83861Y64830D01*
X83876Y64852D01*
X83891Y64867D01*
Y64874D01*
X83935Y64978D01*
X83965Y65082D01*
X83972Y65119D01*
X83980Y65148D01*
X83987Y65170D01*
Y65178D01*
X81811D01*
Y65526D01*
X81819Y65659D01*
X81826Y65777D01*
X81841Y65888D01*
X81863Y65984D01*
X81885Y66058D01*
X81900Y66118D01*
X81908Y66154D01*
X81915Y66169D01*
X81952Y66273D01*
X82004Y66369D01*
X82048Y66451D01*
X82093Y66524D01*
X82137Y66584D01*
X82174Y66628D01*
X82196Y66658D01*
X82204Y66665D01*
X82278Y66739D01*
X82352Y66806D01*
X82433Y66858D01*
X82500Y66902D01*
X82566Y66939D01*
X82618Y66961D01*
X82648Y66976D01*
X82662Y66983D01*
X82766Y67020D01*
X82870Y67050D01*
X82973Y67072D01*
X83069Y67087D01*
X83151Y67094D01*
X83217Y67102D01*
X83277D01*
X83395Y67094D01*
D02*
G37*
G36*
X93992D02*
X94088Y67080D01*
X94184Y67057D01*
X94258Y67035D01*
X94325Y67013D01*
X94377Y66991D01*
X94406Y66976D01*
X94421Y66969D01*
X94510Y66917D01*
X94591Y66858D01*
X94665Y66798D01*
X94724Y66739D01*
X94776Y66680D01*
X94813Y66636D01*
X94835Y66606D01*
X94843Y66599D01*
X94887Y67043D01*
X95635D01*
Y63846D01*
X94813D01*
Y66118D01*
X94732Y66214D01*
X94658Y66288D01*
X94621Y66310D01*
X94591Y66332D01*
X94576Y66347D01*
X94569D01*
X94510Y66377D01*
X94451Y66399D01*
X94332Y66428D01*
X94288D01*
X94251Y66436D01*
X94214D01*
X94118Y66428D01*
X94036Y66421D01*
X94007Y66413D01*
X93984D01*
X93970Y66406D01*
X93962D01*
X93881Y66377D01*
X93822Y66347D01*
X93785Y66317D01*
X93770Y66303D01*
X93718Y66243D01*
X93674Y66184D01*
X93659Y66154D01*
X93651Y66132D01*
X93644Y66118D01*
Y66110D01*
X93614Y66014D01*
X93607Y65910D01*
X93600Y65866D01*
Y65829D01*
Y65807D01*
Y65799D01*
Y63846D01*
X92778D01*
Y65814D01*
Y65940D01*
X92793Y66051D01*
X92800Y66154D01*
X92815Y66243D01*
X92830Y66310D01*
X92845Y66362D01*
X92852Y66399D01*
X92860Y66406D01*
X92889Y66495D01*
X92926Y66569D01*
X92971Y66643D01*
X93008Y66695D01*
X93037Y66747D01*
X93067Y66776D01*
X93082Y66798D01*
X93089Y66806D01*
X93141Y66858D01*
X93200Y66909D01*
X93259Y66946D01*
X93318Y66976D01*
X93363Y66998D01*
X93400Y67013D01*
X93429Y67028D01*
X93437D01*
X93592Y67072D01*
X93666Y67087D01*
X93733Y67094D01*
X93792Y67102D01*
X93881D01*
X93992Y67094D01*
D02*
G37*
G36*
X88420Y63846D02*
X87258D01*
X87110Y63853D01*
X86969Y63868D01*
X86843Y63890D01*
X86732Y63920D01*
X86636Y63942D01*
X86570Y63964D01*
X86525Y63979D01*
X86510Y63986D01*
X86385Y64046D01*
X86274Y64112D01*
X86177Y64179D01*
X86089Y64245D01*
X86022Y64305D01*
X85970Y64349D01*
X85933Y64378D01*
X85926Y64393D01*
X85837Y64497D01*
X85763Y64600D01*
X85696Y64704D01*
X85645Y64800D01*
X85600Y64889D01*
X85571Y64956D01*
X85556Y65000D01*
X85548Y65008D01*
Y65015D01*
X85504Y65156D01*
X85474Y65296D01*
X85445Y65429D01*
X85430Y65548D01*
X85423Y65659D01*
X85415Y65740D01*
Y65770D01*
Y65792D01*
Y65807D01*
Y65814D01*
Y66169D01*
X85423Y66332D01*
X85437Y66480D01*
X85460Y66613D01*
X85482Y66732D01*
X85504Y66828D01*
X85526Y66902D01*
X85534Y66932D01*
X85541Y66954D01*
X85548Y66961D01*
Y66969D01*
X85600Y67102D01*
X85667Y67220D01*
X85726Y67324D01*
X85793Y67413D01*
X85844Y67487D01*
X85889Y67546D01*
X85918Y67575D01*
X85933Y67590D01*
X86029Y67686D01*
X86126Y67768D01*
X86229Y67842D01*
X86318Y67901D01*
X86399Y67945D01*
X86466Y67975D01*
X86510Y67997D01*
X86518Y68005D01*
X86525D01*
X86658Y68056D01*
X86792Y68093D01*
X86925Y68116D01*
X87043Y68138D01*
X87147Y68145D01*
X87228Y68152D01*
X88420D01*
Y63846D01*
D02*
G37*
G36*
X73620Y66369D02*
X72702D01*
Y64512D01*
X73620D01*
Y63846D01*
X71007D01*
Y64512D01*
X71873D01*
Y67043D01*
X73620D01*
Y66369D01*
D02*
G37*
G36*
X79902Y67087D02*
X80006Y67080D01*
X80087Y67065D01*
X80161Y67050D01*
X80213Y67035D01*
X80243Y67028D01*
X80257Y67020D01*
X80346Y66991D01*
X80428Y66954D01*
X80502Y66917D01*
X80568Y66887D01*
X80620Y66858D01*
X80657Y66828D01*
X80679Y66813D01*
X80687Y66806D01*
X80746Y66754D01*
X80805Y66702D01*
X80849Y66650D01*
X80886Y66599D01*
X80923Y66554D01*
X80946Y66517D01*
X80953Y66495D01*
X80960Y66487D01*
X80990Y66421D01*
X81012Y66354D01*
X81034Y66288D01*
X81042Y66236D01*
X81049Y66184D01*
X81057Y66147D01*
Y66118D01*
Y66110D01*
X81049Y66036D01*
X81042Y65970D01*
X81027Y65910D01*
X81012Y65851D01*
X80997Y65807D01*
X80983Y65777D01*
X80968Y65755D01*
Y65748D01*
X80886Y65636D01*
X80805Y65555D01*
X80768Y65518D01*
X80738Y65496D01*
X80716Y65481D01*
X80709Y65474D01*
X80576Y65392D01*
X80509Y65355D01*
X80442Y65326D01*
X80391Y65303D01*
X80346Y65281D01*
X80317Y65274D01*
X80309Y65267D01*
X80132Y65207D01*
X80043Y65185D01*
X79961Y65163D01*
X79895Y65148D01*
X79836Y65133D01*
X79806Y65126D01*
X79791D01*
X79710Y65111D01*
X79643Y65096D01*
X79577Y65082D01*
X79525Y65074D01*
X79488Y65059D01*
X79451Y65052D01*
X79436Y65045D01*
X79429D01*
X79332Y65015D01*
X79251Y64985D01*
X79229Y64978D01*
X79207Y64963D01*
X79199Y64956D01*
X79192D01*
X79133Y64919D01*
X79096Y64882D01*
X79081Y64852D01*
X79073Y64845D01*
X79051Y64800D01*
X79044Y64763D01*
X79036Y64734D01*
Y64719D01*
X79044Y64667D01*
X79059Y64615D01*
X79088Y64571D01*
X79118Y64534D01*
X79147Y64504D01*
X79177Y64482D01*
X79192Y64475D01*
X79199Y64467D01*
X79266Y64438D01*
X79340Y64416D01*
X79488Y64386D01*
X79554Y64378D01*
X79606Y64371D01*
X79658D01*
X79754Y64378D01*
X79836Y64386D01*
X79873D01*
X79895Y64393D01*
X79917D01*
X80006Y64423D01*
X80080Y64452D01*
X80109Y64460D01*
X80132Y64475D01*
X80139Y64482D01*
X80146D01*
X80213Y64534D01*
X80265Y64578D01*
X80294Y64615D01*
X80309Y64630D01*
X80346Y64704D01*
X80361Y64778D01*
X80368Y64815D01*
X80376Y64837D01*
Y64852D01*
Y64860D01*
X81160D01*
X81153Y64786D01*
X81145Y64711D01*
X81131Y64645D01*
X81108Y64586D01*
X81094Y64541D01*
X81079Y64504D01*
X81071Y64475D01*
X81064Y64467D01*
X81027Y64401D01*
X80983Y64334D01*
X80931Y64275D01*
X80886Y64223D01*
X80849Y64179D01*
X80812Y64149D01*
X80790Y64127D01*
X80783Y64120D01*
X80709Y64068D01*
X80627Y64016D01*
X80553Y63979D01*
X80479Y63942D01*
X80413Y63912D01*
X80361Y63890D01*
X80331Y63883D01*
X80317Y63875D01*
X80213Y63846D01*
X80102Y63824D01*
X79991Y63809D01*
X79895Y63801D01*
X79806Y63794D01*
X79739Y63787D01*
X79562D01*
X79443Y63794D01*
X79347Y63809D01*
X79258Y63824D01*
X79184Y63831D01*
X79125Y63846D01*
X79096Y63853D01*
X79081D01*
X78985Y63883D01*
X78896Y63912D01*
X78822Y63949D01*
X78755Y63979D01*
X78703Y64009D01*
X78659Y64031D01*
X78637Y64046D01*
X78629Y64053D01*
X78563Y64105D01*
X78504Y64157D01*
X78459Y64208D01*
X78415Y64260D01*
X78385Y64297D01*
X78363Y64334D01*
X78348Y64356D01*
X78341Y64364D01*
X78304Y64430D01*
X78282Y64497D01*
X78259Y64564D01*
X78252Y64630D01*
X78245Y64682D01*
X78237Y64719D01*
Y64749D01*
Y64756D01*
X78245Y64837D01*
X78252Y64911D01*
X78267Y64978D01*
X78289Y65037D01*
X78311Y65082D01*
X78326Y65119D01*
X78333Y65141D01*
X78341Y65148D01*
X78430Y65267D01*
X78474Y65311D01*
X78518Y65355D01*
X78563Y65392D01*
X78592Y65415D01*
X78615Y65429D01*
X78622Y65437D01*
X78763Y65518D01*
X78837Y65548D01*
X78903Y65577D01*
X78962Y65600D01*
X79007Y65614D01*
X79036Y65629D01*
X79051D01*
X79244Y65681D01*
X79332Y65696D01*
X79414Y65718D01*
X79488Y65733D01*
X79540Y65740D01*
X79577Y65748D01*
X79591D01*
X79665Y65762D01*
X79725Y65770D01*
X79784Y65785D01*
X79836Y65792D01*
X79873Y65799D01*
X79902Y65807D01*
X79917Y65814D01*
X79924D01*
X80013Y65844D01*
X80072Y65873D01*
X80117Y65896D01*
X80124Y65903D01*
X80132D01*
X80176Y65940D01*
X80213Y65977D01*
X80228Y66007D01*
X80235Y66014D01*
X80250Y66066D01*
X80257Y66103D01*
X80265Y66132D01*
Y66147D01*
X80257Y66206D01*
X80243Y66251D01*
X80191Y66332D01*
X80161Y66362D01*
X80139Y66391D01*
X80124Y66399D01*
X80117Y66406D01*
X80058Y66443D01*
X79984Y66465D01*
X79843Y66495D01*
X79776Y66502D01*
X79725Y66510D01*
X79680D01*
X79577Y66502D01*
X79480Y66487D01*
X79406Y66473D01*
X79340Y66451D01*
X79288Y66421D01*
X79258Y66406D01*
X79236Y66391D01*
X79229Y66384D01*
X79177Y66332D01*
X79140Y66280D01*
X79110Y66228D01*
X79096Y66184D01*
X79081Y66140D01*
X79073Y66103D01*
Y66081D01*
Y66073D01*
X78252D01*
X78259Y66154D01*
X78267Y66228D01*
X78282Y66303D01*
X78296Y66362D01*
X78319Y66413D01*
X78333Y66451D01*
X78341Y66473D01*
X78348Y66480D01*
X78385Y66547D01*
X78430Y66613D01*
X78481Y66665D01*
X78526Y66717D01*
X78563Y66754D01*
X78600Y66784D01*
X78622Y66798D01*
X78629Y66806D01*
X78703Y66858D01*
X78777Y66902D01*
X78851Y66939D01*
X78925Y66969D01*
X78985Y66991D01*
X79036Y67006D01*
X79066Y67020D01*
X79081D01*
X79184Y67050D01*
X79288Y67065D01*
X79384Y67080D01*
X79480Y67094D01*
X79562D01*
X79621Y67102D01*
X79799D01*
X79902Y67087D01*
D02*
G37*
G36*
X83513Y62918D02*
X83632Y62910D01*
X83743Y62888D01*
X83832Y62873D01*
X83906Y62851D01*
X83965Y62829D01*
X84002Y62822D01*
X84017Y62814D01*
X84120Y62770D01*
X84209Y62718D01*
X84290Y62666D01*
X84364Y62622D01*
X84416Y62577D01*
X84461Y62540D01*
X84490Y62518D01*
X84498Y62511D01*
X84572Y62437D01*
X84631Y62363D01*
X84683Y62281D01*
X84727Y62215D01*
X84764Y62148D01*
X84786Y62104D01*
X84801Y62074D01*
X84808Y62059D01*
X84845Y61963D01*
X84868Y61867D01*
X84890Y61778D01*
X84897Y61697D01*
X84905Y61623D01*
X84912Y61571D01*
Y61534D01*
Y61519D01*
X84091D01*
X84083Y61638D01*
X84068Y61749D01*
X84039Y61837D01*
X84009Y61911D01*
X83980Y61971D01*
X83950Y62008D01*
X83935Y62037D01*
X83928Y62045D01*
X83854Y62111D01*
X83772Y62156D01*
X83691Y62193D01*
X83610Y62215D01*
X83536Y62230D01*
X83476Y62237D01*
X83417D01*
X83328Y62230D01*
X83254Y62215D01*
X83225Y62207D01*
X83203Y62200D01*
X83195Y62193D01*
X83188D01*
X83114Y62156D01*
X83055Y62119D01*
X83018Y62089D01*
X83003Y62082D01*
Y62074D01*
X82951Y62015D01*
X82921Y61948D01*
X82899Y61904D01*
X82892Y61889D01*
Y61882D01*
X82862Y61793D01*
X82855Y61712D01*
X82847Y61682D01*
Y61652D01*
Y61638D01*
Y61630D01*
X82855Y61556D01*
X82862Y61490D01*
X82870Y61438D01*
X82877Y61430D01*
Y61423D01*
X82907Y61342D01*
X82936Y61275D01*
X82958Y61245D01*
X82966Y61223D01*
X82981Y61208D01*
Y61201D01*
X83040Y61112D01*
X83092Y61023D01*
X83121Y60986D01*
X83136Y60957D01*
X83151Y60942D01*
X83158Y60935D01*
X83247Y60824D01*
X83336Y60720D01*
X83373Y60683D01*
X83402Y60646D01*
X83425Y60624D01*
X83432Y60616D01*
X84831Y59114D01*
Y58559D01*
X81885D01*
Y59218D01*
X83780D01*
X82966Y60076D01*
X82818Y60232D01*
X82759Y60298D01*
X82699Y60357D01*
X82655Y60409D01*
X82618Y60454D01*
X82596Y60476D01*
X82588Y60483D01*
X82470Y60631D01*
X82418Y60690D01*
X82374Y60750D01*
X82344Y60801D01*
X82315Y60838D01*
X82300Y60861D01*
X82292Y60868D01*
X82211Y61009D01*
X82174Y61075D01*
X82152Y61134D01*
X82130Y61179D01*
X82115Y61223D01*
X82100Y61245D01*
Y61253D01*
X82063Y61401D01*
X82048Y61467D01*
X82041Y61534D01*
X82033Y61586D01*
Y61623D01*
Y61652D01*
Y61660D01*
Y61763D01*
X82048Y61860D01*
X82063Y61948D01*
X82078Y62022D01*
X82093Y62082D01*
X82107Y62133D01*
X82115Y62163D01*
X82122Y62170D01*
X82159Y62259D01*
X82196Y62333D01*
X82241Y62400D01*
X82285Y62459D01*
X82322Y62503D01*
X82352Y62540D01*
X82374Y62563D01*
X82381Y62570D01*
X82448Y62629D01*
X82522Y62681D01*
X82588Y62725D01*
X82662Y62762D01*
X82722Y62792D01*
X82766Y62814D01*
X82796Y62822D01*
X82810Y62829D01*
X82907Y62859D01*
X83003Y62888D01*
X83106Y62903D01*
X83195Y62910D01*
X83269Y62918D01*
X83336Y62925D01*
X83388D01*
X83513Y62918D01*
D02*
G37*
G36*
X76247D02*
X76365Y62910D01*
X76476Y62888D01*
X76565Y62873D01*
X76639Y62851D01*
X76698Y62829D01*
X76735Y62822D01*
X76750Y62814D01*
X76853Y62770D01*
X76942Y62718D01*
X77024Y62666D01*
X77098Y62622D01*
X77149Y62577D01*
X77194Y62540D01*
X77223Y62518D01*
X77231Y62511D01*
X77305Y62437D01*
X77364Y62363D01*
X77416Y62281D01*
X77460Y62215D01*
X77497Y62148D01*
X77519Y62104D01*
X77534Y62074D01*
X77542Y62059D01*
X77579Y61963D01*
X77601Y61867D01*
X77623Y61778D01*
X77630Y61697D01*
X77638Y61623D01*
X77645Y61571D01*
Y61534D01*
Y61519D01*
X76824D01*
X76816Y61638D01*
X76802Y61749D01*
X76772Y61837D01*
X76742Y61911D01*
X76713Y61971D01*
X76683Y62008D01*
X76668Y62037D01*
X76661Y62045D01*
X76587Y62111D01*
X76506Y62156D01*
X76424Y62193D01*
X76343Y62215D01*
X76269Y62230D01*
X76210Y62237D01*
X76150D01*
X76062Y62230D01*
X75988Y62215D01*
X75958Y62207D01*
X75936Y62200D01*
X75928Y62193D01*
X75921D01*
X75847Y62156D01*
X75788Y62119D01*
X75751Y62089D01*
X75736Y62082D01*
Y62074D01*
X75684Y62015D01*
X75655Y61948D01*
X75632Y61904D01*
X75625Y61889D01*
Y61882D01*
X75595Y61793D01*
X75588Y61712D01*
X75581Y61682D01*
Y61652D01*
Y61638D01*
Y61630D01*
X75588Y61556D01*
X75595Y61490D01*
X75603Y61438D01*
X75610Y61430D01*
Y61423D01*
X75640Y61342D01*
X75669Y61275D01*
X75692Y61245D01*
X75699Y61223D01*
X75714Y61208D01*
Y61201D01*
X75773Y61112D01*
X75825Y61023D01*
X75854Y60986D01*
X75869Y60957D01*
X75884Y60942D01*
X75891Y60935D01*
X75980Y60824D01*
X76069Y60720D01*
X76106Y60683D01*
X76136Y60646D01*
X76158Y60624D01*
X76165Y60616D01*
X77564Y59114D01*
Y58559D01*
X74619D01*
Y59218D01*
X76513D01*
X75699Y60076D01*
X75551Y60232D01*
X75492Y60298D01*
X75433Y60357D01*
X75388Y60409D01*
X75351Y60454D01*
X75329Y60476D01*
X75322Y60483D01*
X75203Y60631D01*
X75151Y60690D01*
X75107Y60750D01*
X75077Y60801D01*
X75048Y60838D01*
X75033Y60861D01*
X75026Y60868D01*
X74944Y61009D01*
X74907Y61075D01*
X74885Y61134D01*
X74863Y61179D01*
X74848Y61223D01*
X74833Y61245D01*
Y61253D01*
X74796Y61401D01*
X74781Y61467D01*
X74774Y61534D01*
X74767Y61586D01*
Y61623D01*
Y61652D01*
Y61660D01*
Y61763D01*
X74781Y61860D01*
X74796Y61948D01*
X74811Y62022D01*
X74826Y62082D01*
X74841Y62133D01*
X74848Y62163D01*
X74855Y62170D01*
X74892Y62259D01*
X74929Y62333D01*
X74974Y62400D01*
X75018Y62459D01*
X75055Y62503D01*
X75085Y62540D01*
X75107Y62563D01*
X75114Y62570D01*
X75181Y62629D01*
X75255Y62681D01*
X75322Y62725D01*
X75396Y62762D01*
X75455Y62792D01*
X75499Y62814D01*
X75529Y62822D01*
X75544Y62829D01*
X75640Y62859D01*
X75736Y62888D01*
X75840Y62903D01*
X75928Y62910D01*
X76002Y62918D01*
X76069Y62925D01*
X76121D01*
X76247Y62918D01*
D02*
G37*
G36*
X79791D02*
X79902Y62910D01*
X79998Y62888D01*
X80087Y62873D01*
X80161Y62851D01*
X80213Y62829D01*
X80243Y62822D01*
X80257Y62814D01*
X80354Y62770D01*
X80435Y62718D01*
X80509Y62666D01*
X80576Y62614D01*
X80627Y62570D01*
X80672Y62533D01*
X80694Y62503D01*
X80701Y62496D01*
X80761Y62415D01*
X80820Y62326D01*
X80864Y62237D01*
X80901Y62148D01*
X80938Y62074D01*
X80960Y62015D01*
X80968Y61978D01*
X80975Y61971D01*
Y61963D01*
X81005Y61837D01*
X81027Y61712D01*
X81049Y61586D01*
X81057Y61475D01*
X81064Y61371D01*
X81071Y61297D01*
Y61268D01*
Y61245D01*
Y61231D01*
Y61223D01*
Y60195D01*
X81064Y60047D01*
X81057Y59906D01*
X81042Y59780D01*
X81020Y59677D01*
X81005Y59588D01*
X80990Y59521D01*
X80983Y59477D01*
X80975Y59469D01*
Y59462D01*
X80931Y59351D01*
X80886Y59247D01*
X80842Y59151D01*
X80798Y59077D01*
X80753Y59011D01*
X80724Y58966D01*
X80701Y58937D01*
X80694Y58929D01*
X80620Y58855D01*
X80546Y58789D01*
X80472Y58729D01*
X80405Y58685D01*
X80339Y58648D01*
X80294Y58626D01*
X80265Y58611D01*
X80250Y58604D01*
X80154Y58567D01*
X80050Y58544D01*
X79954Y58522D01*
X79858Y58515D01*
X79784Y58507D01*
X79717Y58500D01*
X79665D01*
X79547Y58507D01*
X79436Y58515D01*
X79340Y58530D01*
X79251Y58552D01*
X79177Y58574D01*
X79125Y58589D01*
X79096Y58596D01*
X79081Y58604D01*
X78985Y58648D01*
X78903Y58700D01*
X78829Y58759D01*
X78763Y58811D01*
X78711Y58855D01*
X78674Y58892D01*
X78652Y58922D01*
X78644Y58929D01*
X78578Y59011D01*
X78518Y59107D01*
X78474Y59196D01*
X78437Y59277D01*
X78400Y59351D01*
X78378Y59410D01*
X78370Y59447D01*
X78363Y59462D01*
X78333Y59588D01*
X78304Y59714D01*
X78289Y59832D01*
X78282Y59950D01*
X78274Y60047D01*
X78267Y60128D01*
Y60158D01*
Y60180D01*
Y60187D01*
Y60195D01*
Y61223D01*
X78274Y61379D01*
X78282Y61519D01*
X78296Y61645D01*
X78311Y61749D01*
X78333Y61837D01*
X78348Y61904D01*
X78356Y61948D01*
X78363Y61963D01*
X78400Y62074D01*
X78444Y62178D01*
X78496Y62274D01*
X78541Y62348D01*
X78578Y62415D01*
X78615Y62459D01*
X78637Y62489D01*
X78644Y62496D01*
X78718Y62570D01*
X78792Y62637D01*
X78866Y62688D01*
X78933Y62733D01*
X78999Y62770D01*
X79044Y62792D01*
X79073Y62807D01*
X79088Y62814D01*
X79184Y62851D01*
X79288Y62881D01*
X79384Y62896D01*
X79480Y62910D01*
X79554Y62918D01*
X79621Y62925D01*
X79673D01*
X79791Y62918D01*
D02*
G37*
G36*
X72524D02*
X72635Y62910D01*
X72732Y62888D01*
X72820Y62873D01*
X72894Y62851D01*
X72946Y62829D01*
X72976Y62822D01*
X72991Y62814D01*
X73087Y62770D01*
X73168Y62718D01*
X73242Y62666D01*
X73309Y62614D01*
X73361Y62570D01*
X73405Y62533D01*
X73427Y62503D01*
X73435Y62496D01*
X73494Y62415D01*
X73553Y62326D01*
X73597Y62237D01*
X73634Y62148D01*
X73671Y62074D01*
X73694Y62015D01*
X73701Y61978D01*
X73708Y61971D01*
Y61963D01*
X73738Y61837D01*
X73760Y61712D01*
X73782Y61586D01*
X73790Y61475D01*
X73797Y61371D01*
X73805Y61297D01*
Y61268D01*
Y61245D01*
Y61231D01*
Y61223D01*
Y60195D01*
X73797Y60047D01*
X73790Y59906D01*
X73775Y59780D01*
X73753Y59677D01*
X73738Y59588D01*
X73723Y59521D01*
X73716Y59477D01*
X73708Y59469D01*
Y59462D01*
X73664Y59351D01*
X73620Y59247D01*
X73575Y59151D01*
X73531Y59077D01*
X73486Y59011D01*
X73457Y58966D01*
X73435Y58937D01*
X73427Y58929D01*
X73353Y58855D01*
X73279Y58789D01*
X73205Y58729D01*
X73139Y58685D01*
X73072Y58648D01*
X73028Y58626D01*
X72998Y58611D01*
X72983Y58604D01*
X72887Y58567D01*
X72783Y58544D01*
X72687Y58522D01*
X72591Y58515D01*
X72517Y58507D01*
X72450Y58500D01*
X72399D01*
X72280Y58507D01*
X72169Y58515D01*
X72073Y58530D01*
X71984Y58552D01*
X71910Y58574D01*
X71858Y58589D01*
X71829Y58596D01*
X71814Y58604D01*
X71718Y58648D01*
X71636Y58700D01*
X71562Y58759D01*
X71496Y58811D01*
X71444Y58855D01*
X71407Y58892D01*
X71385Y58922D01*
X71377Y58929D01*
X71311Y59011D01*
X71252Y59107D01*
X71207Y59196D01*
X71170Y59277D01*
X71133Y59351D01*
X71111Y59410D01*
X71104Y59447D01*
X71096Y59462D01*
X71067Y59588D01*
X71037Y59714D01*
X71022Y59832D01*
X71015Y59950D01*
X71007Y60047D01*
X71000Y60128D01*
Y60158D01*
Y60180D01*
Y60187D01*
Y60195D01*
Y61223D01*
X71007Y61379D01*
X71015Y61519D01*
X71030Y61645D01*
X71044Y61749D01*
X71067Y61837D01*
X71081Y61904D01*
X71089Y61948D01*
X71096Y61963D01*
X71133Y62074D01*
X71178Y62178D01*
X71229Y62274D01*
X71274Y62348D01*
X71311Y62415D01*
X71348Y62459D01*
X71370Y62489D01*
X71377Y62496D01*
X71451Y62570D01*
X71525Y62637D01*
X71599Y62688D01*
X71666Y62733D01*
X71733Y62770D01*
X71777Y62792D01*
X71807Y62807D01*
X71821Y62814D01*
X71918Y62851D01*
X72021Y62881D01*
X72117Y62896D01*
X72214Y62910D01*
X72288Y62918D01*
X72354Y62925D01*
X72406D01*
X72524Y62918D01*
D02*
G37*
G36*
X80475Y54649D02*
Y53932D01*
X79387Y54324D01*
Y51023D01*
X78559D01*
Y55330D01*
X78603D01*
X80475Y54649D01*
D02*
G37*
G36*
X83228Y51023D02*
X82384D01*
X81075Y55330D01*
X81992D01*
X82806Y52222D01*
X83613Y55330D01*
X84530D01*
X83228Y51023D01*
D02*
G37*
G36*
X75636Y52030D02*
X75710Y52015D01*
X75739Y52008D01*
X75754Y52000D01*
X75769Y51993D01*
X75776D01*
X75850Y51963D01*
X75902Y51926D01*
X75939Y51897D01*
X75954Y51882D01*
X76006Y51823D01*
X76043Y51763D01*
X76065Y51719D01*
X76072Y51711D01*
Y51704D01*
X76094Y51630D01*
X76102Y51564D01*
X76109Y51534D01*
Y51519D01*
Y51504D01*
Y51497D01*
X76102Y51415D01*
X76087Y51349D01*
Y51319D01*
X76080Y51297D01*
X76072Y51290D01*
Y51282D01*
X76035Y51216D01*
X75998Y51164D01*
X75969Y51127D01*
X75954Y51112D01*
X75895Y51068D01*
X75835Y51038D01*
X75791Y51016D01*
X75784Y51009D01*
X75776D01*
X75695Y50986D01*
X75621Y50972D01*
X75584Y50964D01*
X75539D01*
X75443Y50972D01*
X75369Y50986D01*
X75340Y50994D01*
X75317Y51001D01*
X75310Y51009D01*
X75303D01*
X75229Y51038D01*
X75169Y51075D01*
X75132Y51105D01*
X75118Y51112D01*
X75066Y51171D01*
X75036Y51223D01*
X75014Y51268D01*
X75007Y51275D01*
Y51282D01*
X74977Y51356D01*
X74970Y51430D01*
X74962Y51460D01*
Y51475D01*
Y51490D01*
Y51497D01*
X74970Y51578D01*
X74984Y51645D01*
X74999Y51689D01*
X75007Y51697D01*
Y51704D01*
X75036Y51778D01*
X75073Y51830D01*
X75103Y51867D01*
X75118Y51882D01*
X75177Y51934D01*
X75236Y51963D01*
X75280Y51985D01*
X75295Y51993D01*
X75303D01*
X75384Y52022D01*
X75458Y52030D01*
X75495Y52037D01*
X75539D01*
X75636Y52030D01*
D02*
G37*
G36*
X72024Y55382D02*
X72135Y55374D01*
X72232Y55352D01*
X72320Y55338D01*
X72394Y55315D01*
X72446Y55293D01*
X72476Y55286D01*
X72491Y55278D01*
X72587Y55234D01*
X72668Y55182D01*
X72742Y55130D01*
X72809Y55079D01*
X72861Y55034D01*
X72905Y54997D01*
X72927Y54968D01*
X72935Y54960D01*
X72994Y54879D01*
X73053Y54790D01*
X73097Y54701D01*
X73134Y54612D01*
X73171Y54538D01*
X73194Y54479D01*
X73201Y54442D01*
X73208Y54435D01*
Y54427D01*
X73238Y54302D01*
X73260Y54176D01*
X73282Y54050D01*
X73290Y53939D01*
X73297Y53835D01*
X73305Y53761D01*
Y53732D01*
Y53710D01*
Y53695D01*
Y53687D01*
Y52659D01*
X73297Y52511D01*
X73290Y52370D01*
X73275Y52244D01*
X73253Y52141D01*
X73238Y52052D01*
X73223Y51985D01*
X73216Y51941D01*
X73208Y51934D01*
Y51926D01*
X73164Y51815D01*
X73120Y51711D01*
X73075Y51615D01*
X73031Y51541D01*
X72986Y51475D01*
X72957Y51430D01*
X72935Y51401D01*
X72927Y51393D01*
X72853Y51319D01*
X72779Y51253D01*
X72705Y51193D01*
X72639Y51149D01*
X72572Y51112D01*
X72528Y51090D01*
X72498Y51075D01*
X72483Y51068D01*
X72387Y51031D01*
X72283Y51009D01*
X72187Y50986D01*
X72091Y50979D01*
X72017Y50972D01*
X71950Y50964D01*
X71899D01*
X71780Y50972D01*
X71669Y50979D01*
X71573Y50994D01*
X71484Y51016D01*
X71410Y51038D01*
X71358Y51053D01*
X71329Y51060D01*
X71314Y51068D01*
X71218Y51112D01*
X71136Y51164D01*
X71062Y51223D01*
X70996Y51275D01*
X70944Y51319D01*
X70907Y51356D01*
X70885Y51386D01*
X70877Y51393D01*
X70811Y51475D01*
X70752Y51571D01*
X70707Y51660D01*
X70670Y51741D01*
X70633Y51815D01*
X70611Y51874D01*
X70604Y51911D01*
X70596Y51926D01*
X70567Y52052D01*
X70537Y52178D01*
X70522Y52296D01*
X70515Y52415D01*
X70507Y52511D01*
X70500Y52592D01*
Y52622D01*
Y52644D01*
Y52651D01*
Y52659D01*
Y53687D01*
X70507Y53843D01*
X70515Y53983D01*
X70530Y54109D01*
X70544Y54213D01*
X70567Y54302D01*
X70581Y54368D01*
X70589Y54413D01*
X70596Y54427D01*
X70633Y54538D01*
X70678Y54642D01*
X70729Y54738D01*
X70774Y54812D01*
X70811Y54879D01*
X70848Y54923D01*
X70870Y54953D01*
X70877Y54960D01*
X70951Y55034D01*
X71025Y55101D01*
X71099Y55152D01*
X71166Y55197D01*
X71233Y55234D01*
X71277Y55256D01*
X71307Y55271D01*
X71321Y55278D01*
X71418Y55315D01*
X71521Y55345D01*
X71617Y55360D01*
X71714Y55374D01*
X71788Y55382D01*
X71854Y55389D01*
X71906D01*
X72024Y55382D01*
D02*
G37*
G36*
X79432Y50007D02*
X79491Y49999D01*
X79535Y49984D01*
X79543Y49977D01*
X79550D01*
X79609Y49947D01*
X79654Y49925D01*
X79683Y49896D01*
X79698Y49888D01*
X79735Y49844D01*
X79765Y49799D01*
X79787Y49770D01*
X79794Y49762D01*
Y49755D01*
X79809Y49696D01*
X79817Y49637D01*
X79824Y49592D01*
Y49585D01*
Y49577D01*
X79817Y49511D01*
X79809Y49452D01*
X79802Y49415D01*
X79794Y49407D01*
Y49400D01*
X79765Y49341D01*
X79735Y49296D01*
X79706Y49267D01*
X79698Y49259D01*
X79646Y49222D01*
X79602Y49193D01*
X79565Y49178D01*
X79550Y49170D01*
X79484Y49156D01*
X79417Y49148D01*
X79365Y49141D01*
X79350D01*
X79276Y49148D01*
X79210Y49163D01*
X79151Y49178D01*
X79099Y49200D01*
X79062Y49222D01*
X79032Y49244D01*
X79017Y49252D01*
X79010Y49259D01*
X78966Y49311D01*
X78936Y49363D01*
X78906Y49415D01*
X78892Y49466D01*
X78884Y49511D01*
X78877Y49548D01*
Y49570D01*
Y49577D01*
X78884Y49644D01*
X78899Y49711D01*
X78921Y49762D01*
X78943Y49807D01*
X78966Y49844D01*
X78988Y49866D01*
X79003Y49881D01*
X79010Y49888D01*
X79062Y49933D01*
X79114Y49962D01*
X79173Y49984D01*
X79225Y49999D01*
X79276Y50007D01*
X79313Y50014D01*
X79350D01*
X79432Y50007D01*
D02*
G37*
G36*
X98050Y47084D02*
Y45559D01*
X97221D01*
X97214Y47047D01*
X95860Y49866D01*
X96777D01*
X97621Y47875D01*
X98472Y49866D01*
X99382D01*
X98050Y47084D01*
D02*
G37*
G36*
X73623Y45559D02*
X72801D01*
Y46529D01*
X72424Y46876D01*
X71521Y45559D01*
X70507D01*
X71884Y47424D01*
X70678Y48756D01*
X71669D01*
X72550Y47787D01*
X72801Y47505D01*
Y50103D01*
X73623D01*
Y45559D01*
D02*
G37*
G36*
X101417Y49918D02*
X101543Y49903D01*
X101654Y49881D01*
X101758Y49859D01*
X101839Y49829D01*
X101898Y49807D01*
X101935Y49792D01*
X101950Y49785D01*
X102054Y49725D01*
X102150Y49666D01*
X102239Y49600D01*
X102313Y49533D01*
X102372Y49474D01*
X102416Y49429D01*
X102446Y49400D01*
X102453Y49385D01*
X102527Y49289D01*
X102586Y49185D01*
X102646Y49082D01*
X102690Y48985D01*
X102727Y48904D01*
X102749Y48837D01*
X102764Y48793D01*
X102771Y48786D01*
Y48778D01*
X102808Y48645D01*
X102838Y48504D01*
X102853Y48371D01*
X102868Y48253D01*
X102875Y48149D01*
X102882Y48068D01*
Y48038D01*
Y48016D01*
Y48001D01*
Y47994D01*
Y47417D01*
X102875Y47261D01*
X102868Y47113D01*
X102853Y46980D01*
X102831Y46862D01*
X102808Y46765D01*
X102794Y46691D01*
X102786Y46669D01*
Y46647D01*
X102779Y46640D01*
Y46632D01*
X102734Y46506D01*
X102683Y46388D01*
X102631Y46284D01*
X102579Y46196D01*
X102535Y46122D01*
X102498Y46070D01*
X102475Y46040D01*
X102468Y46025D01*
X102387Y45937D01*
X102305Y45855D01*
X102224Y45789D01*
X102142Y45737D01*
X102076Y45692D01*
X102024Y45663D01*
X101987Y45641D01*
X101972Y45633D01*
X101861Y45589D01*
X101743Y45559D01*
X101624Y45530D01*
X101521Y45515D01*
X101432Y45507D01*
X101358Y45500D01*
X101291D01*
X101166Y45507D01*
X101055Y45515D01*
X100951Y45530D01*
X100862Y45552D01*
X100781Y45567D01*
X100729Y45581D01*
X100692Y45589D01*
X100677Y45596D01*
X100574Y45633D01*
X100485Y45678D01*
X100403Y45722D01*
X100329Y45766D01*
X100278Y45811D01*
X100233Y45840D01*
X100204Y45863D01*
X100196Y45870D01*
X100122Y45944D01*
X100063Y46018D01*
X100004Y46092D01*
X99959Y46159D01*
X99922Y46225D01*
X99900Y46270D01*
X99885Y46299D01*
X99878Y46314D01*
X99841Y46418D01*
X99804Y46521D01*
X99782Y46617D01*
X99760Y46714D01*
X99752Y46788D01*
X99745Y46854D01*
X99737Y46891D01*
Y46906D01*
X100566D01*
X100581Y46773D01*
X100611Y46654D01*
X100640Y46558D01*
X100685Y46477D01*
X100722Y46418D01*
X100751Y46373D01*
X100773Y46351D01*
X100781Y46344D01*
X100855Y46284D01*
X100936Y46247D01*
X101025Y46218D01*
X101106Y46196D01*
X101180Y46181D01*
X101240Y46173D01*
X101291D01*
X101425Y46188D01*
X101543Y46218D01*
X101647Y46270D01*
X101721Y46329D01*
X101787Y46381D01*
X101824Y46432D01*
X101854Y46462D01*
X101861Y46477D01*
X101891Y46536D01*
X101920Y46603D01*
X101965Y46751D01*
X101994Y46906D01*
X102017Y47061D01*
X102031Y47202D01*
Y47261D01*
X102039Y47313D01*
Y47357D01*
Y47387D01*
Y47409D01*
Y47417D01*
Y48001D01*
Y48112D01*
X102031Y48208D01*
X102024Y48297D01*
X102017Y48379D01*
X102009Y48438D01*
X102002Y48490D01*
X101994Y48519D01*
Y48527D01*
X101972Y48608D01*
X101957Y48689D01*
X101935Y48756D01*
X101913Y48815D01*
X101891Y48860D01*
X101876Y48889D01*
X101861Y48911D01*
Y48919D01*
X101824Y48978D01*
X101780Y49022D01*
X101743Y49067D01*
X101706Y49104D01*
X101676Y49126D01*
X101647Y49148D01*
X101632Y49163D01*
X101624D01*
X101565Y49193D01*
X101506Y49215D01*
X101395Y49244D01*
X101351D01*
X101314Y49252D01*
X101284D01*
X101158Y49244D01*
X101106Y49237D01*
X101062Y49230D01*
X101025Y49215D01*
X100995Y49207D01*
X100981Y49200D01*
X100973D01*
X100884Y49156D01*
X100810Y49104D01*
X100766Y49067D01*
X100759Y49059D01*
X100751Y49052D01*
X100692Y48971D01*
X100648Y48897D01*
X100633Y48860D01*
X100625Y48830D01*
X100618Y48815D01*
Y48808D01*
X100588Y48697D01*
X100574Y48586D01*
X100566Y48541D01*
X100559Y48504D01*
Y48482D01*
Y48475D01*
X99730D01*
X99745Y48601D01*
X99767Y48712D01*
X99789Y48815D01*
X99811Y48904D01*
X99841Y48978D01*
X99856Y49037D01*
X99871Y49067D01*
X99878Y49082D01*
X99922Y49178D01*
X99974Y49267D01*
X100026Y49348D01*
X100078Y49415D01*
X100122Y49466D01*
X100159Y49511D01*
X100181Y49533D01*
X100189Y49540D01*
X100263Y49607D01*
X100344Y49666D01*
X100418Y49711D01*
X100492Y49748D01*
X100559Y49785D01*
X100611Y49807D01*
X100640Y49814D01*
X100655Y49822D01*
X100759Y49859D01*
X100870Y49881D01*
X100973Y49903D01*
X101069Y49910D01*
X101158Y49918D01*
X101225Y49925D01*
X101284D01*
X101417Y49918D01*
D02*
G37*
G36*
X95408Y45559D02*
X94580D01*
Y47135D01*
X93936D01*
X93803Y47143D01*
X93684Y47150D01*
X93581Y47165D01*
X93484Y47187D01*
X93410Y47202D01*
X93351Y47217D01*
X93314Y47224D01*
X93299Y47232D01*
X93196Y47276D01*
X93100Y47320D01*
X93018Y47365D01*
X92944Y47409D01*
X92892Y47454D01*
X92848Y47483D01*
X92818Y47505D01*
X92811Y47513D01*
X92737Y47587D01*
X92678Y47661D01*
X92626Y47727D01*
X92582Y47794D01*
X92552Y47853D01*
X92530Y47898D01*
X92515Y47935D01*
X92508Y47942D01*
X92471Y48038D01*
X92441Y48127D01*
X92426Y48216D01*
X92411Y48297D01*
X92404Y48371D01*
X92397Y48423D01*
Y48460D01*
Y48475D01*
X92404Y48586D01*
X92411Y48697D01*
X92434Y48793D01*
X92448Y48874D01*
X92471Y48941D01*
X92493Y48993D01*
X92500Y49022D01*
X92508Y49037D01*
X92552Y49133D01*
X92596Y49215D01*
X92648Y49289D01*
X92700Y49355D01*
X92744Y49407D01*
X92781Y49444D01*
X92804Y49466D01*
X92811Y49474D01*
X92892Y49540D01*
X92974Y49600D01*
X93055Y49644D01*
X93129Y49688D01*
X93196Y49718D01*
X93248Y49740D01*
X93285Y49755D01*
X93299Y49762D01*
X93410Y49799D01*
X93514Y49822D01*
X93625Y49844D01*
X93721Y49851D01*
X93810Y49859D01*
X93877Y49866D01*
X95408D01*
Y45559D01*
D02*
G37*
G36*
X91849D02*
X90687D01*
X90539Y45567D01*
X90399Y45581D01*
X90273Y45604D01*
X90162Y45633D01*
X90066Y45655D01*
X89999Y45678D01*
X89955Y45692D01*
X89940Y45700D01*
X89814Y45759D01*
X89703Y45826D01*
X89607Y45892D01*
X89518Y45959D01*
X89451Y46018D01*
X89400Y46062D01*
X89363Y46092D01*
X89355Y46107D01*
X89266Y46210D01*
X89192Y46314D01*
X89126Y46418D01*
X89074Y46514D01*
X89030Y46603D01*
X89000Y46669D01*
X88985Y46714D01*
X88978Y46721D01*
Y46728D01*
X88933Y46869D01*
X88904Y47010D01*
X88874Y47143D01*
X88859Y47261D01*
X88852Y47372D01*
X88845Y47454D01*
Y47483D01*
Y47505D01*
Y47520D01*
Y47528D01*
Y47883D01*
X88852Y48046D01*
X88867Y48194D01*
X88889Y48327D01*
X88911Y48445D01*
X88933Y48541D01*
X88956Y48615D01*
X88963Y48645D01*
X88970Y48667D01*
X88978Y48675D01*
Y48682D01*
X89030Y48815D01*
X89096Y48934D01*
X89155Y49037D01*
X89222Y49126D01*
X89274Y49200D01*
X89318Y49259D01*
X89348Y49289D01*
X89363Y49304D01*
X89459Y49400D01*
X89555Y49481D01*
X89659Y49555D01*
X89747Y49614D01*
X89829Y49659D01*
X89895Y49688D01*
X89940Y49711D01*
X89947Y49718D01*
X89955D01*
X90088Y49770D01*
X90221Y49807D01*
X90354Y49829D01*
X90473Y49851D01*
X90576Y49859D01*
X90658Y49866D01*
X91849D01*
Y45559D01*
D02*
G37*
G36*
X80682Y48083D02*
X79765D01*
Y46225D01*
X80682D01*
Y45559D01*
X78070D01*
Y46225D01*
X78936D01*
Y48756D01*
X80682D01*
Y48083D01*
D02*
G37*
G36*
X75621Y48808D02*
X75717Y48793D01*
X75813Y48771D01*
X75887Y48749D01*
X75954Y48726D01*
X76006Y48704D01*
X76035Y48689D01*
X76050Y48682D01*
X76139Y48630D01*
X76220Y48571D01*
X76294Y48512D01*
X76353Y48453D01*
X76405Y48393D01*
X76442Y48349D01*
X76464Y48319D01*
X76472Y48312D01*
X76516Y48756D01*
X77264D01*
Y45559D01*
X76442D01*
Y47831D01*
X76361Y47927D01*
X76287Y48001D01*
X76250Y48023D01*
X76220Y48046D01*
X76205Y48060D01*
X76198D01*
X76139Y48090D01*
X76080Y48112D01*
X75961Y48142D01*
X75917D01*
X75880Y48149D01*
X75843D01*
X75747Y48142D01*
X75665Y48134D01*
X75636Y48127D01*
X75613D01*
X75599Y48120D01*
X75591D01*
X75510Y48090D01*
X75451Y48060D01*
X75414Y48031D01*
X75399Y48016D01*
X75347Y47957D01*
X75303Y47898D01*
X75288Y47868D01*
X75280Y47846D01*
X75273Y47831D01*
Y47824D01*
X75243Y47727D01*
X75236Y47624D01*
X75229Y47579D01*
Y47542D01*
Y47520D01*
Y47513D01*
Y45559D01*
X74407D01*
Y47528D01*
Y47653D01*
X74422Y47764D01*
X74429Y47868D01*
X74444Y47957D01*
X74459Y48023D01*
X74474Y48075D01*
X74481Y48112D01*
X74489Y48120D01*
X74518Y48208D01*
X74555Y48282D01*
X74600Y48356D01*
X74637Y48408D01*
X74666Y48460D01*
X74696Y48490D01*
X74711Y48512D01*
X74718Y48519D01*
X74770Y48571D01*
X74829Y48623D01*
X74888Y48660D01*
X74947Y48689D01*
X74992Y48712D01*
X75029Y48726D01*
X75058Y48741D01*
X75066D01*
X75221Y48786D01*
X75295Y48800D01*
X75362Y48808D01*
X75421Y48815D01*
X75510D01*
X75621Y48808D01*
D02*
G37*
G36*
X83265Y49910D02*
X83369Y49896D01*
X83457Y49881D01*
X83539Y49866D01*
X83591Y49851D01*
X83628Y49844D01*
X83642Y49836D01*
X83739Y49799D01*
X83835Y49762D01*
X83916Y49725D01*
X83983Y49688D01*
X84042Y49651D01*
X84086Y49622D01*
X84116Y49607D01*
X84123Y49600D01*
X84197Y49540D01*
X84257Y49474D01*
X84308Y49415D01*
X84360Y49355D01*
X84390Y49304D01*
X84419Y49259D01*
X84434Y49230D01*
X84442Y49222D01*
X84479Y49141D01*
X84508Y49052D01*
X84523Y48971D01*
X84538Y48889D01*
X84545Y48823D01*
X84553Y48771D01*
Y48741D01*
Y48726D01*
X84545Y48623D01*
X84538Y48527D01*
X84516Y48445D01*
X84493Y48371D01*
X84479Y48312D01*
X84456Y48260D01*
X84449Y48231D01*
X84442Y48223D01*
X84397Y48149D01*
X84345Y48075D01*
X84294Y48009D01*
X84242Y47957D01*
X84197Y47912D01*
X84160Y47875D01*
X84138Y47853D01*
X84131Y47846D01*
X83975Y47735D01*
X83901Y47683D01*
X83827Y47646D01*
X83768Y47609D01*
X83724Y47587D01*
X83687Y47572D01*
X83679Y47565D01*
X83487Y47491D01*
X83391Y47461D01*
X83309Y47431D01*
X83243Y47409D01*
X83184Y47394D01*
X83154Y47380D01*
X83139D01*
X83058Y47357D01*
X82984Y47328D01*
X82917Y47306D01*
X82858Y47283D01*
X82814Y47269D01*
X82784Y47254D01*
X82762Y47239D01*
X82754D01*
X82651Y47187D01*
X82569Y47135D01*
X82540Y47113D01*
X82518Y47098D01*
X82510Y47091D01*
X82503Y47084D01*
X82444Y47017D01*
X82399Y46958D01*
X82377Y46906D01*
X82370Y46899D01*
Y46891D01*
X82340Y46817D01*
X82333Y46751D01*
X82325Y46721D01*
Y46699D01*
Y46684D01*
Y46677D01*
X82333Y46595D01*
X82347Y46529D01*
X82370Y46484D01*
X82377Y46477D01*
Y46469D01*
X82414Y46403D01*
X82458Y46351D01*
X82495Y46314D01*
X82503Y46299D01*
X82510D01*
X82584Y46255D01*
X82651Y46225D01*
X82680Y46210D01*
X82703Y46203D01*
X82717Y46196D01*
X82725D01*
X82821Y46173D01*
X82917Y46166D01*
X82962Y46159D01*
X83021D01*
X83154Y46166D01*
X83213Y46173D01*
X83258Y46181D01*
X83302D01*
X83332Y46188D01*
X83354Y46196D01*
X83361D01*
X83465Y46233D01*
X83554Y46277D01*
X83583Y46299D01*
X83605Y46314D01*
X83620Y46329D01*
X83628D01*
X83702Y46403D01*
X83761Y46477D01*
X83776Y46506D01*
X83790Y46536D01*
X83805Y46551D01*
Y46558D01*
X83842Y46669D01*
X83857Y46780D01*
X83864Y46825D01*
X83872Y46862D01*
Y46884D01*
Y46891D01*
X84686D01*
X84678Y46721D01*
X84664Y46647D01*
X84649Y46588D01*
X84641Y46529D01*
X84627Y46492D01*
X84619Y46462D01*
Y46455D01*
X84560Y46321D01*
X84530Y46262D01*
X84501Y46210D01*
X84479Y46166D01*
X84456Y46136D01*
X84442Y46114D01*
X84434Y46107D01*
X84338Y46003D01*
X84249Y45922D01*
X84212Y45885D01*
X84183Y45863D01*
X84168Y45848D01*
X84160Y45840D01*
X84035Y45766D01*
X83975Y45729D01*
X83924Y45700D01*
X83879Y45678D01*
X83842Y45663D01*
X83820Y45655D01*
X83813Y45648D01*
X83672Y45604D01*
X83613Y45581D01*
X83554Y45567D01*
X83502Y45559D01*
X83465Y45552D01*
X83435Y45544D01*
X83428D01*
X83280Y45522D01*
X83206Y45515D01*
X83147D01*
X83095Y45507D01*
X82902D01*
X82784Y45522D01*
X82680Y45530D01*
X82592Y45544D01*
X82518Y45559D01*
X82458Y45567D01*
X82429Y45581D01*
X82414D01*
X82310Y45611D01*
X82222Y45648D01*
X82140Y45685D01*
X82066Y45722D01*
X82014Y45752D01*
X81970Y45781D01*
X81940Y45796D01*
X81933Y45803D01*
X81859Y45863D01*
X81800Y45929D01*
X81748Y45988D01*
X81704Y46048D01*
X81667Y46099D01*
X81644Y46144D01*
X81630Y46173D01*
X81622Y46181D01*
X81585Y46270D01*
X81556Y46351D01*
X81533Y46440D01*
X81519Y46514D01*
X81511Y46580D01*
X81504Y46640D01*
Y46669D01*
Y46684D01*
X81511Y46780D01*
X81519Y46869D01*
X81533Y46950D01*
X81556Y47024D01*
X81578Y47084D01*
X81593Y47128D01*
X81600Y47158D01*
X81607Y47165D01*
X81644Y47246D01*
X81689Y47320D01*
X81733Y47387D01*
X81778Y47446D01*
X81822Y47491D01*
X81852Y47528D01*
X81874Y47550D01*
X81881Y47557D01*
X82022Y47676D01*
X82096Y47727D01*
X82162Y47772D01*
X82222Y47801D01*
X82266Y47831D01*
X82296Y47846D01*
X82310Y47853D01*
X82495Y47942D01*
X82592Y47972D01*
X82673Y48001D01*
X82747Y48031D01*
X82799Y48046D01*
X82836Y48060D01*
X82851D01*
X82999Y48105D01*
X83058Y48127D01*
X83117Y48142D01*
X83161Y48157D01*
X83198Y48171D01*
X83221Y48179D01*
X83228D01*
X83339Y48231D01*
X83391Y48253D01*
X83428Y48275D01*
X83465Y48297D01*
X83487Y48312D01*
X83502Y48327D01*
X83509D01*
X83583Y48386D01*
X83635Y48445D01*
X83665Y48490D01*
X83679Y48497D01*
Y48504D01*
X83716Y48578D01*
X83731Y48645D01*
X83739Y48675D01*
Y48697D01*
Y48712D01*
Y48719D01*
X83731Y48800D01*
X83716Y48874D01*
X83702Y48919D01*
X83694Y48926D01*
Y48934D01*
X83657Y49008D01*
X83613Y49059D01*
X83576Y49089D01*
X83561Y49104D01*
X83487Y49156D01*
X83420Y49185D01*
X83391Y49200D01*
X83369Y49207D01*
X83354Y49215D01*
X83346D01*
X83243Y49244D01*
X83147Y49252D01*
X83110Y49259D01*
X83050D01*
X82925Y49252D01*
X82865Y49244D01*
X82821Y49237D01*
X82784Y49222D01*
X82754Y49215D01*
X82740Y49207D01*
X82732D01*
X82643Y49170D01*
X82569Y49126D01*
X82525Y49089D01*
X82518Y49082D01*
X82510Y49074D01*
X82451Y49008D01*
X82407Y48941D01*
X82392Y48911D01*
X82384Y48889D01*
X82377Y48874D01*
Y48867D01*
X82347Y48778D01*
X82325Y48689D01*
Y48652D01*
X82318Y48623D01*
Y48608D01*
Y48601D01*
X81511D01*
X81519Y48704D01*
X81526Y48808D01*
X81548Y48897D01*
X81563Y48978D01*
X81585Y49045D01*
X81607Y49089D01*
X81615Y49126D01*
X81622Y49133D01*
X81667Y49222D01*
X81718Y49304D01*
X81770Y49370D01*
X81822Y49429D01*
X81866Y49481D01*
X81903Y49518D01*
X81933Y49540D01*
X81940Y49548D01*
X82022Y49614D01*
X82103Y49666D01*
X82177Y49711D01*
X82259Y49755D01*
X82325Y49785D01*
X82377Y49807D01*
X82407Y49814D01*
X82421Y49822D01*
X82525Y49859D01*
X82636Y49881D01*
X82732Y49903D01*
X82828Y49910D01*
X82910Y49918D01*
X82976Y49925D01*
X83154D01*
X83265Y49910D01*
D02*
G37*
G36*
X42188Y53445D02*
X42182Y53362D01*
X42177Y53284D01*
X42165Y53212D01*
X42149Y53151D01*
X42132Y53101D01*
X42121Y53057D01*
X42116Y53034D01*
X42110Y53023D01*
X42077Y52951D01*
X42043Y52885D01*
X42005Y52823D01*
X41971Y52773D01*
X41943Y52729D01*
X41916Y52701D01*
X41899Y52679D01*
X41894Y52674D01*
X41838Y52624D01*
X41783Y52579D01*
X41727Y52540D01*
X41677Y52507D01*
X41627Y52479D01*
X41594Y52463D01*
X41572Y52451D01*
X41561Y52446D01*
X41488Y52418D01*
X41411Y52396D01*
X41339Y52385D01*
X41272Y52374D01*
X41216Y52368D01*
X41172Y52363D01*
X41133D01*
X41050Y52368D01*
X40967Y52374D01*
X40894Y52390D01*
X40834Y52407D01*
X40784Y52418D01*
X40745Y52435D01*
X40723Y52440D01*
X40711Y52446D01*
X40639Y52479D01*
X40578Y52518D01*
X40523Y52557D01*
X40473Y52590D01*
X40434Y52624D01*
X40401Y52651D01*
X40384Y52668D01*
X40378Y52674D01*
X40328Y52729D01*
X40284Y52790D01*
X40245Y52851D01*
X40212Y52907D01*
X40190Y52951D01*
X40173Y52990D01*
X40162Y53012D01*
X40156Y53023D01*
X40129Y53101D01*
X40112Y53173D01*
X40095Y53245D01*
X40090Y53312D01*
X40084Y53362D01*
X40079Y53406D01*
Y53434D01*
Y53445D01*
Y55637D01*
X40478D01*
X40484Y53445D01*
X40495Y53339D01*
X40501Y53295D01*
X40512Y53251D01*
X40517Y53217D01*
X40528Y53190D01*
X40534Y53173D01*
Y53167D01*
X40567Y53073D01*
X40589Y53034D01*
X40611Y53001D01*
X40628Y52968D01*
X40645Y52946D01*
X40650Y52934D01*
X40656Y52929D01*
X40717Y52862D01*
X40784Y52812D01*
X40811Y52790D01*
X40834Y52779D01*
X40850Y52773D01*
X40856Y52768D01*
X40900Y52746D01*
X40950Y52735D01*
X40995Y52723D01*
X41039Y52712D01*
X41078D01*
X41105Y52707D01*
X41133D01*
X41189Y52712D01*
X41244Y52718D01*
X41289Y52729D01*
X41327Y52740D01*
X41366Y52751D01*
X41388Y52757D01*
X41405Y52768D01*
X41411D01*
X41494Y52823D01*
X41527Y52851D01*
X41561Y52879D01*
X41583Y52901D01*
X41599Y52918D01*
X41611Y52929D01*
X41616Y52934D01*
X41666Y53012D01*
X41705Y53090D01*
X41721Y53118D01*
X41727Y53145D01*
X41738Y53162D01*
Y53167D01*
X41766Y53267D01*
X41771Y53312D01*
X41777Y53356D01*
X41783Y53395D01*
Y53423D01*
Y53439D01*
Y53445D01*
X41794Y55637D01*
X42182D01*
X42188Y53445D01*
D02*
G37*
G36*
X47521Y52407D02*
X47105D01*
Y53834D01*
X45762D01*
Y54178D01*
X47105D01*
Y55288D01*
X45540D01*
Y55637D01*
X47521D01*
Y52407D01*
D02*
G37*
G36*
X45040D02*
X44630D01*
X44369Y53240D01*
X43292D01*
X43037Y52407D01*
X42626D01*
X43653Y55637D01*
X43997D01*
X45040Y52407D01*
D02*
G37*
G36*
X39329D02*
X37343D01*
Y52751D01*
X38919D01*
Y55637D01*
X39329D01*
Y52407D01*
D02*
G37*
G36*
X36876Y55288D02*
X35877D01*
Y52407D01*
X35478D01*
Y55288D01*
X34479D01*
Y55637D01*
X36876D01*
Y55288D01*
D02*
G37*
G36*
X49060Y27029D02*
X48638D01*
X48217Y29460D01*
X47800Y27029D01*
X47384D01*
X46990Y30259D01*
X47379D01*
X47623Y27901D01*
X48039Y30259D01*
X48400D01*
X48816Y27901D01*
X49060Y30259D01*
X49449D01*
X49060Y27029D01*
D02*
G37*
G36*
X38393D02*
X37982D01*
X37971Y29443D01*
X36717Y27029D01*
X36301D01*
Y30259D01*
X36717D01*
X36723Y27845D01*
X37977Y30259D01*
X38393D01*
Y27029D01*
D02*
G37*
G36*
X63057D02*
X62647D01*
X62386Y27862D01*
X61309D01*
X61054Y27029D01*
X60643D01*
X61670Y30259D01*
X62014D01*
X63057Y27029D01*
D02*
G37*
G36*
X60088D02*
X59672D01*
Y28456D01*
X58329D01*
Y28800D01*
X59672D01*
Y29910D01*
X58107D01*
Y30259D01*
X60088D01*
Y27029D01*
D02*
G37*
G36*
X57385D02*
X55398D01*
Y27373D01*
X56975D01*
Y28522D01*
X55626D01*
Y28866D01*
X56975D01*
Y29910D01*
X55421D01*
Y30259D01*
X57385D01*
Y27029D01*
D02*
G37*
G36*
X51913D02*
X51502D01*
Y28322D01*
X50864D01*
X50786Y28328D01*
X50709Y28334D01*
X50637Y28345D01*
X50575Y28356D01*
X50525Y28367D01*
X50487Y28378D01*
X50464Y28389D01*
X50453D01*
X50381Y28417D01*
X50320Y28444D01*
X50259Y28478D01*
X50209Y28511D01*
X50170Y28533D01*
X50143Y28556D01*
X50120Y28572D01*
X50115Y28578D01*
X50059Y28628D01*
X50015Y28678D01*
X49976Y28728D01*
X49943Y28772D01*
X49915Y28816D01*
X49898Y28850D01*
X49887Y28872D01*
X49882Y28877D01*
X49854Y28944D01*
X49832Y29016D01*
X49821Y29088D01*
X49810Y29149D01*
X49804Y29205D01*
X49798Y29249D01*
Y29277D01*
Y29288D01*
X49804Y29371D01*
X49810Y29449D01*
X49826Y29521D01*
X49837Y29582D01*
X49854Y29632D01*
X49871Y29665D01*
X49876Y29693D01*
X49882Y29699D01*
X49915Y29765D01*
X49954Y29826D01*
X49993Y29876D01*
X50032Y29921D01*
X50065Y29954D01*
X50093Y29982D01*
X50109Y29998D01*
X50115Y30004D01*
X50170Y30048D01*
X50226Y30082D01*
X50287Y30115D01*
X50337Y30143D01*
X50387Y30159D01*
X50420Y30176D01*
X50442Y30187D01*
X50453D01*
X50525Y30209D01*
X50598Y30226D01*
X50670Y30237D01*
X50731Y30248D01*
X50786Y30254D01*
X50825Y30259D01*
X51913D01*
Y27029D01*
D02*
G37*
G36*
X46485D02*
X46080D01*
Y28345D01*
X45431D01*
X44798Y27029D01*
X44365D01*
X44359Y27051D01*
X45048Y28433D01*
X44953Y28478D01*
X44909Y28500D01*
X44876Y28522D01*
X44848Y28544D01*
X44820Y28561D01*
X44809Y28567D01*
X44803Y28572D01*
X44726Y28639D01*
X44665Y28700D01*
X44642Y28722D01*
X44626Y28744D01*
X44620Y28755D01*
X44615Y28761D01*
X44559Y28844D01*
X44520Y28922D01*
X44504Y28949D01*
X44493Y28977D01*
X44487Y28994D01*
Y29000D01*
X44459Y29099D01*
X44454Y29149D01*
X44448Y29194D01*
X44443Y29233D01*
Y29260D01*
Y29283D01*
Y29288D01*
X44448Y29377D01*
X44454Y29455D01*
X44470Y29527D01*
X44487Y29593D01*
X44504Y29643D01*
X44515Y29677D01*
X44526Y29704D01*
X44532Y29710D01*
X44565Y29776D01*
X44604Y29832D01*
X44642Y29888D01*
X44681Y29926D01*
X44715Y29965D01*
X44742Y29987D01*
X44759Y30004D01*
X44765Y30010D01*
X44820Y30054D01*
X44881Y30087D01*
X44942Y30121D01*
X44998Y30148D01*
X45042Y30165D01*
X45081Y30182D01*
X45103Y30193D01*
X45114D01*
X45264Y30232D01*
X45336Y30243D01*
X45397Y30248D01*
X45453Y30254D01*
X45497Y30259D01*
X46485D01*
Y27029D01*
D02*
G37*
G36*
X41035D02*
X39048D01*
Y27373D01*
X40624D01*
Y28522D01*
X39276D01*
Y28866D01*
X40624D01*
Y29910D01*
X39070D01*
Y30259D01*
X41035D01*
Y27029D01*
D02*
G37*
G36*
X64695Y30293D02*
X64756Y30287D01*
X64817Y30276D01*
X64861Y30265D01*
X64900Y30254D01*
X64922Y30248D01*
X64933Y30243D01*
X65000Y30220D01*
X65066Y30193D01*
X65122Y30165D01*
X65172Y30137D01*
X65216Y30110D01*
X65244Y30087D01*
X65266Y30076D01*
X65272Y30071D01*
X65327Y30026D01*
X65372Y29982D01*
X65416Y29932D01*
X65449Y29893D01*
X65477Y29854D01*
X65499Y29821D01*
X65510Y29799D01*
X65516Y29793D01*
X65544Y29732D01*
X65566Y29665D01*
X65583Y29605D01*
X65594Y29549D01*
X65599Y29499D01*
X65605Y29455D01*
Y29432D01*
Y29421D01*
X65599Y29344D01*
X65588Y29277D01*
X65577Y29210D01*
X65560Y29160D01*
X65544Y29116D01*
X65527Y29083D01*
X65522Y29061D01*
X65516Y29055D01*
X65438Y28949D01*
X65399Y28905D01*
X65361Y28866D01*
X65327Y28833D01*
X65300Y28811D01*
X65283Y28794D01*
X65277Y28789D01*
X65166Y28711D01*
X65111Y28678D01*
X65061Y28655D01*
X65017Y28633D01*
X64983Y28617D01*
X64961Y28605D01*
X64956Y28600D01*
X64828Y28544D01*
X64767Y28522D01*
X64711Y28506D01*
X64667Y28489D01*
X64634Y28478D01*
X64611Y28467D01*
X64606D01*
X64517Y28439D01*
X64439Y28406D01*
X64406Y28394D01*
X64384Y28389D01*
X64367Y28378D01*
X64362D01*
X64273Y28339D01*
X64234Y28322D01*
X64195Y28306D01*
X64167Y28289D01*
X64145Y28272D01*
X64134Y28267D01*
X64129Y28261D01*
X64056Y28206D01*
X64001Y28150D01*
X63984Y28128D01*
X63968Y28106D01*
X63962Y28095D01*
X63956Y28089D01*
X63934Y28051D01*
X63912Y28012D01*
X63895Y27928D01*
X63890Y27895D01*
X63884Y27867D01*
Y27851D01*
Y27845D01*
Y27795D01*
X63895Y27751D01*
X63901Y27712D01*
X63912Y27679D01*
X63923Y27651D01*
X63934Y27629D01*
X63940Y27617D01*
X63945Y27612D01*
X63990Y27545D01*
X64040Y27495D01*
X64062Y27479D01*
X64079Y27462D01*
X64090Y27457D01*
X64095Y27451D01*
X64162Y27412D01*
X64228Y27379D01*
X64256Y27373D01*
X64278Y27362D01*
X64295Y27357D01*
X64301D01*
X64384Y27340D01*
X64461Y27334D01*
X64489Y27329D01*
X64534D01*
X64645Y27334D01*
X64689Y27340D01*
X64733Y27351D01*
X64767Y27357D01*
X64794Y27362D01*
X64811Y27368D01*
X64817D01*
X64906Y27407D01*
X64944Y27429D01*
X64978Y27446D01*
X65005Y27462D01*
X65028Y27479D01*
X65039Y27484D01*
X65044Y27490D01*
X65111Y27556D01*
X65155Y27623D01*
X65178Y27651D01*
X65189Y27673D01*
X65194Y27684D01*
X65200Y27690D01*
X65238Y27779D01*
X65266Y27867D01*
X65272Y27901D01*
X65277Y27928D01*
X65283Y27951D01*
Y27956D01*
X65699D01*
X65694Y27873D01*
X65683Y27795D01*
X65666Y27729D01*
X65644Y27667D01*
X65627Y27617D01*
X65610Y27579D01*
X65599Y27556D01*
X65594Y27545D01*
X65549Y27479D01*
X65505Y27423D01*
X65460Y27373D01*
X65422Y27329D01*
X65383Y27290D01*
X65355Y27262D01*
X65333Y27246D01*
X65327Y27240D01*
X65200Y27157D01*
X65139Y27129D01*
X65083Y27101D01*
X65033Y27079D01*
X64994Y27062D01*
X64972Y27057D01*
X64961Y27051D01*
X64883Y27029D01*
X64806Y27013D01*
X64733Y27002D01*
X64667Y26996D01*
X64611Y26990D01*
X64573Y26985D01*
X64534D01*
X64395Y26990D01*
X64328Y27002D01*
X64273Y27013D01*
X64223Y27018D01*
X64184Y27029D01*
X64162Y27035D01*
X64151D01*
X64079Y27057D01*
X64017Y27085D01*
X63956Y27112D01*
X63907Y27135D01*
X63862Y27157D01*
X63834Y27179D01*
X63812Y27190D01*
X63807Y27196D01*
X63751Y27240D01*
X63701Y27285D01*
X63657Y27329D01*
X63623Y27373D01*
X63596Y27412D01*
X63573Y27440D01*
X63562Y27462D01*
X63557Y27468D01*
X63524Y27529D01*
X63501Y27595D01*
X63479Y27656D01*
X63468Y27718D01*
X63463Y27767D01*
X63457Y27806D01*
Y27834D01*
Y27845D01*
X63463Y27945D01*
X63468Y27989D01*
X63479Y28028D01*
X63485Y28062D01*
X63496Y28084D01*
X63501Y28100D01*
Y28106D01*
X63535Y28195D01*
X63551Y28228D01*
X63573Y28261D01*
X63585Y28289D01*
X63601Y28311D01*
X63607Y28322D01*
X63612Y28328D01*
X63668Y28400D01*
X63723Y28456D01*
X63751Y28478D01*
X63768Y28495D01*
X63779Y28500D01*
X63784Y28506D01*
X63857Y28561D01*
X63923Y28605D01*
X63951Y28622D01*
X63973Y28633D01*
X63990Y28644D01*
X63995D01*
X64079Y28689D01*
X64151Y28722D01*
X64184Y28733D01*
X64206Y28744D01*
X64223Y28750D01*
X64228D01*
X64317Y28783D01*
X64362Y28800D01*
X64395Y28811D01*
X64428Y28822D01*
X64450Y28833D01*
X64467Y28839D01*
X64473D01*
X64556Y28866D01*
X64628Y28888D01*
X64661Y28900D01*
X64684Y28911D01*
X64700Y28916D01*
X64706D01*
X64794Y28955D01*
X64833Y28972D01*
X64867Y28988D01*
X64894Y29005D01*
X64917Y29016D01*
X64928Y29027D01*
X64933D01*
X65005Y29083D01*
X65061Y29133D01*
X65083Y29155D01*
X65100Y29172D01*
X65105Y29183D01*
X65111Y29188D01*
X65133Y29227D01*
X65150Y29266D01*
X65166Y29344D01*
X65172Y29377D01*
X65178Y29405D01*
Y29421D01*
Y29427D01*
X65172Y29516D01*
X65161Y29555D01*
X65150Y29588D01*
X65144Y29616D01*
X65133Y29638D01*
X65127Y29649D01*
Y29654D01*
X65083Y29721D01*
X65039Y29776D01*
X65000Y29810D01*
X64994Y29815D01*
X64989Y29821D01*
X64922Y29865D01*
X64856Y29899D01*
X64828Y29910D01*
X64806Y29915D01*
X64794Y29921D01*
X64789D01*
X64706Y29943D01*
X64628Y29949D01*
X64600Y29954D01*
X64556D01*
X64456Y29949D01*
X64412Y29937D01*
X64373Y29932D01*
X64339Y29921D01*
X64317Y29910D01*
X64301Y29904D01*
X64295D01*
X64212Y29865D01*
X64151Y29826D01*
X64129Y29804D01*
X64112Y29793D01*
X64101Y29782D01*
X64095Y29776D01*
X64034Y29715D01*
X63990Y29649D01*
X63979Y29621D01*
X63968Y29605D01*
X63956Y29588D01*
Y29582D01*
X63923Y29493D01*
X63907Y29410D01*
X63895Y29377D01*
Y29349D01*
X63890Y29333D01*
Y29327D01*
X63468D01*
X63474Y29410D01*
X63485Y29482D01*
X63496Y29549D01*
X63512Y29610D01*
X63535Y29660D01*
X63546Y29693D01*
X63557Y29721D01*
X63562Y29726D01*
X63596Y29793D01*
X63640Y29854D01*
X63679Y29904D01*
X63718Y29949D01*
X63751Y29987D01*
X63779Y30015D01*
X63801Y30032D01*
X63807Y30037D01*
X63862Y30082D01*
X63923Y30121D01*
X63979Y30154D01*
X64034Y30182D01*
X64079Y30204D01*
X64117Y30220D01*
X64140Y30226D01*
X64151Y30232D01*
X64223Y30254D01*
X64295Y30276D01*
X64362Y30287D01*
X64428Y30293D01*
X64478Y30298D01*
X64517Y30304D01*
X64628D01*
X64695Y30293D01*
D02*
G37*
G36*
X54721Y26696D02*
X52684D01*
Y27029D01*
X54721D01*
Y26696D01*
D02*
G37*
G36*
X43821D02*
X41784D01*
Y27029D01*
X43821D01*
Y26696D01*
D02*
G37*
G36*
X38340Y21029D02*
X37930D01*
X37919Y23444D01*
X36664Y21029D01*
X36248D01*
Y24259D01*
X36664D01*
X36670Y21845D01*
X37924Y24259D01*
X38340D01*
Y21029D01*
D02*
G37*
G36*
X64731D02*
X64376D01*
X63354Y24259D01*
X63793D01*
X64559Y21690D01*
X65314Y24259D01*
X65752D01*
X64731Y21029D01*
D02*
G37*
G36*
X60152Y22067D02*
X60146Y21984D01*
X60141Y21906D01*
X60130Y21834D01*
X60113Y21773D01*
X60097Y21723D01*
X60085Y21679D01*
X60080Y21656D01*
X60074Y21645D01*
X60041Y21573D01*
X60008Y21507D01*
X59969Y21445D01*
X59935Y21396D01*
X59908Y21351D01*
X59880Y21323D01*
X59863Y21301D01*
X59858Y21296D01*
X59802Y21246D01*
X59747Y21201D01*
X59691Y21162D01*
X59641Y21129D01*
X59591Y21101D01*
X59558Y21085D01*
X59536Y21074D01*
X59525Y21068D01*
X59453Y21040D01*
X59375Y21018D01*
X59303Y21007D01*
X59236Y20996D01*
X59181Y20990D01*
X59136Y20985D01*
X59097D01*
X59014Y20990D01*
X58931Y20996D01*
X58859Y21013D01*
X58798Y21029D01*
X58748Y21040D01*
X58709Y21057D01*
X58687Y21062D01*
X58676Y21068D01*
X58604Y21101D01*
X58542Y21140D01*
X58487Y21179D01*
X58437Y21212D01*
X58398Y21246D01*
X58365Y21273D01*
X58348Y21290D01*
X58343Y21296D01*
X58293Y21351D01*
X58248Y21412D01*
X58210Y21473D01*
X58176Y21529D01*
X58154Y21573D01*
X58137Y21612D01*
X58126Y21634D01*
X58121Y21645D01*
X58093Y21723D01*
X58076Y21795D01*
X58060Y21867D01*
X58054Y21934D01*
X58048Y21984D01*
X58043Y22028D01*
Y22056D01*
Y22067D01*
Y24259D01*
X58443D01*
X58448Y22067D01*
X58459Y21962D01*
X58465Y21917D01*
X58476Y21873D01*
X58481Y21839D01*
X58492Y21812D01*
X58498Y21795D01*
Y21790D01*
X58531Y21695D01*
X58553Y21656D01*
X58576Y21623D01*
X58592Y21590D01*
X58609Y21568D01*
X58615Y21556D01*
X58620Y21551D01*
X58681Y21484D01*
X58748Y21434D01*
X58776Y21412D01*
X58798Y21401D01*
X58814Y21396D01*
X58820Y21390D01*
X58864Y21368D01*
X58914Y21357D01*
X58959Y21346D01*
X59003Y21335D01*
X59042D01*
X59070Y21329D01*
X59097D01*
X59153Y21335D01*
X59209Y21340D01*
X59253Y21351D01*
X59292Y21362D01*
X59331Y21373D01*
X59353Y21379D01*
X59369Y21390D01*
X59375D01*
X59458Y21445D01*
X59491Y21473D01*
X59525Y21501D01*
X59547Y21523D01*
X59564Y21540D01*
X59575Y21551D01*
X59580Y21556D01*
X59630Y21634D01*
X59669Y21712D01*
X59686Y21740D01*
X59691Y21767D01*
X59702Y21784D01*
Y21790D01*
X59730Y21890D01*
X59736Y21934D01*
X59741Y21978D01*
X59747Y22017D01*
Y22045D01*
Y22061D01*
Y22067D01*
X59758Y24259D01*
X60146D01*
X60152Y22067D01*
D02*
G37*
G36*
X62805Y21029D02*
X61767D01*
X61689Y21035D01*
X61617Y21040D01*
X61550Y21051D01*
X61489Y21062D01*
X61440Y21074D01*
X61401Y21079D01*
X61379Y21090D01*
X61367D01*
X61295Y21118D01*
X61234Y21146D01*
X61173Y21174D01*
X61123Y21201D01*
X61084Y21229D01*
X61057Y21251D01*
X61034Y21262D01*
X61029Y21268D01*
X60973Y21312D01*
X60929Y21362D01*
X60885Y21412D01*
X60851Y21457D01*
X60824Y21495D01*
X60807Y21529D01*
X60796Y21551D01*
X60790Y21556D01*
X60763Y21623D01*
X60740Y21695D01*
X60724Y21762D01*
X60712Y21823D01*
X60707Y21878D01*
X60701Y21917D01*
Y21945D01*
Y21956D01*
X60707Y22061D01*
X60712Y22106D01*
X60724Y22145D01*
X60729Y22178D01*
X60740Y22200D01*
X60746Y22217D01*
Y22222D01*
X60785Y22311D01*
X60801Y22350D01*
X60824Y22383D01*
X60840Y22411D01*
X60857Y22433D01*
X60862Y22445D01*
X60868Y22450D01*
X60929Y22517D01*
X60990Y22572D01*
X61012Y22589D01*
X61034Y22605D01*
X61045Y22611D01*
X61051Y22617D01*
X61134Y22667D01*
X61212Y22700D01*
X61240Y22711D01*
X61268Y22722D01*
X61284Y22727D01*
X61290D01*
X61212Y22761D01*
X61151Y22800D01*
X61129Y22811D01*
X61112Y22822D01*
X61101Y22833D01*
X61095D01*
X61029Y22883D01*
X60979Y22927D01*
X60946Y22966D01*
X60940Y22972D01*
X60935Y22977D01*
X60890Y23044D01*
X60857Y23105D01*
X60846Y23127D01*
X60835Y23149D01*
X60829Y23160D01*
Y23166D01*
X60807Y23249D01*
X60796Y23321D01*
X60790Y23355D01*
Y23377D01*
Y23393D01*
Y23399D01*
Y23477D01*
X60801Y23554D01*
X60812Y23616D01*
X60829Y23677D01*
X60846Y23721D01*
X60857Y23754D01*
X60868Y23776D01*
X60874Y23782D01*
X60907Y23843D01*
X60946Y23893D01*
X60990Y23937D01*
X61023Y23976D01*
X61062Y24010D01*
X61084Y24032D01*
X61107Y24043D01*
X61112Y24048D01*
X61229Y24115D01*
X61284Y24143D01*
X61340Y24165D01*
X61384Y24182D01*
X61423Y24193D01*
X61445Y24204D01*
X61456D01*
X61595Y24232D01*
X61661Y24243D01*
X61723Y24248D01*
X61773Y24254D01*
X61811Y24259D01*
X62805D01*
Y21029D01*
D02*
G37*
G36*
X51860D02*
X51444D01*
Y22456D01*
X50101D01*
Y22800D01*
X51444D01*
Y23910D01*
X49879D01*
Y24259D01*
X51860D01*
Y21029D01*
D02*
G37*
G36*
X49157D02*
X47170D01*
Y21373D01*
X48747D01*
Y22522D01*
X47398D01*
Y22866D01*
X48747D01*
Y23910D01*
X47193D01*
Y24259D01*
X49157D01*
Y21029D01*
D02*
G37*
G36*
X46665Y23910D02*
X45666D01*
Y21029D01*
X45267D01*
Y23910D01*
X44268D01*
Y24259D01*
X46665D01*
Y23910D01*
D02*
G37*
G36*
X40982Y21029D02*
X38995D01*
Y21373D01*
X40572D01*
Y22522D01*
X39223D01*
Y22866D01*
X40572D01*
Y23910D01*
X39018D01*
Y24259D01*
X40982D01*
Y21029D01*
D02*
G37*
G36*
X56467Y24293D02*
X56528Y24287D01*
X56589Y24276D01*
X56633Y24265D01*
X56672Y24254D01*
X56694Y24248D01*
X56705Y24243D01*
X56772Y24220D01*
X56839Y24193D01*
X56894Y24165D01*
X56944Y24137D01*
X56989Y24110D01*
X57016Y24087D01*
X57038Y24076D01*
X57044Y24071D01*
X57099Y24026D01*
X57144Y23982D01*
X57188Y23932D01*
X57222Y23893D01*
X57249Y23854D01*
X57271Y23821D01*
X57283Y23799D01*
X57288Y23793D01*
X57316Y23732D01*
X57338Y23665D01*
X57355Y23604D01*
X57366Y23549D01*
X57371Y23499D01*
X57377Y23455D01*
Y23432D01*
Y23421D01*
X57371Y23344D01*
X57360Y23277D01*
X57349Y23210D01*
X57333Y23160D01*
X57316Y23116D01*
X57299Y23083D01*
X57294Y23061D01*
X57288Y23055D01*
X57210Y22950D01*
X57172Y22905D01*
X57133Y22866D01*
X57099Y22833D01*
X57072Y22811D01*
X57055Y22794D01*
X57050Y22789D01*
X56938Y22711D01*
X56883Y22678D01*
X56833Y22655D01*
X56789Y22633D01*
X56755Y22617D01*
X56733Y22605D01*
X56728Y22600D01*
X56600Y22544D01*
X56539Y22522D01*
X56483Y22505D01*
X56439Y22489D01*
X56406Y22478D01*
X56384Y22467D01*
X56378D01*
X56289Y22439D01*
X56212Y22406D01*
X56178Y22395D01*
X56156Y22389D01*
X56139Y22378D01*
X56134D01*
X56045Y22339D01*
X56006Y22322D01*
X55967Y22306D01*
X55940Y22289D01*
X55917Y22273D01*
X55906Y22267D01*
X55901Y22261D01*
X55828Y22206D01*
X55773Y22150D01*
X55756Y22128D01*
X55740Y22106D01*
X55734Y22095D01*
X55729Y22089D01*
X55706Y22050D01*
X55684Y22012D01*
X55668Y21928D01*
X55662Y21895D01*
X55656Y21867D01*
Y21851D01*
Y21845D01*
Y21795D01*
X55668Y21751D01*
X55673Y21712D01*
X55684Y21679D01*
X55695Y21651D01*
X55706Y21629D01*
X55712Y21618D01*
X55717Y21612D01*
X55762Y21545D01*
X55812Y21495D01*
X55834Y21479D01*
X55851Y21462D01*
X55862Y21457D01*
X55867Y21451D01*
X55934Y21412D01*
X56001Y21379D01*
X56028Y21373D01*
X56050Y21362D01*
X56067Y21357D01*
X56073D01*
X56156Y21340D01*
X56234Y21335D01*
X56261Y21329D01*
X56306D01*
X56417Y21335D01*
X56461Y21340D01*
X56506Y21351D01*
X56539Y21357D01*
X56567Y21362D01*
X56583Y21368D01*
X56589D01*
X56678Y21407D01*
X56717Y21429D01*
X56750Y21445D01*
X56778Y21462D01*
X56800Y21479D01*
X56811Y21484D01*
X56816Y21490D01*
X56883Y21556D01*
X56927Y21623D01*
X56950Y21651D01*
X56961Y21673D01*
X56966Y21684D01*
X56972Y21690D01*
X57011Y21779D01*
X57038Y21867D01*
X57044Y21901D01*
X57050Y21928D01*
X57055Y21951D01*
Y21956D01*
X57471D01*
X57466Y21873D01*
X57455Y21795D01*
X57438Y21729D01*
X57416Y21667D01*
X57399Y21618D01*
X57383Y21579D01*
X57371Y21556D01*
X57366Y21545D01*
X57322Y21479D01*
X57277Y21423D01*
X57233Y21373D01*
X57194Y21329D01*
X57155Y21290D01*
X57127Y21262D01*
X57105Y21246D01*
X57099Y21240D01*
X56972Y21157D01*
X56911Y21129D01*
X56855Y21101D01*
X56805Y21079D01*
X56766Y21062D01*
X56744Y21057D01*
X56733Y21051D01*
X56655Y21029D01*
X56578Y21013D01*
X56506Y21001D01*
X56439Y20996D01*
X56384Y20990D01*
X56345Y20985D01*
X56306D01*
X56167Y20990D01*
X56100Y21001D01*
X56045Y21013D01*
X55995Y21018D01*
X55956Y21029D01*
X55934Y21035D01*
X55923D01*
X55851Y21057D01*
X55790Y21085D01*
X55729Y21113D01*
X55679Y21135D01*
X55634Y21157D01*
X55607Y21179D01*
X55584Y21190D01*
X55579Y21196D01*
X55523Y21240D01*
X55473Y21284D01*
X55429Y21329D01*
X55396Y21373D01*
X55368Y21412D01*
X55346Y21440D01*
X55335Y21462D01*
X55329Y21468D01*
X55296Y21529D01*
X55273Y21595D01*
X55251Y21656D01*
X55240Y21717D01*
X55235Y21767D01*
X55229Y21806D01*
Y21834D01*
Y21845D01*
X55235Y21945D01*
X55240Y21989D01*
X55251Y22028D01*
X55257Y22061D01*
X55268Y22084D01*
X55273Y22100D01*
Y22106D01*
X55307Y22195D01*
X55323Y22228D01*
X55346Y22261D01*
X55357Y22289D01*
X55373Y22311D01*
X55379Y22322D01*
X55384Y22328D01*
X55440Y22400D01*
X55496Y22456D01*
X55523Y22478D01*
X55540Y22494D01*
X55551Y22500D01*
X55557Y22505D01*
X55629Y22561D01*
X55695Y22605D01*
X55723Y22622D01*
X55745Y22633D01*
X55762Y22644D01*
X55767D01*
X55851Y22689D01*
X55923Y22722D01*
X55956Y22733D01*
X55978Y22744D01*
X55995Y22750D01*
X56001D01*
X56089Y22783D01*
X56134Y22800D01*
X56167Y22811D01*
X56200Y22822D01*
X56223Y22833D01*
X56239Y22839D01*
X56245D01*
X56328Y22866D01*
X56400Y22888D01*
X56433Y22900D01*
X56456Y22911D01*
X56472Y22916D01*
X56478D01*
X56567Y22955D01*
X56605Y22972D01*
X56639Y22988D01*
X56666Y23005D01*
X56689Y23016D01*
X56700Y23027D01*
X56705D01*
X56778Y23083D01*
X56833Y23133D01*
X56855Y23155D01*
X56872Y23171D01*
X56877Y23183D01*
X56883Y23188D01*
X56905Y23227D01*
X56922Y23266D01*
X56938Y23344D01*
X56944Y23377D01*
X56950Y23405D01*
Y23421D01*
Y23427D01*
X56944Y23516D01*
X56933Y23554D01*
X56922Y23588D01*
X56916Y23616D01*
X56905Y23638D01*
X56900Y23649D01*
Y23654D01*
X56855Y23721D01*
X56811Y23776D01*
X56772Y23810D01*
X56766Y23815D01*
X56761Y23821D01*
X56694Y23865D01*
X56628Y23899D01*
X56600Y23910D01*
X56578Y23915D01*
X56567Y23921D01*
X56561D01*
X56478Y23943D01*
X56400Y23949D01*
X56372Y23954D01*
X56328D01*
X56228Y23949D01*
X56184Y23937D01*
X56145Y23932D01*
X56112Y23921D01*
X56089Y23910D01*
X56073Y23904D01*
X56067D01*
X55984Y23865D01*
X55923Y23826D01*
X55901Y23804D01*
X55884Y23793D01*
X55873Y23782D01*
X55867Y23776D01*
X55806Y23716D01*
X55762Y23649D01*
X55751Y23621D01*
X55740Y23604D01*
X55729Y23588D01*
Y23582D01*
X55695Y23494D01*
X55679Y23410D01*
X55668Y23377D01*
Y23349D01*
X55662Y23333D01*
Y23327D01*
X55240D01*
X55246Y23410D01*
X55257Y23482D01*
X55268Y23549D01*
X55285Y23610D01*
X55307Y23660D01*
X55318Y23693D01*
X55329Y23721D01*
X55335Y23727D01*
X55368Y23793D01*
X55412Y23854D01*
X55451Y23904D01*
X55490Y23949D01*
X55523Y23987D01*
X55551Y24015D01*
X55573Y24032D01*
X55579Y24037D01*
X55634Y24082D01*
X55695Y24121D01*
X55751Y24154D01*
X55806Y24182D01*
X55851Y24204D01*
X55889Y24220D01*
X55912Y24226D01*
X55923Y24232D01*
X55995Y24254D01*
X56067Y24276D01*
X56134Y24287D01*
X56200Y24293D01*
X56250Y24298D01*
X56289Y24304D01*
X56400D01*
X56467Y24293D01*
D02*
G37*
G36*
X54669Y20696D02*
X52632D01*
Y21029D01*
X54669D01*
Y20696D01*
D02*
G37*
G36*
X43768D02*
X41732D01*
Y21029D01*
X43768D01*
Y20696D01*
D02*
G37*
%LPC*%
G36*
X96719Y30120D02*
X94022D01*
Y30043D01*
X93406D01*
Y29966D01*
X93021D01*
Y29889D01*
X92635D01*
Y29812D01*
X92404D01*
Y29735D01*
X92096D01*
Y29658D01*
X91788D01*
Y29580D01*
X91557D01*
Y29503D01*
X91325D01*
Y29426D01*
X91171D01*
Y29349D01*
X90940D01*
Y29272D01*
X90709D01*
Y29195D01*
X90555D01*
Y29118D01*
X90324D01*
Y29041D01*
X90170D01*
Y28964D01*
X90016D01*
Y28887D01*
X89862D01*
Y28810D01*
X89707D01*
Y28733D01*
X89476D01*
Y28656D01*
X89399D01*
Y28579D01*
X89245D01*
Y28502D01*
X89091D01*
Y28425D01*
X88937D01*
Y28348D01*
X88860D01*
Y28271D01*
X88706D01*
Y28194D01*
X88552D01*
Y28116D01*
X88398D01*
Y28039D01*
X88320D01*
Y27962D01*
X88166D01*
Y27885D01*
X88089D01*
Y27808D01*
X87935D01*
Y27731D01*
X87858D01*
Y27654D01*
X87704D01*
Y27577D01*
X87627D01*
Y27500D01*
X87550D01*
Y27423D01*
X87473D01*
Y27346D01*
X87319D01*
Y27269D01*
X87242D01*
Y27192D01*
X87165D01*
Y27115D01*
X87011D01*
Y27038D01*
X86933D01*
Y26961D01*
X86856D01*
Y26884D01*
X86779D01*
Y26807D01*
X86702D01*
Y26730D01*
X86625D01*
Y26652D01*
X86548D01*
Y26575D01*
X86471D01*
Y26498D01*
X86394D01*
Y26421D01*
X86317D01*
Y26344D01*
X86240D01*
Y26267D01*
X86163D01*
Y26190D01*
Y26113D01*
X86086D01*
Y26036D01*
X86009D01*
Y25959D01*
X85932D01*
Y25882D01*
Y25805D01*
X85855D01*
Y25728D01*
X85778D01*
Y25651D01*
Y25574D01*
X85701D01*
Y25497D01*
Y25420D01*
X85624D01*
Y25343D01*
X85546D01*
Y25265D01*
X85315D01*
Y25188D01*
X85161D01*
Y25111D01*
X84853D01*
Y25034D01*
X84699D01*
Y24957D01*
X84468D01*
Y24880D01*
X84237D01*
Y24803D01*
X84083D01*
Y24726D01*
X83851D01*
Y24649D01*
X83697D01*
Y24572D01*
X83466D01*
Y24495D01*
X83312D01*
Y24418D01*
X83081D01*
Y24341D01*
X82927D01*
Y24264D01*
X82773D01*
Y24187D01*
X82618D01*
Y24110D01*
X82464D01*
Y24033D01*
X82233D01*
Y23956D01*
X82079D01*
Y23878D01*
X81925D01*
Y23801D01*
X81771D01*
Y23724D01*
X81694D01*
Y23647D01*
X81540D01*
Y23570D01*
X81386D01*
Y23493D01*
X81231D01*
Y23416D01*
X81077D01*
Y23339D01*
X81000D01*
Y23262D01*
X80846D01*
Y23185D01*
X80769D01*
Y23108D01*
X80615D01*
Y23031D01*
X80538D01*
Y22954D01*
X80461D01*
Y22877D01*
X80307D01*
Y22800D01*
X80230D01*
Y22723D01*
X80153D01*
Y22646D01*
X80076D01*
Y22569D01*
X79999D01*
Y22491D01*
X79922D01*
Y22414D01*
X79844D01*
Y22337D01*
X79768D01*
Y22260D01*
X79690D01*
Y22183D01*
X79613D01*
Y22106D01*
X79536D01*
Y22029D01*
X79459D01*
Y21952D01*
Y21875D01*
X79382D01*
Y21798D01*
X79305D01*
Y21721D01*
Y21644D01*
X79228D01*
Y21567D01*
Y21490D01*
X79151D01*
Y21413D01*
Y21336D01*
X79074D01*
Y21259D01*
Y21182D01*
X78997D01*
Y21104D01*
Y21027D01*
Y20950D01*
Y20873D01*
X78920D01*
Y20796D01*
Y20719D01*
Y20642D01*
Y20565D01*
Y20488D01*
Y20411D01*
X78843D01*
Y20334D01*
Y20257D01*
Y20180D01*
Y20103D01*
Y20026D01*
Y19949D01*
Y19872D01*
X78920D01*
Y19795D01*
Y19718D01*
Y19640D01*
Y19564D01*
Y19486D01*
Y19409D01*
Y19332D01*
X78997D01*
Y19255D01*
Y19178D01*
Y19101D01*
Y19024D01*
Y18947D01*
X79074D01*
Y18870D01*
Y18793D01*
Y18716D01*
X78997D01*
Y18639D01*
X78843D01*
Y18562D01*
X78766D01*
Y18485D01*
X78689D01*
Y18408D01*
X78612D01*
Y18331D01*
X78458D01*
Y18253D01*
X78381D01*
Y18177D01*
X78303D01*
Y18099D01*
X78226D01*
Y18022D01*
X78149D01*
Y17945D01*
X78072D01*
Y17868D01*
X77995D01*
Y17791D01*
X77918D01*
Y17714D01*
X77841D01*
Y17637D01*
X77764D01*
Y17560D01*
X77687D01*
Y17483D01*
X77610D01*
Y17406D01*
Y17329D01*
X77533D01*
Y17252D01*
X77456D01*
Y17175D01*
X77379D01*
Y17098D01*
X77302D01*
Y17021D01*
Y16944D01*
X77225D01*
Y16867D01*
X77148D01*
Y16790D01*
X77071D01*
Y16713D01*
Y16635D01*
X76994D01*
Y16558D01*
X76916D01*
Y16481D01*
Y16404D01*
X76839D01*
Y16327D01*
X76762D01*
Y16250D01*
Y16173D01*
X76685D01*
Y16096D01*
Y16019D01*
X76608D01*
Y15942D01*
Y15865D01*
X76531D01*
Y15788D01*
Y15711D01*
X76454D01*
Y15634D01*
X76377D01*
Y15557D01*
Y15480D01*
Y15403D01*
X76300D01*
Y15326D01*
Y15248D01*
X76223D01*
Y15171D01*
Y15094D01*
Y15017D01*
X76146D01*
Y14940D01*
Y14863D01*
X76069D01*
Y14786D01*
Y14709D01*
Y14632D01*
X75992D01*
Y14555D01*
Y14478D01*
Y14401D01*
X75915D01*
Y14324D01*
Y14247D01*
Y14170D01*
X75838D01*
Y14093D01*
Y14016D01*
Y13939D01*
Y13861D01*
X75761D01*
Y13784D01*
Y13707D01*
Y13630D01*
Y13553D01*
X75684D01*
Y13476D01*
Y13399D01*
Y13322D01*
Y13245D01*
Y13168D01*
Y13091D01*
X75607D01*
Y13014D01*
Y12937D01*
Y12860D01*
Y12783D01*
Y12706D01*
Y12629D01*
Y12552D01*
Y12474D01*
Y12398D01*
Y12320D01*
Y12243D01*
Y12166D01*
Y12089D01*
Y12012D01*
Y11935D01*
Y11858D01*
Y11781D01*
Y11704D01*
Y11627D01*
Y11550D01*
Y11473D01*
Y11396D01*
Y11319D01*
Y11242D01*
Y11165D01*
Y11088D01*
Y11011D01*
Y10933D01*
Y10856D01*
Y10779D01*
Y10702D01*
X75684D01*
Y10625D01*
Y10548D01*
Y10471D01*
Y10394D01*
Y10317D01*
X75761D01*
Y10240D01*
Y10163D01*
Y10086D01*
X75838D01*
Y10009D01*
Y9932D01*
Y9855D01*
X75915D01*
Y9778D01*
Y9701D01*
X75992D01*
Y9623D01*
Y9546D01*
X76069D01*
Y9469D01*
X76146D01*
Y9392D01*
X76223D01*
Y9315D01*
X76300D01*
Y9238D01*
X76454D01*
Y9161D01*
X76608D01*
Y9084D01*
X76839D01*
Y9007D01*
X77225D01*
Y8930D01*
X77302D01*
Y9007D01*
X77841D01*
Y9084D01*
X78226D01*
Y9161D01*
X78458D01*
Y9238D01*
X78766D01*
Y9315D01*
X78997D01*
Y9392D01*
X79151D01*
Y9469D01*
X79382D01*
Y9546D01*
X79536D01*
Y9623D01*
X79768D01*
Y9701D01*
X79922D01*
Y9778D01*
X80076D01*
Y9855D01*
X80307D01*
Y9932D01*
X80461D01*
Y10009D01*
X80692D01*
Y10086D01*
X80846D01*
Y10163D01*
X81000D01*
Y10240D01*
X81231D01*
Y10317D01*
X81386D01*
Y10394D01*
X81617D01*
Y10471D01*
X81771D01*
Y10548D01*
X81925D01*
Y10625D01*
X82156D01*
Y10702D01*
X82310D01*
Y10779D01*
X82541D01*
Y10856D01*
X82696D01*
Y10933D01*
X82927D01*
Y11011D01*
X83081D01*
Y11088D01*
X83312D01*
Y11165D01*
X83620D01*
Y11088D01*
X83697D01*
Y11011D01*
X83774D01*
Y10933D01*
X83851D01*
Y10856D01*
X83928D01*
Y10779D01*
Y10702D01*
X84083D01*
Y10625D01*
X84159D01*
Y10548D01*
X84237D01*
Y10471D01*
X84314D01*
Y10394D01*
X84391D01*
Y10317D01*
X84468D01*
Y10240D01*
X84622D01*
Y10163D01*
X84699D01*
Y10086D01*
X84853D01*
Y10009D01*
X85007D01*
Y9932D01*
X85161D01*
Y9855D01*
X85392D01*
Y9778D01*
X85624D01*
Y9701D01*
X87011D01*
Y9778D01*
X87319D01*
Y9855D01*
X87627D01*
Y9932D01*
X87781D01*
Y10009D01*
X88089D01*
Y10086D01*
X88243D01*
Y10163D01*
X88475D01*
Y10240D01*
X88629D01*
Y10317D01*
X88860D01*
Y10394D01*
X89014D01*
Y10471D01*
X89168D01*
Y10548D01*
X89399D01*
Y10625D01*
X89553D01*
Y10702D01*
X89784D01*
Y10779D01*
X89938D01*
Y10856D01*
X90093D01*
Y10933D01*
X90324D01*
Y11011D01*
X90478D01*
Y11088D01*
X90709D01*
Y11165D01*
X90863D01*
Y11088D01*
X91017D01*
Y11011D01*
X91171D01*
Y10933D01*
X91403D01*
Y10856D01*
X91557D01*
Y10779D01*
X91788D01*
Y10702D01*
X92096D01*
Y10625D01*
X92327D01*
Y10548D01*
X92635D01*
Y10471D01*
X92944D01*
Y10394D01*
X93406D01*
Y10317D01*
X93868D01*
Y10240D01*
X95024D01*
Y10163D01*
X95178D01*
Y10240D01*
X96334D01*
Y10317D01*
X96796D01*
Y10394D01*
X97182D01*
Y10471D01*
X97490D01*
Y10548D01*
X97798D01*
Y10625D01*
X97952D01*
Y10702D01*
X98183D01*
Y10779D01*
X98414D01*
Y10856D01*
X98569D01*
Y10933D01*
X98723D01*
Y11011D01*
X98877D01*
Y11088D01*
X99262D01*
Y11011D01*
X99416D01*
Y10933D01*
X99647D01*
Y10856D01*
X99801D01*
Y10779D01*
X99955D01*
Y10702D01*
X100187D01*
Y10625D01*
X100341D01*
Y10548D01*
X100572D01*
Y10471D01*
X100726D01*
Y10394D01*
X100957D01*
Y10317D01*
X101111D01*
Y10240D01*
X101342D01*
Y10163D01*
X101574D01*
Y10086D01*
X101728D01*
Y10009D01*
X101959D01*
Y9932D01*
X102190D01*
Y9855D01*
X102498D01*
Y9778D01*
X102806D01*
Y9701D01*
X103192D01*
Y9623D01*
X104656D01*
Y9701D01*
X104964D01*
Y9778D01*
X105195D01*
Y9855D01*
X105426D01*
Y9932D01*
X105580D01*
Y10009D01*
X105735D01*
Y10086D01*
X105812D01*
Y10163D01*
X105966D01*
Y10240D01*
X106043D01*
Y10317D01*
X106197D01*
Y10394D01*
X106274D01*
Y10471D01*
X106351D01*
Y10548D01*
X106428D01*
Y10625D01*
X106582D01*
Y10702D01*
X106659D01*
Y10779D01*
X106736D01*
Y10856D01*
X106813D01*
Y10933D01*
X106967D01*
Y10856D01*
X107199D01*
Y10779D01*
X107430D01*
Y10702D01*
X107584D01*
Y10625D01*
X107815D01*
Y10548D01*
X107969D01*
Y10471D01*
X108123D01*
Y10394D01*
X108354D01*
Y10317D01*
X108509D01*
Y10240D01*
X108740D01*
Y10163D01*
X108894D01*
Y10086D01*
X109048D01*
Y10009D01*
X109279D01*
Y9932D01*
X109433D01*
Y9855D01*
X109587D01*
Y9778D01*
X109818D01*
Y9701D01*
X109973D01*
Y9623D01*
X110204D01*
Y9546D01*
X110358D01*
Y9469D01*
X110512D01*
Y9392D01*
X110666D01*
Y9315D01*
X110897D01*
Y9238D01*
X111128D01*
Y9161D01*
X111282D01*
Y9084D01*
X111591D01*
Y9007D01*
X111745D01*
Y8930D01*
X112130D01*
Y8853D01*
X113363D01*
Y8930D01*
X113594D01*
Y9007D01*
X113748D01*
Y9084D01*
X113825D01*
Y9161D01*
X113979D01*
Y9238D01*
X114056D01*
Y9315D01*
X114133D01*
Y9392D01*
Y9469D01*
X114210D01*
Y9546D01*
X114287D01*
Y9623D01*
Y9701D01*
X114365D01*
Y9778D01*
Y9855D01*
Y9932D01*
X114442D01*
Y10009D01*
Y10086D01*
Y10163D01*
X114519D01*
Y10240D01*
Y10317D01*
Y10394D01*
Y10471D01*
X114596D01*
Y10548D01*
Y10625D01*
Y10702D01*
Y10779D01*
Y10856D01*
X114673D01*
Y10933D01*
Y11011D01*
Y11088D01*
Y11165D01*
Y11242D01*
Y11319D01*
Y11396D01*
Y11473D01*
Y11550D01*
Y11627D01*
Y11704D01*
Y11781D01*
Y11858D01*
Y11935D01*
Y12012D01*
Y12089D01*
Y12166D01*
Y12243D01*
Y12320D01*
Y12398D01*
Y12474D01*
Y12552D01*
Y12629D01*
Y12706D01*
Y12783D01*
Y12860D01*
Y12937D01*
Y13014D01*
X114596D01*
Y13091D01*
Y13168D01*
Y13245D01*
Y13322D01*
Y13399D01*
Y13476D01*
X114519D01*
Y13553D01*
Y13630D01*
Y13707D01*
Y13784D01*
Y13861D01*
X114442D01*
Y13939D01*
Y14016D01*
Y14093D01*
Y14170D01*
X114365D01*
Y14247D01*
Y14324D01*
Y14401D01*
X114287D01*
Y14478D01*
Y14555D01*
Y14632D01*
X114210D01*
Y14709D01*
Y14786D01*
Y14863D01*
X114133D01*
Y14940D01*
Y15017D01*
Y15094D01*
X114056D01*
Y15171D01*
Y15248D01*
X113979D01*
Y15326D01*
Y15403D01*
X113902D01*
Y15480D01*
Y15557D01*
Y15634D01*
X113825D01*
Y15711D01*
X113748D01*
Y15788D01*
Y15865D01*
X113671D01*
Y15942D01*
Y16019D01*
X113594D01*
Y16096D01*
Y16173D01*
X113517D01*
Y16250D01*
Y16327D01*
X113440D01*
Y16404D01*
X113363D01*
Y16481D01*
Y16558D01*
X113286D01*
Y16635D01*
X113209D01*
Y16713D01*
Y16790D01*
X113132D01*
Y16867D01*
X113055D01*
Y16944D01*
X112978D01*
Y17021D01*
Y17098D01*
X112900D01*
Y17175D01*
X112823D01*
Y17252D01*
X112746D01*
Y17329D01*
X112669D01*
Y17406D01*
X112592D01*
Y17483D01*
X112515D01*
Y17560D01*
Y17637D01*
X112438D01*
Y17714D01*
X112361D01*
Y17791D01*
X112284D01*
Y17868D01*
X112207D01*
Y17945D01*
X112053D01*
Y18022D01*
X111976D01*
Y18099D01*
X111899D01*
Y18177D01*
X111822D01*
Y18253D01*
X111745D01*
Y18331D01*
X111668D01*
Y18408D01*
X111514D01*
Y18485D01*
X111436D01*
Y18562D01*
Y18639D01*
X111514D01*
Y18716D01*
Y18793D01*
X111591D01*
Y18870D01*
Y18947D01*
Y19024D01*
X111668D01*
Y19101D01*
Y19178D01*
Y19255D01*
X111745D01*
Y19332D01*
Y19409D01*
Y19486D01*
X111822D01*
Y19564D01*
Y19640D01*
Y19718D01*
Y19795D01*
Y19872D01*
Y19949D01*
X111899D01*
Y20026D01*
Y20103D01*
Y20180D01*
Y20257D01*
Y20334D01*
Y20411D01*
X111822D01*
Y20488D01*
Y20565D01*
Y20642D01*
Y20719D01*
Y20796D01*
X111745D01*
Y20873D01*
Y20950D01*
Y21027D01*
X111668D01*
Y21104D01*
Y21182D01*
X111591D01*
Y21259D01*
Y21336D01*
X111514D01*
Y21413D01*
Y21490D01*
X111436D01*
Y21567D01*
X111360D01*
Y21644D01*
Y21721D01*
X111282D01*
Y21798D01*
X111205D01*
Y21875D01*
X111128D01*
Y21952D01*
X111051D01*
Y22029D01*
X110974D01*
Y22106D01*
X110897D01*
Y22183D01*
X110820D01*
Y22260D01*
X110743D01*
Y22337D01*
X110589D01*
Y22414D01*
X110512D01*
Y22491D01*
X110435D01*
Y22569D01*
X110281D01*
Y22646D01*
X110204D01*
Y22723D01*
X110049D01*
Y22800D01*
X109973D01*
Y22877D01*
X109818D01*
Y22954D01*
X109741D01*
Y23031D01*
X109587D01*
Y23108D01*
X109433D01*
Y23185D01*
X109279D01*
Y23262D01*
X109125D01*
Y23339D01*
X108971D01*
Y23416D01*
X108817D01*
Y23493D01*
X108663D01*
Y23570D01*
X108509D01*
Y23647D01*
X108354D01*
Y23724D01*
X108200D01*
Y23801D01*
X108046D01*
Y23878D01*
X107892D01*
Y23956D01*
X107738D01*
Y24033D01*
X107507D01*
Y24110D01*
X107353D01*
Y24187D01*
X107199D01*
Y24264D01*
X106967D01*
Y24341D01*
X106813D01*
Y24418D01*
X106582D01*
Y24495D01*
X106428D01*
Y24572D01*
X106197D01*
Y24649D01*
X106043D01*
Y24726D01*
X105812D01*
Y24803D01*
X105657D01*
Y24880D01*
X105503D01*
Y24957D01*
X105349D01*
Y25034D01*
Y25111D01*
Y25188D01*
X105272D01*
Y25265D01*
Y25343D01*
Y25420D01*
X105195D01*
Y25497D01*
Y25574D01*
X105118D01*
Y25651D01*
Y25728D01*
X105041D01*
Y25805D01*
Y25882D01*
X104964D01*
Y25959D01*
X104887D01*
Y26036D01*
Y26113D01*
X104810D01*
Y26190D01*
X104733D01*
Y26267D01*
Y26344D01*
X104656D01*
Y26421D01*
X104579D01*
Y26498D01*
X104502D01*
Y26575D01*
X104425D01*
Y26652D01*
X104348D01*
Y26730D01*
X104271D01*
Y26807D01*
X104193D01*
Y26884D01*
X104116D01*
Y26961D01*
X104039D01*
Y27038D01*
X103962D01*
Y27115D01*
X103885D01*
Y27192D01*
X103808D01*
Y27269D01*
X103654D01*
Y27346D01*
X103577D01*
Y27423D01*
X103500D01*
Y27500D01*
X103346D01*
Y27577D01*
X103269D01*
Y27654D01*
X103192D01*
Y27731D01*
X103038D01*
Y27808D01*
X102961D01*
Y27885D01*
X102806D01*
Y27962D01*
X102729D01*
Y28039D01*
X102575D01*
Y28116D01*
X102421D01*
Y28194D01*
X102267D01*
Y28271D01*
X102190D01*
Y28348D01*
X102036D01*
Y28425D01*
X101882D01*
Y28502D01*
X101728D01*
Y28579D01*
X101574D01*
Y28656D01*
X101420D01*
Y28733D01*
X101265D01*
Y28810D01*
X101111D01*
Y28887D01*
X100957D01*
Y28964D01*
X100726D01*
Y29041D01*
X100572D01*
Y29118D01*
X100341D01*
Y29195D01*
X100187D01*
Y29272D01*
X99955D01*
Y29349D01*
X99724D01*
Y29426D01*
X99570D01*
Y29503D01*
X99262D01*
Y29580D01*
X99031D01*
Y29658D01*
X98723D01*
Y29735D01*
X98414D01*
Y29812D01*
X98106D01*
Y29889D01*
X97721D01*
Y29966D01*
X97336D01*
Y30043D01*
X96719D01*
Y30120D01*
D02*
G37*
G36*
X135447Y47494D02*
X134315D01*
Y46880D01*
X134322Y46754D01*
X134337Y46643D01*
X134359Y46554D01*
X134381Y46473D01*
X134404Y46414D01*
X134426Y46377D01*
X134441Y46347D01*
X134448Y46340D01*
X134507Y46281D01*
X134574Y46236D01*
X134648Y46199D01*
X134714Y46177D01*
X134781Y46162D01*
X134833Y46155D01*
X134870D01*
X134885D01*
X134981Y46162D01*
X135062Y46184D01*
X135136Y46214D01*
X135195Y46251D01*
X135240Y46288D01*
X135269Y46318D01*
X135292Y46340D01*
X135299Y46347D01*
X135343Y46421D01*
X135380Y46510D01*
X135410Y46599D01*
X135425Y46680D01*
X135440Y46762D01*
X135447Y46821D01*
Y47494D01*
D02*
G37*
G36*
X137275D02*
X136046D01*
Y46717D01*
X136054Y46599D01*
X136076Y46495D01*
X136098Y46406D01*
X136128Y46340D01*
X136165Y46281D01*
X136187Y46244D01*
X136209Y46221D01*
X136217Y46214D01*
X136283Y46162D01*
X136357Y46118D01*
X136431Y46096D01*
X136505Y46073D01*
X136572Y46066D01*
X136624Y46059D01*
X136661D01*
X136675D01*
X136772Y46066D01*
X136853Y46088D01*
X136927Y46118D01*
X136986Y46147D01*
X137038Y46177D01*
X137075Y46207D01*
X137097Y46229D01*
X137105Y46236D01*
X137156Y46310D01*
X137201Y46392D01*
X137230Y46480D01*
X137253Y46562D01*
X137260Y46636D01*
X137267Y46695D01*
X137275Y46739D01*
Y47494D01*
D02*
G37*
G36*
Y21668D02*
X134307D01*
Y21394D01*
X134315Y21298D01*
X134322Y21217D01*
X134337Y21135D01*
X134352Y21069D01*
X134374Y21017D01*
X134389Y20980D01*
X134396Y20950D01*
X134404Y20943D01*
X134485Y20810D01*
X134529Y20758D01*
X134574Y20706D01*
X134611Y20669D01*
X134640Y20640D01*
X134663Y20625D01*
X134670Y20617D01*
X134803Y20529D01*
X134877Y20499D01*
X134944Y20469D01*
X134996Y20447D01*
X135040Y20432D01*
X135077Y20418D01*
X135084D01*
X135269Y20381D01*
X135351Y20366D01*
X135432Y20358D01*
X135506Y20351D01*
X135558D01*
X135595D01*
X135610D01*
X135972D01*
X136083D01*
X136187Y20366D01*
X136276Y20373D01*
X136357Y20388D01*
X136424Y20403D01*
X136476Y20410D01*
X136505Y20425D01*
X136520D01*
X136609Y20455D01*
X136690Y20484D01*
X136757Y20514D01*
X136816Y20551D01*
X136868Y20580D01*
X136905Y20603D01*
X136927Y20617D01*
X136934Y20625D01*
X137045Y20728D01*
X137082Y20780D01*
X137119Y20825D01*
X137149Y20869D01*
X137171Y20906D01*
X137179Y20928D01*
X137186Y20936D01*
X137216Y21010D01*
X137238Y21076D01*
X137253Y21150D01*
X137260Y21209D01*
X137267Y21269D01*
X137275Y21313D01*
Y21668D01*
D02*
G37*
G36*
X97869Y65303D02*
X97381D01*
Y64756D01*
X97411Y64711D01*
X97448Y64675D01*
X97470Y64645D01*
X97485Y64630D01*
X97529Y64586D01*
X97581Y64556D01*
X97618Y64526D01*
X97625Y64519D01*
X97633D01*
X97699Y64490D01*
X97758Y64467D01*
X97803Y64452D01*
X97818Y64445D01*
X97825D01*
X97906Y64430D01*
X97980Y64423D01*
X98010Y64416D01*
X98054D01*
X98136Y64423D01*
X98210Y64430D01*
X98269Y64452D01*
X98321Y64475D01*
X98358Y64490D01*
X98387Y64512D01*
X98402Y64519D01*
X98410Y64526D01*
X98447Y64571D01*
X98476Y64615D01*
X98491Y64660D01*
X98506Y64704D01*
X98513Y64741D01*
X98521Y64771D01*
Y64793D01*
Y64800D01*
X98513Y64882D01*
X98498Y64941D01*
X98491Y64985D01*
X98484Y64993D01*
Y65000D01*
X98447Y65067D01*
X98402Y65119D01*
X98373Y65148D01*
X98358Y65163D01*
X98284Y65207D01*
X98210Y65237D01*
X98180Y65252D01*
X98158Y65259D01*
X98143Y65267D01*
X98136D01*
X98025Y65289D01*
X97914Y65296D01*
X97869Y65303D01*
D02*
G37*
G36*
X76069D02*
X75581D01*
Y64756D01*
X75610Y64711D01*
X75647Y64675D01*
X75669Y64645D01*
X75684Y64630D01*
X75729Y64586D01*
X75780Y64556D01*
X75817Y64526D01*
X75825Y64519D01*
X75832D01*
X75899Y64490D01*
X75958Y64467D01*
X76002Y64452D01*
X76017Y64445D01*
X76025D01*
X76106Y64430D01*
X76180Y64423D01*
X76210Y64416D01*
X76254D01*
X76335Y64423D01*
X76409Y64430D01*
X76469Y64452D01*
X76520Y64475D01*
X76557Y64490D01*
X76587Y64512D01*
X76602Y64519D01*
X76609Y64526D01*
X76646Y64571D01*
X76676Y64615D01*
X76691Y64660D01*
X76705Y64704D01*
X76713Y64741D01*
X76720Y64771D01*
Y64793D01*
Y64800D01*
X76713Y64882D01*
X76698Y64941D01*
X76691Y64985D01*
X76683Y64993D01*
Y65000D01*
X76646Y65067D01*
X76602Y65119D01*
X76572Y65148D01*
X76557Y65163D01*
X76483Y65207D01*
X76409Y65237D01*
X76380Y65252D01*
X76358Y65259D01*
X76343Y65267D01*
X76335D01*
X76224Y65289D01*
X76113Y65296D01*
X76069Y65303D01*
D02*
G37*
G36*
X105129Y66436D02*
X105077D01*
X104966Y66428D01*
X104885Y66414D01*
X104848Y66399D01*
X104825Y66391D01*
X104811Y66384D01*
X104803D01*
X104722Y66347D01*
X104655Y66303D01*
X104618Y66266D01*
X104603Y66258D01*
Y66251D01*
X104544Y66184D01*
X104500Y66118D01*
X104485Y66095D01*
X104478Y66073D01*
X104470Y66058D01*
Y66051D01*
X104441Y65970D01*
X104433Y65888D01*
X104426Y65859D01*
Y65829D01*
Y65814D01*
Y65807D01*
Y65748D01*
X105773Y65748D01*
X105743Y65859D01*
X105713Y65947D01*
X105706Y65984D01*
X105691Y66007D01*
X105684Y66021D01*
Y66029D01*
X105632Y66118D01*
X105588Y66184D01*
X105551Y66229D01*
X105536Y66236D01*
Y66243D01*
X105469Y66303D01*
X105403Y66347D01*
X105351Y66377D01*
X105343Y66384D01*
X105336D01*
X105247Y66414D01*
X105158Y66428D01*
X105129Y66436D01*
D02*
G37*
G36*
X83328Y66436D02*
X83277D01*
X83166Y66428D01*
X83084Y66413D01*
X83047Y66399D01*
X83025Y66391D01*
X83010Y66384D01*
X83003D01*
X82921Y66347D01*
X82855Y66303D01*
X82818Y66265D01*
X82803Y66258D01*
Y66251D01*
X82744Y66184D01*
X82699Y66118D01*
X82685Y66095D01*
X82677Y66073D01*
X82670Y66058D01*
Y66051D01*
X82640Y65970D01*
X82633Y65888D01*
X82625Y65859D01*
Y65829D01*
Y65814D01*
Y65807D01*
Y65748D01*
X83972D01*
X83943Y65859D01*
X83913Y65947D01*
X83906Y65984D01*
X83891Y66007D01*
X83883Y66021D01*
Y66029D01*
X83832Y66118D01*
X83787Y66184D01*
X83750Y66228D01*
X83735Y66236D01*
Y66243D01*
X83669Y66303D01*
X83602Y66347D01*
X83550Y66377D01*
X83543Y66384D01*
X83536D01*
X83447Y66413D01*
X83358Y66428D01*
X83328Y66436D01*
D02*
G37*
G36*
X87576Y67479D02*
X87302D01*
X87206Y67472D01*
X87125Y67464D01*
X87043Y67449D01*
X86977Y67435D01*
X86925Y67413D01*
X86888Y67398D01*
X86858Y67390D01*
X86851Y67383D01*
X86718Y67301D01*
X86666Y67257D01*
X86614Y67213D01*
X86577Y67176D01*
X86547Y67146D01*
X86533Y67124D01*
X86525Y67116D01*
X86436Y66983D01*
X86407Y66909D01*
X86377Y66843D01*
X86355Y66791D01*
X86340Y66747D01*
X86325Y66710D01*
Y66702D01*
X86288Y66517D01*
X86274Y66436D01*
X86266Y66354D01*
X86259Y66280D01*
Y66228D01*
Y66192D01*
Y66177D01*
Y65814D01*
Y65703D01*
X86274Y65600D01*
X86281Y65511D01*
X86296Y65429D01*
X86311Y65363D01*
X86318Y65311D01*
X86333Y65281D01*
Y65267D01*
X86362Y65178D01*
X86392Y65096D01*
X86422Y65030D01*
X86459Y64971D01*
X86488Y64919D01*
X86510Y64882D01*
X86525Y64860D01*
X86533Y64852D01*
X86636Y64741D01*
X86688Y64704D01*
X86732Y64667D01*
X86777Y64638D01*
X86814Y64615D01*
X86836Y64608D01*
X86843Y64600D01*
X86917Y64571D01*
X86984Y64549D01*
X87058Y64534D01*
X87117Y64526D01*
X87176Y64519D01*
X87221Y64512D01*
X87576D01*
Y67479D01*
D02*
G37*
G36*
X79717Y62259D02*
X79673D01*
X79577Y62252D01*
X79488Y62230D01*
X79414Y62193D01*
X79355Y62156D01*
X79310Y62111D01*
X79281Y62082D01*
X79258Y62052D01*
X79251Y62045D01*
X79199Y61956D01*
X79162Y61860D01*
X79140Y61756D01*
X79118Y61652D01*
X79103Y61556D01*
X79096Y61482D01*
Y61453D01*
Y61430D01*
Y61416D01*
Y61408D01*
X80243Y60550D01*
Y61356D01*
X80235Y61519D01*
X80220Y61660D01*
X80198Y61771D01*
X80169Y61867D01*
X80146Y61941D01*
X80124Y61993D01*
X80109Y62030D01*
X80102Y62037D01*
X80043Y62111D01*
X79976Y62163D01*
X79902Y62207D01*
X79836Y62230D01*
X79769Y62244D01*
X79717Y62259D01*
D02*
G37*
G36*
X79096Y60846D02*
Y60069D01*
X79103Y59906D01*
X79118Y59765D01*
X79140Y59647D01*
X79162Y59551D01*
X79192Y59477D01*
X79214Y59425D01*
X79229Y59388D01*
X79236Y59381D01*
X79295Y59307D01*
X79362Y59255D01*
X79436Y59210D01*
X79503Y59188D01*
X79569Y59173D01*
X79621Y59166D01*
X79651Y59159D01*
X79665D01*
X79762Y59166D01*
X79850Y59188D01*
X79924Y59225D01*
X79984Y59262D01*
X80028Y59292D01*
X80058Y59329D01*
X80080Y59351D01*
X80087Y59358D01*
X80132Y59447D01*
X80169Y59543D01*
X80198Y59654D01*
X80220Y59758D01*
X80228Y59847D01*
X80235Y59928D01*
X80243Y59950D01*
Y59973D01*
Y59987D01*
Y59995D01*
X79096Y60846D01*
D02*
G37*
G36*
X72450Y62259D02*
X72406D01*
X72310Y62252D01*
X72221Y62230D01*
X72147Y62193D01*
X72088Y62156D01*
X72043Y62111D01*
X72014Y62082D01*
X71992Y62052D01*
X71984Y62045D01*
X71932Y61956D01*
X71895Y61860D01*
X71873Y61756D01*
X71851Y61652D01*
X71836Y61556D01*
X71829Y61482D01*
Y61453D01*
Y61430D01*
Y61416D01*
Y61408D01*
X72976Y60550D01*
Y61356D01*
X72968Y61519D01*
X72954Y61660D01*
X72931Y61771D01*
X72902Y61867D01*
X72880Y61941D01*
X72857Y61993D01*
X72843Y62030D01*
X72835Y62037D01*
X72776Y62111D01*
X72709Y62163D01*
X72635Y62207D01*
X72569Y62230D01*
X72502Y62244D01*
X72450Y62259D01*
D02*
G37*
G36*
X71829Y60846D02*
Y60069D01*
X71836Y59906D01*
X71851Y59765D01*
X71873Y59647D01*
X71895Y59551D01*
X71925Y59477D01*
X71947Y59425D01*
X71962Y59388D01*
X71969Y59381D01*
X72029Y59307D01*
X72095Y59255D01*
X72169Y59210D01*
X72236Y59188D01*
X72302Y59173D01*
X72354Y59166D01*
X72384Y59159D01*
X72399D01*
X72495Y59166D01*
X72584Y59188D01*
X72658Y59225D01*
X72717Y59262D01*
X72761Y59292D01*
X72791Y59329D01*
X72813Y59351D01*
X72820Y59358D01*
X72865Y59447D01*
X72902Y59543D01*
X72931Y59654D01*
X72954Y59758D01*
X72961Y59847D01*
X72968Y59928D01*
X72976Y59950D01*
Y59973D01*
Y59987D01*
Y59995D01*
X71829Y60846D01*
D02*
G37*
G36*
X71950Y54723D02*
X71906D01*
X71810Y54716D01*
X71721Y54694D01*
X71647Y54657D01*
X71588Y54620D01*
X71543Y54575D01*
X71514Y54546D01*
X71492Y54516D01*
X71484Y54509D01*
X71432Y54420D01*
X71395Y54324D01*
X71373Y54220D01*
X71351Y54116D01*
X71336Y54020D01*
X71329Y53946D01*
Y53917D01*
Y53895D01*
Y53880D01*
Y53872D01*
X72476Y53014D01*
Y53821D01*
X72468Y53983D01*
X72454Y54124D01*
X72431Y54235D01*
X72402Y54331D01*
X72380Y54405D01*
X72357Y54457D01*
X72343Y54494D01*
X72335Y54501D01*
X72276Y54575D01*
X72209Y54627D01*
X72135Y54672D01*
X72069Y54694D01*
X72002Y54709D01*
X71950Y54723D01*
D02*
G37*
G36*
X71329Y53310D02*
Y52533D01*
X71336Y52370D01*
X71351Y52229D01*
X71373Y52111D01*
X71395Y52015D01*
X71425Y51941D01*
X71447Y51889D01*
X71462Y51852D01*
X71469Y51845D01*
X71529Y51771D01*
X71595Y51719D01*
X71669Y51674D01*
X71736Y51652D01*
X71802Y51638D01*
X71854Y51630D01*
X71884Y51623D01*
X71899D01*
X71995Y51630D01*
X72084Y51652D01*
X72158Y51689D01*
X72217Y51726D01*
X72261Y51756D01*
X72291Y51793D01*
X72313Y51815D01*
X72320Y51823D01*
X72365Y51911D01*
X72402Y52008D01*
X72431Y52119D01*
X72454Y52222D01*
X72461Y52311D01*
X72468Y52392D01*
X72476Y52415D01*
Y52437D01*
Y52451D01*
Y52459D01*
X71329Y53310D01*
D02*
G37*
G36*
X94580Y49193D02*
X93936D01*
X93810Y49185D01*
X93758Y49178D01*
X93714Y49163D01*
X93684Y49156D01*
X93655Y49141D01*
X93640Y49133D01*
X93632D01*
X93544Y49082D01*
X93470Y49037D01*
X93425Y48993D01*
X93418Y48985D01*
X93410Y48978D01*
X93351Y48904D01*
X93307Y48830D01*
X93292Y48793D01*
X93285Y48771D01*
X93277Y48756D01*
Y48749D01*
X93248Y48652D01*
X93240Y48564D01*
X93233Y48527D01*
Y48497D01*
Y48475D01*
Y48467D01*
X93240Y48379D01*
X93255Y48297D01*
X93262Y48260D01*
X93270Y48238D01*
X93277Y48223D01*
Y48216D01*
X93314Y48134D01*
X93359Y48068D01*
X93396Y48023D01*
X93403Y48016D01*
X93410Y48009D01*
X93484Y47949D01*
X93551Y47905D01*
X93588Y47883D01*
X93610Y47868D01*
X93625Y47861D01*
X93632D01*
X93736Y47831D01*
X93832Y47816D01*
X93869Y47809D01*
X94580D01*
Y49193D01*
D02*
G37*
G36*
X91005D02*
X90732D01*
X90635Y49185D01*
X90554Y49178D01*
X90473Y49163D01*
X90406Y49148D01*
X90354Y49126D01*
X90317Y49111D01*
X90288Y49104D01*
X90280Y49096D01*
X90147Y49015D01*
X90095Y48971D01*
X90043Y48926D01*
X90006Y48889D01*
X89977Y48860D01*
X89962Y48837D01*
X89955Y48830D01*
X89866Y48697D01*
X89836Y48623D01*
X89807Y48556D01*
X89784Y48504D01*
X89770Y48460D01*
X89755Y48423D01*
Y48416D01*
X89718Y48231D01*
X89703Y48149D01*
X89696Y48068D01*
X89688Y47994D01*
Y47942D01*
Y47905D01*
Y47890D01*
Y47528D01*
Y47417D01*
X89703Y47313D01*
X89710Y47224D01*
X89725Y47143D01*
X89740Y47076D01*
X89747Y47024D01*
X89762Y46995D01*
Y46980D01*
X89792Y46891D01*
X89821Y46810D01*
X89851Y46743D01*
X89888Y46684D01*
X89918Y46632D01*
X89940Y46595D01*
X89955Y46573D01*
X89962Y46566D01*
X90066Y46455D01*
X90117Y46418D01*
X90162Y46381D01*
X90206Y46351D01*
X90243Y46329D01*
X90265Y46321D01*
X90273Y46314D01*
X90347Y46284D01*
X90413Y46262D01*
X90487Y46247D01*
X90547Y46240D01*
X90606Y46233D01*
X90650Y46225D01*
X91005D01*
Y49193D01*
D02*
G37*
G36*
X43825Y54999D02*
X43403Y53600D01*
X44258D01*
X43825Y54999D01*
D02*
G37*
G36*
X61842Y29621D02*
X61420Y28223D01*
X62275D01*
X61842Y29621D01*
D02*
G37*
G36*
X51502Y29921D02*
X50864D01*
X50764Y29915D01*
X50720Y29910D01*
X50681Y29899D01*
X50648Y29893D01*
X50625Y29882D01*
X50609Y29876D01*
X50603D01*
X50520Y29838D01*
X50487Y29815D01*
X50453Y29799D01*
X50431Y29776D01*
X50415Y29765D01*
X50403Y29754D01*
X50398Y29749D01*
X50337Y29682D01*
X50292Y29616D01*
X50281Y29588D01*
X50270Y29571D01*
X50259Y29555D01*
Y29549D01*
X50231Y29460D01*
X50215Y29371D01*
X50209Y29338D01*
Y29310D01*
Y29288D01*
Y29283D01*
X50215Y29183D01*
X50226Y29138D01*
X50231Y29099D01*
X50242Y29066D01*
X50253Y29044D01*
X50259Y29027D01*
Y29022D01*
X50304Y28944D01*
X50348Y28883D01*
X50365Y28861D01*
X50381Y28844D01*
X50392Y28833D01*
X50398Y28827D01*
X50470Y28778D01*
X50537Y28739D01*
X50564Y28722D01*
X50586Y28716D01*
X50603Y28705D01*
X50609D01*
X50697Y28678D01*
X50781Y28666D01*
X50814Y28661D01*
X51502D01*
Y29921D01*
D02*
G37*
G36*
X46080D02*
X45536D01*
X45431Y29915D01*
X45386Y29910D01*
X45347Y29899D01*
X45314Y29893D01*
X45286Y29882D01*
X45270Y29876D01*
X45264D01*
X45175Y29843D01*
X45142Y29821D01*
X45109Y29804D01*
X45081Y29788D01*
X45064Y29771D01*
X45053Y29765D01*
X45048Y29760D01*
X44987Y29699D01*
X44942Y29632D01*
X44931Y29605D01*
X44920Y29588D01*
X44909Y29571D01*
Y29566D01*
X44876Y29477D01*
X44859Y29388D01*
X44853Y29349D01*
Y29321D01*
Y29299D01*
Y29294D01*
X44864Y29188D01*
X44870Y29144D01*
X44881Y29105D01*
X44892Y29077D01*
X44898Y29055D01*
X44909Y29038D01*
Y29033D01*
X44953Y28955D01*
X44998Y28900D01*
X45020Y28877D01*
X45037Y28861D01*
X45048Y28850D01*
X45053Y28844D01*
X45125Y28794D01*
X45197Y28755D01*
X45225Y28739D01*
X45247Y28733D01*
X45264Y28722D01*
X45270D01*
X45358Y28700D01*
X45403Y28694D01*
X45442Y28689D01*
X45475Y28683D01*
X46080D01*
Y29921D01*
D02*
G37*
G36*
X62389Y23910D02*
X61828D01*
X61745Y23904D01*
X61667Y23893D01*
X61639Y23888D01*
X61617Y23882D01*
X61601Y23876D01*
X61595D01*
X61512Y23849D01*
X61451Y23821D01*
X61428Y23810D01*
X61412Y23799D01*
X61401Y23793D01*
X61395Y23788D01*
X61334Y23738D01*
X61290Y23682D01*
X61279Y23660D01*
X61268Y23643D01*
X61256Y23632D01*
Y23627D01*
X61223Y23549D01*
X61206Y23477D01*
X61201Y23449D01*
Y23421D01*
Y23405D01*
Y23399D01*
X61212Y23310D01*
X61218Y23271D01*
X61229Y23238D01*
X61240Y23216D01*
X61245Y23194D01*
X61256Y23183D01*
Y23177D01*
X61301Y23110D01*
X61345Y23061D01*
X61379Y23027D01*
X61390Y23022D01*
X61395Y23016D01*
X61462Y22972D01*
X61523Y22944D01*
X61550Y22933D01*
X61573Y22922D01*
X61584Y22916D01*
X61589D01*
X61673Y22894D01*
X61745Y22883D01*
X61773D01*
X61795Y22877D01*
X62389D01*
Y23910D01*
D02*
G37*
G36*
Y22539D02*
X61734D01*
X61645Y22528D01*
X61601Y22522D01*
X61567Y22517D01*
X61539Y22505D01*
X61512Y22500D01*
X61501Y22494D01*
X61495D01*
X61412Y22461D01*
X61351Y22422D01*
X61329Y22406D01*
X61312Y22389D01*
X61301Y22383D01*
X61295Y22378D01*
X61240Y22317D01*
X61195Y22261D01*
X61184Y22234D01*
X61173Y22211D01*
X61162Y22200D01*
Y22195D01*
X61134Y22111D01*
X61123Y22034D01*
X61118Y22006D01*
Y21978D01*
Y21962D01*
Y21956D01*
X61129Y21862D01*
X61134Y21817D01*
X61145Y21784D01*
X61156Y21751D01*
X61162Y21729D01*
X61173Y21717D01*
Y21712D01*
X61218Y21640D01*
X61262Y21579D01*
X61279Y21556D01*
X61295Y21545D01*
X61306Y21534D01*
X61312Y21529D01*
X61379Y21479D01*
X61445Y21445D01*
X61473Y21434D01*
X61495Y21423D01*
X61512Y21418D01*
X61517D01*
X61601Y21396D01*
X61678Y21379D01*
X61712D01*
X61734Y21373D01*
X62389D01*
Y22539D01*
D02*
G37*
%LPD*%
M02*
