G04*
G04 #@! TF.GenerationSoftware,Altium Limited,Altium Designer,20.1.11 (218)*
G04*
G04 Layer_Physical_Order=2*
G04 Layer_Color=16711680*
%FSLAX25Y25*%
%MOIN*%
G70*
G04*
G04 #@! TF.SameCoordinates,DBF43E64-11B2-480E-9B44-63982416C987*
G04*
G04*
G04 #@! TF.FilePolarity,Positive*
G04*
G01*
G75*
%ADD10C,0.01000*%
%ADD15C,0.03937*%
%ADD37C,0.02000*%
%ADD38C,0.00700*%
%ADD39O,0.08661X0.03937*%
%ADD40O,0.07087X0.03937*%
%ADD41C,0.09449*%
%ADD42R,0.09449X0.09449*%
%ADD43C,0.02362*%
%ADD44C,0.02756*%
%ADD45C,0.04000*%
G36*
X2000Y68487D02*
X137000Y68487D01*
X138000Y68487D01*
X138029Y68492D01*
X138356Y68357D01*
X138492Y68028D01*
X138487Y68000D01*
X138487Y35000D01*
X72842D01*
X70693Y37148D01*
X70763Y37500D01*
X70572Y38463D01*
X70026Y39280D01*
X69210Y39825D01*
X68247Y40017D01*
X67283Y39825D01*
X66798Y39501D01*
X66298Y39768D01*
Y49722D01*
X66220Y50112D01*
X65999Y50443D01*
X63836Y52606D01*
X63915Y53000D01*
X63769Y53733D01*
X63354Y54354D01*
X62733Y54769D01*
X62000Y54915D01*
X61267Y54769D01*
X60646Y54354D01*
X60231Y53733D01*
X60085Y53000D01*
X60231Y52267D01*
X60646Y51646D01*
X61267Y51231D01*
X62000Y51085D01*
X62394Y51164D01*
X64258Y49300D01*
Y46665D01*
X63758Y46515D01*
X63621Y46721D01*
X57836Y52506D01*
X57915Y52900D01*
X57769Y53633D01*
X57354Y54254D01*
X56733Y54669D01*
X56000Y54815D01*
X55267Y54669D01*
X54646Y54254D01*
X54231Y53633D01*
X54085Y52900D01*
X54231Y52167D01*
X54646Y51546D01*
X55267Y51131D01*
X56000Y50985D01*
X56394Y51064D01*
X61880Y45578D01*
Y43735D01*
X61380Y43686D01*
X61325Y43963D01*
X60780Y44780D01*
X59963Y45325D01*
X59000Y45517D01*
X58037Y45325D01*
X57220Y44780D01*
X56675Y43963D01*
X56483Y43000D01*
X56675Y42037D01*
X57220Y41220D01*
X57471Y41053D01*
Y35000D01*
X45049D01*
Y35735D01*
X44855Y36710D01*
X44302Y37537D01*
X41959Y39880D01*
X41132Y40433D01*
X40157Y40627D01*
X39817D01*
X39476Y40855D01*
X38500Y41049D01*
X37525Y40855D01*
X36698Y40302D01*
X36145Y39476D01*
X35951Y38500D01*
X36145Y37525D01*
X36698Y36698D01*
X36989Y36406D01*
X36990Y36404D01*
X36974Y35927D01*
X36923Y35806D01*
X36546Y35554D01*
X36176Y35000D01*
X35913D01*
X35806Y22106D01*
X35785Y22000D01*
X35805Y21902D01*
X35786Y19680D01*
X35607Y19500D01*
X28000D01*
Y23633D01*
X27133Y24500D01*
X26013D01*
Y35000D01*
Y42642D01*
Y45788D01*
X26660Y45916D01*
X26785Y46000D01*
X27037D01*
Y46169D01*
X27216Y46288D01*
X27587Y46844D01*
X27718Y47500D01*
X27587Y48156D01*
X27216Y48712D01*
X26660Y49084D01*
X26013Y49212D01*
Y52500D01*
X26033D01*
X25840Y53469D01*
X25531Y53932D01*
X25798Y54432D01*
X25949D01*
X26912Y54624D01*
X27729Y55169D01*
X28274Y55986D01*
X28466Y56949D01*
X28274Y57912D01*
X27729Y58728D01*
X26912Y59274D01*
X25949Y59466D01*
X22799D01*
X21836Y59274D01*
X21020Y58728D01*
X20474Y57912D01*
X20282Y56949D01*
X20474Y55986D01*
X20789Y55513D01*
X20522Y55013D01*
X13265D01*
X12998Y55513D01*
X13314Y55986D01*
X13505Y56949D01*
X13314Y57912D01*
X12768Y58728D01*
X11951Y59274D01*
X10988Y59466D01*
X6264D01*
X5301Y59274D01*
X4484Y58728D01*
X3938Y57912D01*
X3747Y56949D01*
X3938Y55986D01*
X4254Y55513D01*
X3987Y55013D01*
X3500D01*
X3500Y55013D01*
X3500Y55013D01*
X3031Y55089D01*
X2733Y55148D01*
X2083Y55583D01*
X1648Y56233D01*
X1505Y56956D01*
X1513Y57000D01*
Y68000D01*
X1508Y68028D01*
X1643Y68357D01*
X1971Y68492D01*
X2000Y68487D01*
D02*
G37*
G36*
X61880Y25077D02*
X61546Y24854D01*
X61131Y24233D01*
X60985Y23500D01*
X61131Y22767D01*
X61546Y22146D01*
X62167Y21731D01*
X62734Y21618D01*
X62770Y21576D01*
X62940Y21176D01*
X62947Y21105D01*
X62631Y20633D01*
X62485Y19900D01*
X62631Y19167D01*
X63046Y18546D01*
X63667Y18131D01*
X64400Y17985D01*
X65133Y18131D01*
X65754Y18546D01*
X66169Y19167D01*
X66315Y19900D01*
X66169Y20633D01*
X66348Y20866D01*
X66912Y20883D01*
X67020Y20720D01*
X67837Y20175D01*
X68398Y20063D01*
X68563Y19521D01*
X63538Y14496D01*
X53970D01*
X53780Y14780D01*
X52963Y15325D01*
X52000Y15517D01*
X51037Y15325D01*
X50220Y14780D01*
X49675Y13963D01*
X49483Y13000D01*
X49675Y12037D01*
X50220Y11220D01*
X51037Y10675D01*
X52000Y10483D01*
X52963Y10675D01*
X53780Y11220D01*
X53924Y11437D01*
X64171D01*
X64757Y11553D01*
X65253Y11885D01*
X73450Y20082D01*
X73782Y20578D01*
X73898Y21163D01*
Y33310D01*
X73782Y33896D01*
X73739Y33959D01*
X74006Y34459D01*
X94969D01*
X95120Y33959D01*
X94455Y33514D01*
X93909Y32697D01*
X93867Y32484D01*
X98602D01*
X98559Y32697D01*
X98014Y33514D01*
X97348Y33959D01*
X97500Y34459D01*
X138487D01*
Y2000D01*
X138492Y1971D01*
X138356Y1643D01*
X138029Y1508D01*
X138000Y1513D01*
X72122D01*
X71970Y2013D01*
X72280Y2220D01*
X72825Y3037D01*
X72868Y3250D01*
X68132D01*
X68175Y3037D01*
X68720Y2220D01*
X69030Y2013D01*
X68878Y1513D01*
X48243D01*
X47976Y2013D01*
X48325Y2537D01*
X48368Y2750D01*
X43632D01*
X43675Y2537D01*
X44025Y2013D01*
X43757Y1513D01*
X2000D01*
X1971Y1508D01*
X1643Y1643D01*
X1508Y1971D01*
X1513Y2000D01*
Y13000D01*
X1505Y13044D01*
X1648Y13767D01*
X2083Y14417D01*
X2733Y14852D01*
X3031Y14911D01*
X3500Y14987D01*
X3500Y14987D01*
X3500Y14987D01*
X3987D01*
X4254Y14487D01*
X3938Y14014D01*
X3747Y13051D01*
X3938Y12088D01*
X4484Y11271D01*
X5301Y10726D01*
X6264Y10534D01*
X10988D01*
X11951Y10726D01*
X12768Y11271D01*
X13314Y12088D01*
X13505Y13051D01*
X13314Y14014D01*
X12998Y14487D01*
X13265Y14987D01*
X20522D01*
X20789Y14487D01*
X20474Y14014D01*
X20282Y13051D01*
X20474Y12088D01*
X21020Y11271D01*
X21836Y10726D01*
X22799Y10534D01*
X25949D01*
X26912Y10726D01*
X27729Y11271D01*
X28274Y12088D01*
X28466Y13051D01*
X28274Y14014D01*
X27729Y14831D01*
X26912Y15376D01*
X25949Y15568D01*
X25798D01*
X25531Y16068D01*
X25840Y16531D01*
X26033Y17500D01*
X26013D01*
Y20788D01*
X26660Y20916D01*
X26959Y21116D01*
X27459Y20849D01*
Y19500D01*
X27617Y19117D01*
X28000Y18959D01*
X29541D01*
X29673Y18726D01*
X29746Y18459D01*
X29479Y18060D01*
X31000D01*
Y17310D01*
X31750D01*
Y15790D01*
X32019Y15969D01*
X32373Y16058D01*
X32727Y15969D01*
X32996Y15790D01*
Y17310D01*
X34496D01*
Y15790D01*
X34765Y15969D01*
X35119Y16058D01*
X35473Y15969D01*
X35742Y15790D01*
Y17310D01*
X36492D01*
Y18060D01*
X38013D01*
X37704Y18522D01*
X37148Y18894D01*
X36551Y19013D01*
X36531Y19028D01*
X36379Y19237D01*
X36247Y19485D01*
X36248Y19487D01*
X36327Y19675D01*
X36331Y20055D01*
X36833Y20321D01*
X36967Y20231D01*
X37700Y20085D01*
X38433Y20231D01*
X39054Y20646D01*
X39469Y21267D01*
X39615Y22000D01*
X39469Y22733D01*
X39054Y23354D01*
X38667Y23613D01*
Y32454D01*
X39254Y32846D01*
X39669Y33467D01*
X39815Y34200D01*
X39755Y34500D01*
X40165Y35000D01*
X44508D01*
X44666Y34617D01*
X45049Y34459D01*
X48159D01*
X48208Y33959D01*
X47537Y33825D01*
X46720Y33280D01*
X46175Y32463D01*
X46132Y32250D01*
X50868D01*
X50825Y32463D01*
X50280Y33280D01*
X49463Y33825D01*
X48792Y33959D01*
X48841Y34459D01*
X57471D01*
X57853Y34617D01*
X58012Y35000D01*
X61880D01*
Y25077D01*
D02*
G37*
%LPC*%
G36*
X50400Y56317D02*
X49437Y56125D01*
X48620Y55580D01*
X48075Y54763D01*
X47883Y53800D01*
X48075Y52837D01*
X48620Y52020D01*
X49437Y51475D01*
X50400Y51283D01*
X51363Y51475D01*
X52180Y52020D01*
X52725Y52837D01*
X52917Y53800D01*
X52725Y54763D01*
X52180Y55580D01*
X51363Y56125D01*
X50400Y56317D01*
D02*
G37*
G36*
X129161Y50067D02*
X124687D01*
Y45592D01*
X129161D01*
Y50067D01*
D02*
G37*
G36*
X123187D02*
X118713D01*
Y45592D01*
X123187D01*
Y50067D01*
D02*
G37*
G36*
X46850Y42957D02*
Y41950D01*
X47857D01*
X47454Y42554D01*
X46850Y42957D01*
D02*
G37*
G36*
X45350D02*
X44746Y42554D01*
X44342Y41950D01*
X45350D01*
Y42957D01*
D02*
G37*
G36*
X129161Y44093D02*
X124687D01*
Y39618D01*
X129161D01*
Y44093D01*
D02*
G37*
G36*
X123187D02*
X118713D01*
Y39618D01*
X123187D01*
Y44093D01*
D02*
G37*
G36*
X47857Y40450D02*
X46850D01*
Y39443D01*
X47454Y39846D01*
X47857Y40450D01*
D02*
G37*
G36*
X45350D02*
X44342D01*
X44746Y39846D01*
X45350Y39443D01*
Y40450D01*
D02*
G37*
G36*
X98602Y30984D02*
X96984D01*
Y29367D01*
X97197Y29409D01*
X98014Y29955D01*
X98559Y30771D01*
X98602Y30984D01*
D02*
G37*
G36*
X95484D02*
X93867D01*
X93909Y30771D01*
X94455Y29955D01*
X95271Y29409D01*
X95484Y29367D01*
Y30984D01*
D02*
G37*
G36*
X50868Y30750D02*
X49250D01*
Y29132D01*
X49463Y29175D01*
X50280Y29720D01*
X50825Y30537D01*
X50868Y30750D01*
D02*
G37*
G36*
X47750D02*
X46132D01*
X46175Y30537D01*
X46720Y29720D01*
X47537Y29175D01*
X47750Y29132D01*
Y30750D01*
D02*
G37*
G36*
X54750Y28368D02*
Y26750D01*
X56368D01*
X56325Y26963D01*
X55780Y27780D01*
X54963Y28325D01*
X54750Y28368D01*
D02*
G37*
G36*
X53250D02*
X53037Y28325D01*
X52220Y27780D01*
X51675Y26963D01*
X51632Y26750D01*
X53250D01*
Y28368D01*
D02*
G37*
G36*
X124687Y30328D02*
Y25907D01*
X129108D01*
X129027Y26521D01*
X128500Y27792D01*
X127663Y28884D01*
X126572Y29721D01*
X125301Y30247D01*
X124687Y30328D01*
D02*
G37*
G36*
X123187D02*
X122573Y30247D01*
X121302Y29721D01*
X120211Y28884D01*
X119374Y27792D01*
X118847Y26521D01*
X118766Y25907D01*
X123187D01*
Y30328D01*
D02*
G37*
G36*
X56368Y25250D02*
X54750D01*
Y23632D01*
X54963Y23675D01*
X55780Y24220D01*
X56325Y25037D01*
X56368Y25250D01*
D02*
G37*
G36*
X53250D02*
X51632D01*
X51675Y25037D01*
X52220Y24220D01*
X53037Y23675D01*
X53250Y23632D01*
Y25250D01*
D02*
G37*
G36*
X123187Y24408D02*
X118766D01*
X118847Y23794D01*
X119374Y22523D01*
X120211Y21431D01*
X121302Y20594D01*
X122573Y20067D01*
X123187Y19987D01*
Y24408D01*
D02*
G37*
G36*
X129108D02*
X124687D01*
Y19987D01*
X125301Y20067D01*
X126572Y20594D01*
X127663Y21431D01*
X128500Y22523D01*
X129027Y23794D01*
X129108Y24408D01*
D02*
G37*
G36*
X38013Y16560D02*
X37242D01*
Y15790D01*
X37704Y16098D01*
X38013Y16560D01*
D02*
G37*
G36*
X30250D02*
X29479D01*
X29788Y16098D01*
X30250Y15790D01*
Y16560D01*
D02*
G37*
G36*
X71250Y6368D02*
Y4750D01*
X72868D01*
X72825Y4963D01*
X72280Y5780D01*
X71463Y6325D01*
X71250Y6368D01*
D02*
G37*
G36*
X69750D02*
X69537Y6325D01*
X68720Y5780D01*
X68175Y4963D01*
X68132Y4750D01*
X69750D01*
Y6368D01*
D02*
G37*
G36*
X46750Y5868D02*
Y4250D01*
X48368D01*
X48325Y4463D01*
X47780Y5280D01*
X46963Y5825D01*
X46750Y5868D01*
D02*
G37*
G36*
X45250D02*
X45037Y5825D01*
X44220Y5280D01*
X43675Y4463D01*
X43632Y4250D01*
X45250D01*
Y5868D01*
D02*
G37*
%LPD*%
D10*
X65278Y21253D02*
Y49722D01*
X62900Y23500D02*
Y46000D01*
X56000Y52900D02*
X62900Y46000D01*
X62000Y53000D02*
X65278Y49722D01*
X64400Y20375D02*
X65278Y21253D01*
X64400Y19900D02*
Y20375D01*
D15*
X68800Y22500D02*
D03*
X68900Y28500D02*
D03*
X50400Y53800D02*
D03*
X70500Y4000D02*
D03*
X38500Y38500D02*
D03*
X46000Y3500D02*
D03*
X96234Y31734D02*
D03*
X54000Y26000D02*
D03*
X48500Y31500D02*
D03*
X68247Y37500D02*
D03*
X52000Y13000D02*
D03*
X59000Y43000D02*
D03*
D37*
X54000Y26000D02*
X59000Y31000D01*
Y43000D01*
X52000Y13000D02*
X52034Y12966D01*
X72369Y21163D02*
Y33310D01*
X68247Y37432D02*
Y37500D01*
X52034Y12966D02*
X64171D01*
X68247Y37432D02*
X72369Y33310D01*
X64171Y12966D02*
X72369Y21163D01*
D38*
X37800Y34100D02*
X37900Y34200D01*
X37800Y22100D02*
Y34100D01*
X37700Y22000D02*
X37800Y22100D01*
D39*
X8626Y13051D02*
D03*
Y56949D02*
D03*
D40*
X24374Y13051D02*
D03*
Y56949D02*
D03*
D41*
X123937Y25157D02*
D03*
D42*
Y44842D02*
D03*
D43*
X25984Y25650D02*
D03*
X31000Y17310D02*
D03*
X33746D02*
D03*
X36492D02*
D03*
X26004Y22500D02*
D03*
Y47500D02*
D03*
X25984Y44350D02*
D03*
D44*
X34432Y21034D02*
D03*
X31900D02*
D03*
X37700Y22000D02*
D03*
X37900Y34200D02*
D03*
X46100Y41200D02*
D03*
X50400Y53800D02*
D03*
X62900Y23500D02*
D03*
X62000Y53000D02*
D03*
X64400Y19900D02*
D03*
X68800Y22500D02*
D03*
X56000Y52900D02*
D03*
X68900Y28500D02*
D03*
D45*
X40157Y38078D02*
X42500Y35735D01*
X38922Y38078D02*
X40157D01*
X42500Y33082D02*
Y35735D01*
X38500Y38500D02*
X38922Y38078D01*
M02*
